<svg width="134" height="134" viewBox="0 0 134 134" fill="none" xmlns="http://www.w3.org/2000/svg">
<path d="M0 48.1455C0 31.2931 0 22.8668 3.27972 16.43C6.16465 10.768 10.768 6.16465 16.43 3.27972C22.8668 0 31.2931 0 48.1455 0H84.8885C101.741 0 110.167 0 116.604 3.27972C122.266 6.16465 126.869 10.768 129.754 16.43C133.034 22.8668 133.034 31.2931 133.034 48.1455V84.8885C133.034 101.741 133.034 110.167 129.754 116.604C126.869 122.266 122.266 126.869 116.604 129.754C110.167 133.034 101.741 133.034 84.8885 133.034H48.1455C31.2931 133.034 22.8668 133.034 16.43 129.754C10.768 126.869 6.16465 122.266 3.27972 116.604C0 110.167 0 101.741 0 84.8885V48.1455Z" fill="#330000"/>
<path d="M64.4673 83.6038H43.8522L39.6578 96.9675C39.5414 97.464 39.0844 97.8156 38.5869 97.7909H28.1454C27.5499 97.7909 27.3417 97.4555 27.5207 96.7841L45.3693 44.0618C45.5479 43.5125 45.7266 42.8873 45.9047 42.1855C46.1385 40.964 46.2578 39.723 46.262 38.4786C46.2107 38.1109 46.5338 37.7861 46.8863 37.8376H61.0763C61.4921 37.8376 61.7296 37.9902 61.79 38.2952L82.0487 96.8758C82.2268 97.4863 82.0487 97.7914 81.5132 97.7909H69.9112C69.5045 97.8375 69.1159 97.5586 69.0189 97.1504L64.4673 83.6038ZM47.065 72.0707H61.1656C58.8489 64.1542 56.2344 56.3418 54.1153 48.364C51.829 56.3556 49.3346 64.3148 47.065 72.0707Z" fill="#FF9A00"/>
<path d="M94.0952 47.5397C93.1848 47.5772 92.2773 47.4171 91.4311 47.0703C90.5854 46.7234 89.8205 46.197 89.1867 45.5261C88.5548 44.8258 88.0635 44.0048 87.7418 43.1092C87.4202 42.214 87.2743 41.2624 87.3123 40.3088C87.28 39.3647 87.442 38.4245 87.7879 37.5491C88.1343 36.6737 88.6564 35.883 89.3207 35.2287C89.9782 34.5812 90.7546 34.0738 91.605 33.7361C92.455 33.3983 93.362 33.2368 94.2733 33.2608C96.4156 33.2608 98.0961 33.9168 99.3158 35.2287C99.9315 35.9105 100.41 36.7101 100.724 37.5818C101.038 38.4535 101.181 39.3804 101.145 40.3088C101.183 41.2657 101.032 42.2212 100.702 43.1172C100.373 44.0133 99.8707 44.8324 99.2265 45.5261C98.5532 46.207 97.7493 46.7372 96.8665 47.084C95.9833 47.4304 95.0397 47.5858 94.0952 47.5397ZM87.9371 96.8753V53.1233C87.9371 52.5741 88.1742 52.2994 88.6512 52.2994H99.6284C100.104 52.2994 100.342 52.5741 100.342 53.1233V96.8753C100.342 97.4863 100.104 97.7914 99.6284 97.7909H88.7405C88.2051 97.7909 87.9371 97.4859 87.9371 96.8753Z" fill="#FF9A00"/>
</svg>
