<?xml version="1.0" encoding="utf-8"?>
<!-- Generator: Adobe Illustrator 28.1.0, SVG Export Plug-In . SVG Version: 6.00 Build 0)  -->
<svg version="1.1" id="Layer_1" xmlns="http://www.w3.org/2000/svg" xmlns:xlink="http://www.w3.org/1999/xlink" x="0px" y="0px"
	 viewBox="0 0 132 112" style="enable-background:new 0 0 132 112;" xml:space="preserve">
<style type="text/css">
	.st0{fill:url(#SVGID_1_);}
	.st1{fill:url(#SVGID_00000072277111999545774110000006028585337972967818_);}
</style>
<g>
	
		<linearGradient id="SVGID_1_" gradientUnits="userSpaceOnUse" x1="13.5751" y1="99.6187" x2="128.2987" y2="8.5509" gradientTransform="matrix(1 0 0 -1 0 114)">
		<stop  offset="0" style="stop-color:#9013FE"/>
		<stop  offset="1" style="stop-color:#6610F2"/>
	</linearGradient>
	<path class="st0" d="M14.8,17.4c-0.2-7.1,5.3-13.7,12.8-13.7h76.8c7.5,0,13,6.6,12.8,13.7c-0.2,6.8,0.1,15.7,2.3,22.9
		c2.2,7.2,6,11.8,12.2,12.4v6.7c-6.2,0.6-9.9,5.2-12.2,12.4c-2.2,7.2-2.5,16.1-2.3,22.9c0.2,7.1-5.3,13.7-12.8,13.7H27.6
		c-7.5,0-13-6.6-12.8-13.7c0.2-6.8-0.1-15.7-2.3-22.9c-2.2-7.2-6-11.8-12.2-12.4v-6.7c6.2-0.6,9.9-5.2,12.2-12.4
		C14.8,33,15.1,24.2,14.8,17.4z"/>
	
		<linearGradient id="SVGID_00000095322068441800871880000003468261404859073710_" gradientUnits="userSpaceOnUse" x1="48.8573" y1="81.5092" x2="74.5012" y2="38.1398" gradientTransform="matrix(1 0 0 -1 0 114)">
		<stop  offset="0" style="stop-color:#FFFFFF"/>
		<stop  offset="1" style="stop-color:#F1E5FC"/>
	</linearGradient>
	<path style="fill:url(#SVGID_00000095322068441800871880000003468261404859073710_);" d="M68.8,83.8c12.1,0,19.4-5.9,19.4-15.7
		c0-7.4-5.2-12.8-13-13.6v-0.3C81,53.2,85.5,47.9,85.5,42c0-8.4-6.6-13.9-16.8-13.9H46v55.6H68.8z M54.8,35.2h11.8
		c6.4,0,10,2.9,10,8c0,5.5-4.2,8.6-11.9,8.6h-9.9V35.2z M54.8,76.8V58.4h11.7c8.4,0,12.7,3.1,12.7,9.1c0,6-4.2,9.2-12.2,9.2H54.8z"
		/>
</g>
</svg>
