<svg width="134" height="123" viewBox="0 0 134 123" fill="none" xmlns="http://www.w3.org/2000/svg">
<path d="M66.5169 122.546L91.0122 47.1578H42.0217L66.5169 122.546Z" fill="#E24329"/>
<path d="M66.5169 122.546L42.0217 47.1578L7.69221 47.1576L66.5169 122.546Z" fill="#FC6D26"/>
<path d="M7.69221 47.1576L0.248589 70.0677C-0.430356 72.1571 0.31325 74.4463 2.09081 75.7376L66.5169 122.546L7.69221 47.1576Z" fill="#FCA326"/>
<path d="M7.69221 47.1576L42.0217 47.1578L27.2682 1.75228C26.5094 -0.584409 23.204 -0.583775 22.4452 1.75228L7.69221 47.1576Z" fill="#E24329"/>
<path d="M66.5169 122.546L91.0122 47.1578L125.342 47.1576L66.5169 122.546Z" fill="#FC6D26"/>
<path d="M125.342 47.1576L132.785 70.0677C133.464 72.1571 132.721 74.4463 130.943 75.7376L66.5169 122.546L125.342 47.1576Z" fill="#FCA326"/>
<path d="M125.342 47.1576L91.0122 47.1578L105.766 1.75228C106.525 -0.584409 109.83 -0.583775 110.589 1.75228L125.342 47.1576Z" fill="#E24329"/>
</svg>
