<svg width="100" height="136" viewBox="0 0 100 136" fill="none" xmlns="http://www.w3.org/2000/svg">
<path d="M32.2062 104.994C32.2062 104.994 27.0249 108 35.8937 109.017C46.6382 110.239 52.1292 110.064 63.9698 107.829C63.9698 107.829 67.0829 109.775 71.43 111.462C44.8873 122.808 11.3578 110.804 32.2062 104.994ZM28.9627 90.1882C28.9627 90.1882 23.1513 94.4789 32.0267 95.3943C43.5042 96.5753 52.5681 96.672 68.2524 93.6597C68.2524 93.6597 70.4218 95.8532 73.833 97.053C41.7407 106.413 5.99596 97.7911 28.9627 90.1882Z" fill="#5382A1"/>
<path d="M56.3058 65.0723C62.8462 72.5823 54.5875 79.3406 54.5875 79.3406C54.5875 79.3406 71.194 70.7902 63.5674 60.0827C56.4444 50.098 50.9817 45.1362 80.5535 28.0307C80.5535 28.0307 34.1357 39.5937 56.3058 65.0723Z" fill="#E76F00"/>
<path d="M91.4111 115.946C91.4111 115.946 95.2455 119.097 87.1881 121.535C71.8673 126.164 23.4206 127.562 9.96219 121.719C5.12443 119.62 14.1969 116.707 17.0506 116.096C20.0268 115.452 21.7278 115.572 21.7278 115.572C16.3475 111.792 -13.0481 122.995 6.79642 126.203C60.9147 134.956 105.449 122.261 91.4111 115.946ZM34.6975 74.8475C34.6975 74.8475 10.0548 80.6855 25.9712 82.805C32.6914 83.7025 46.0882 83.4997 58.5671 82.4566C68.7655 81.5991 79.006 79.7744 79.006 79.7744C79.006 79.7744 75.41 81.3105 72.8083 83.0823C47.7837 89.6467 -0.559346 86.5929 13.358 79.8782C25.1279 74.2037 34.6975 74.8475 34.6975 74.8475ZM78.9043 99.4928C104.343 86.3083 92.5814 73.6383 84.3718 75.3455C82.3594 75.7629 81.4624 76.1247 81.4624 76.1247C81.4624 76.1247 82.2094 74.9579 83.6361 74.4528C99.8771 68.7576 112.368 91.2493 78.3932 100.157C78.3932 100.157 78.7869 99.8068 78.9043 99.4928Z" fill="#5382A1"/>
<path d="M63.5674 0.40918C63.5674 0.40918 77.6559 14.466 50.2052 36.0803C28.1928 53.4192 45.1856 63.3052 50.1961 74.6004C37.347 63.0377 27.9172 52.8589 34.2436 43.3856C43.5286 29.4787 69.2516 22.7369 63.5674 0.40918Z" fill="#E76F00"/>
<path d="M37.1974 135.219C61.6155 136.779 99.112 134.355 100 122.831C100 122.831 98.2931 127.2 79.8198 130.669C58.9785 134.58 33.274 134.124 18.0281 131.617C18.0281 131.617 21.1488 134.193 37.1974 135.219Z" fill="#5382A1"/>
</svg>
