<svg width="100" height="100" viewBox="0 0 100 100" fill="none" xmlns="http://www.w3.org/2000/svg">
<path d="M100 0H0V100H100V0Z" fill="#F7DF1E"/>
<path d="M26.3008 83.5625L33.9453 78.9316C35.4238 81.5625 36.7676 83.7539 39.9727 83.7539C43.0684 83.7539 45.0137 82.5488 45.0137 77.8359V45.918H54.4102V78C54.4102 87.7266 48.7109 92.1641 40.3828 92.1641C32.877 92.1641 28.5215 88.2734 26.3008 83.5625Z" fill="white"/>
<path d="M59.5352 82.5488L67.1797 78.1113C69.207 81.3984 71.8105 83.8105 76.4395 83.8105C80.3301 83.8105 82.8223 81.8652 82.8223 79.1797C82.8223 75.9473 80.2734 74.8242 75.9727 72.9336L73.6172 71.9199C66.8496 69.043 62.3301 65.3984 62.3301 57.7559C62.3301 50.7148 67.6992 45.3457 76.084 45.3457C82.0566 45.3457 86.3574 47.4277 89.4531 52.8535L82.1387 57.5391C80.5215 54.6621 78.7969 53.5117 76.1113 53.5117C73.3711 53.5117 71.6191 55.2656 71.6191 57.5391C71.6191 60.3613 73.373 61.5117 77.4004 63.2383L79.7559 64.252C87.7559 67.6758 92.248 71.1562 92.248 79.0195C92.248 87.4844 85.5898 92.1152 76.6855 92.1152C67.918 92.1641 62.2734 88 59.5352 82.5488Z" fill="white"/>
</svg>
