<svg width="100" height="97" viewBox="0 0 100 97" fill="none" xmlns="http://www.w3.org/2000/svg">
<path d="M5.85742 66.5007C5.95325 66.7171 6.06159 66.9169 6.17825 67.1168C6.23242 67.2333 6.30742 67.354 6.37409 67.4623C6.48242 67.6787 6.59909 67.8869 6.71159 68.095L7.36577 69.194C7.4866 69.398 7.60327 69.5978 7.74077 69.7976C7.96994 70.1889 8.24077 70.5719 8.47828 70.9632C8.58661 71.1255 8.68661 71.2879 8.80745 71.4502C9.26578 72.1621 9.68245 72.7532 10.1283 73.3277C10.445 73.7564 10.7616 74.1769 11.1033 74.5973C11.2158 74.7555 11.3408 74.9137 11.4575 75.0719L12.3783 76.1875C12.4908 76.3166 12.6033 76.4664 12.7241 76.5996C13.1325 77.0908 13.5658 77.5654 13.9992 78.0483C13.9992 78.0566 14.0117 78.0649 14.02 78.0774C14.5575 78.7518 15.1367 79.3512 15.77 79.8841L15.7867 79.9007C16.12 80.2421 16.4534 80.5793 16.8075 80.9123L17.2284 81.3161C17.6909 81.749 18.1534 82.1778 18.6409 82.5941C18.6492 82.5941 18.6534 82.6024 18.6617 82.6066L18.8992 82.8147C19.3242 83.1852 19.7534 83.5515 20.1909 83.8929L20.7117 84.3299C21.0659 84.613 21.4326 84.8794 21.7951 85.1583L22.3617 85.5913C22.7492 85.8827 23.1617 86.1658 23.5576 86.4488C23.7034 86.5529 23.8493 86.657 23.9993 86.7527L24.1201 86.8484L25.2909 87.6144L25.7909 87.9474C26.4034 88.3387 27.0118 88.7051 27.6201 89.0714C27.7951 89.1588 27.9701 89.2545 28.1326 89.3545C28.5826 89.6125 29.0493 89.8748 29.5035 90.1121C29.7535 90.2536 30.0118 90.3743 30.2701 90.5034C30.5827 90.6782 30.9077 90.8489 31.241 91.0237C31.3327 91.0529 31.4077 91.082 31.4827 91.1236L31.4993 91.107C31.6368 91.1694 31.766 91.236 31.8993 91.3027C32.3993 91.5524 32.9202 91.7897 33.4618 92.0228C33.5619 92.0644 33.6702 92.1061 33.7785 92.1644C34.3785 92.4266 34.9785 92.6764 35.5994 92.9178C35.741 92.9594 35.891 93.0302 36.0369 93.0843C36.5994 93.2966 37.1786 93.5131 37.7536 93.7171L37.9619 93.792C38.5994 94.0085 39.2286 94.2166 39.8786 94.4123C40.0286 94.4539 40.1827 94.508 40.3411 94.5496C41.0036 94.7495 41.6453 94.9867 42.3161 95.1116C85.1207 102.867 97.5583 69.527 97.5583 69.527C87.1082 83.0561 68.5622 86.6237 50.9995 82.6523C50.3495 82.5025 49.6995 82.2943 49.0412 82.1029C48.1119 81.8401 47.1907 81.55 46.2786 81.2328L46.6745 81.3535L46.4161 81.2536C45.8495 81.0621 45.3036 80.8499 44.7495 80.6376C44.6138 80.5801 44.4762 80.5273 44.337 80.4794L44.2911 80.4669C43.6786 80.2213 43.0828 79.9715 42.4911 79.7092C42.3619 79.6676 42.2536 79.6093 42.1244 79.5594C41.4236 79.2542 40.729 78.935 40.0411 78.6019L40.6161 78.8559C40.466 78.7896 40.3187 78.7174 40.1744 78.6394C39.7827 78.4562 39.3911 78.2481 39.0077 78.0524C38.7158 77.9142 38.4281 77.7671 38.1452 77.6112L38.2286 77.6528C37.7577 77.403 37.2869 77.1325 36.8119 76.8785C36.6702 76.7786 36.5077 76.6954 36.3452 76.6038C35.6392 76.1938 34.9418 75.7691 34.2535 75.33L34.516 75.4882C34.3396 75.3793 34.1673 75.2641 33.9994 75.1426L34.0244 75.1593C33.5765 74.8845 33.1374 74.5957 32.7077 74.2934C32.566 74.2019 32.4368 74.1019 32.291 74.002C31.8421 73.6959 31.4003 73.3794 30.966 73.0529L31.066 73.1237C30.891 72.9822 30.7035 72.8489 30.516 72.7116C30.1493 72.4243 29.7785 72.1496 29.4118 71.8499L28.9201 71.4586C28.3961 71.042 27.8821 70.6132 27.3785 70.1723L27.3743 70.1681L25.9284 68.8568L25.5118 68.4655C25.1701 68.12 24.8201 67.7911 24.4701 67.4498L24.0659 67.0335C23.6345 66.6067 23.2136 66.1695 22.8034 65.7222L22.7784 65.6931L22.7076 65.6348C22.2664 65.1507 21.8316 64.6609 21.4034 64.1653C21.2909 64.0363 21.1867 63.8989 21.0701 63.7615L20.1242 62.6168C19.6978 62.0817 19.2811 61.5391 18.8742 60.9891L18.7075 60.756C8.96578 47.5349 5.44075 29.2894 13.2367 14.3199L6.35326 23.016C-2.501 35.6668 -1.40515 52.1182 5.36575 65.5516C5.51991 65.8804 5.69075 66.1885 5.85742 66.5007Z" fill="#1266A9"/>
<path d="M35.6785 48.2759L35.6327 48.2093L35.5952 48.1593L35.6785 48.2759Z" fill="black"/>
<path d="M40.3369 53.7375L40.7119 54.1122C41.1869 54.5701 41.6744 55.0155 42.1703 55.4609L42.2328 55.515C42.7328 55.9563 43.2953 56.4184 43.8745 56.8679L43.9619 56.9345C44.1036 57.0303 44.2245 57.1427 44.362 57.2384C44.9453 57.688 45.5328 58.1168 46.1453 58.5455L46.2078 58.583C46.4661 58.7703 46.7411 58.941 47.0328 59.1242C47.1495 59.1991 47.2828 59.299 47.4078 59.3739C47.8495 59.657 48.2828 59.9193 48.7287 60.1899C48.7995 60.219 48.862 60.2565 48.9287 60.2856C49.3037 60.5146 49.712 60.7352 50.1037 60.935C50.2412 61.0183 50.3745 61.0807 50.5162 61.1598C50.7953 61.2972 51.0704 61.4429 51.337 61.5844L51.4704 61.6427C52.0329 61.9174 52.6079 62.1755 53.1704 62.4294C53.312 62.4836 53.4329 62.5294 53.5537 62.5876C54.0162 62.7874 54.4871 62.9789 54.9496 63.1538C55.1579 63.2245 55.3537 63.3078 55.5496 63.3702C55.9746 63.5284 56.4204 63.6741 56.8412 63.8198L57.4246 64.0071C58.0329 64.1945 58.6496 64.4401 59.2954 64.54C92.3499 69.9766 100 44.6792 100 44.6792C93.1124 54.5326 79.7831 59.2282 65.5788 55.5608C64.8698 55.3822 64.1666 55.1809 63.4705 54.9572L63.708 55.0238C63.508 54.9697 63.333 54.9073 63.1413 54.849C62.708 54.6991 62.2621 54.5534 61.8413 54.3994L61.2413 54.1746C60.7746 53.9873 60.2996 53.8124 59.8454 53.6126C59.7038 53.5502 59.5746 53.5086 59.4663 53.4461C58.8829 53.1839 58.2954 52.9258 57.7246 52.651L56.8662 52.2056L56.3704 51.9558C55.9871 51.756 55.6329 51.5479 55.2662 51.3356C55.1727 51.2917 55.0822 51.2416 54.9954 51.1857L55.0079 51.1899C54.5662 50.9151 54.1079 50.6487 53.6829 50.3698C53.5412 50.2907 53.412 50.195 53.2787 50.1117L52.412 49.5497C51.812 49.1334 51.2245 48.688 50.6287 48.2551C50.4953 48.1344 50.3662 48.0345 50.237 47.9262C43.9911 43.0433 39.0661 36.3703 36.7285 28.8148C34.266 20.9596 34.8077 12.1511 39.0619 5.00355L33.8327 12.3634C27.4118 21.5257 27.7743 33.7727 32.7743 43.4637C33.6869 45.2537 34.6119 46.7648 35.6327 48.2051C36.5827 49.5622 37.6327 51.1524 38.8994 52.2431C39.3494 52.7551 39.8327 53.2421 40.3369 53.7375Z" fill="#1266A9"/>
<path d="M10.1491 73.3526L10.1325 73.3277L10.1033 73.2902L10.1491 73.3526ZM27.4743 70.2555L27.516 70.2846L27.5243 70.2971L27.4743 70.2555Z" fill="black"/>
<path d="M56.9412 4.39579C53.1537 9.91983 52.7912 16.7801 55.3996 22.8703C58.1704 29.3393 63.833 34.4179 70.433 36.824C70.7039 36.9281 70.9664 37.0155 71.2456 37.1154L71.6122 37.2278C71.9956 37.3485 72.383 37.4901 72.7789 37.5775C91.0332 41.0784 95.975 28.2611 97.3041 26.3754C92.9583 32.578 85.6707 34.0683 76.7289 31.9078C75.9514 31.7183 75.1861 31.482 74.4372 31.2001L74.5747 31.2459C73.6429 30.9237 72.7303 30.5484 71.8414 30.1219L71.9997 30.1927C70.2914 29.3601 68.8247 28.461 67.4622 27.4286C59.4704 21.3925 54.5287 9.89901 59.7454 0.536865L56.9412 4.39579Z" fill="#1266A9"/>
</svg>
