<svg width="119" height="125" viewBox="0 0 119 125" fill="none" xmlns="http://www.w3.org/2000/svg">
<path d="M52.2836 124.779C46.5417 123.635 41.5844 119.699 39.1743 114.372C38.1141 112.029 37.663 109.815 37.6708 106.992C37.6922 98.8777 42.7832 92.1024 50.6921 89.6599C52.1491 89.21 53.1105 89.0912 55.3444 89.0852C56.8932 89.0816 58.601 89.1632 59.1398 89.2678L60.1193 89.458L61.3247 87.1121C63.7863 82.3221 67.6225 78.5589 72.5818 76.0697C76.673 74.0161 79.244 73.4189 83.9931 73.4189C87.3193 73.4189 88.091 73.4993 90.2371 74.0691C99.5044 76.5301 106.728 83.8191 109.001 93.004C109.57 95.3038 109.854 100.461 109.523 102.483L109.297 103.865L110.595 104.156C113.848 104.885 116.655 107.163 118.09 110.237C119.51 113.277 119.25 117.21 117.44 120.083C116.516 121.55 114.705 123.18 113.193 123.905C112.419 124.277 111.593 124.682 111.36 124.805C110.834 125.081 53.6732 125.056 52.2836 124.779ZM111.709 121.389C113.317 120.587 114.908 118.796 115.569 117.041C116.94 113.4 115.11 109.169 111.461 107.542C110.539 107.131 109.85 107.036 107.928 107.054C106.615 107.066 105.541 106.983 105.541 106.869C105.541 106.755 105.785 105.687 106.083 104.496C106.845 101.447 106.838 96.5863 106.065 93.6175C104.362 87.0714 99.9477 81.6111 93.9094 78.5832C91.2559 77.2527 88.7321 76.6441 85.2836 76.503C80.1807 76.2943 76.6181 77.1002 72.6923 79.3513C68.1143 81.9763 64.1681 86.7332 62.6384 91.4703C62.3442 92.3813 61.9875 93.1253 61.8457 93.1236C61.7031 93.1218 60.8716 92.8842 59.9962 92.5954C57.5608 91.792 53.4074 91.8408 50.9768 92.7014C48.5302 93.5677 46.7689 94.6781 44.9351 96.5102C42.1863 99.2565 40.6594 102.999 40.6594 106.992C40.6594 112.92 43.918 118.118 49.2194 120.645C52.2663 122.097 51.212 122.053 82.156 122.005L110.56 121.961L111.709 121.389ZM29.7565 109.914C19.4806 108.518 11.5712 105.933 5.72062 102.056C3.30662 100.456 1.63992 98.6672 0.700193 96.6669L0.00012207 95.1764L0.12841 14.477L0.713026 13.3776C2.19086 10.5987 5.07222 8.22748 9.65967 6.01532C15.4602 3.21807 22.1493 1.46931 31.4705 0.313059C35.309 -0.163084 48.3442 -0.0788926 52.2836 0.4475C66.7902 2.38582 78.0475 7.13595 81.6361 12.8328C83.0501 15.0778 83.0136 14.264 83.0136 43.597V70.5279L82.2178 70.6515C81.7802 70.7194 80.7887 70.8428 80.0145 70.9256C72.0259 71.7805 63.7414 77.3152 59.4948 84.6345L58.6253 86.133L55.2097 86.2946C51.1739 86.4856 49.1175 87.0037 46.0492 88.6025C40.7809 91.3476 37.0156 96.1066 35.4802 101.961C35.0562 103.578 34.9307 104.75 34.9222 107.176L34.9044 110.305L33.5513 110.276C32.8072 110.259 31.0965 110.097 29.7498 109.914H29.7565ZM50.6463 72.7229C48.7187 71.0835 47.0517 69.6626 46.9417 69.5655C46.8313 69.4684 47.2324 69.1009 47.8316 68.7488C49.1605 67.9683 50.8715 66.1004 51.5981 64.6368C53.3737 61.0603 53.3342 56.6117 51.4948 53.0719C49.4724 49.1787 45.2401 47.1364 40.4451 47.7398C37.8196 48.0702 36.1748 48.8082 34.4402 50.4344C31.7023 53.0012 30.754 55.5197 30.898 59.8422C30.9799 62.2998 31.0672 62.7417 31.7686 64.2333C33.2779 67.4438 36.4337 69.8433 39.6486 70.2249C40.8581 70.3685 40.963 70.4479 43.3664 73.0381L45.8397 75.7036H54.1506L50.6463 72.7229ZM40.1603 64.3539C38.4764 63.4977 37.8369 62.0306 37.8369 59.023C37.8369 57.0661 37.9313 56.4948 38.4113 55.5161C39.1791 53.9536 40.7098 53.0143 42.2116 53.1839C43.6887 53.3507 44.4565 53.9495 45.2378 55.5437C45.8306 56.7538 45.9163 57.2123 45.9094 59.1392C45.9094 61.5162 45.4812 62.7348 44.2883 63.8467C43.0421 65.0085 41.7581 65.1663 40.1603 64.3539ZM23.2166 70.0499C27.6444 69.0263 30.0495 65.31 28.7744 61.4625C28.1324 59.5252 26.7754 58.3152 23.4612 56.7246C21.9306 55.99 20.5619 55.2389 20.4195 55.0555C19.8621 54.3379 19.8634 53.8629 20.4195 53.2099C21.2819 52.2051 23.2451 52.1571 25.9032 53.0757L27.9309 53.7765L27.7919 48.3522L26.4452 48.0315C24.4086 47.5463 20.0065 47.57 18.2745 48.0756C14.8018 49.0892 12.9719 51.364 12.9833 54.6528C13.0011 58.0374 14.5165 59.6418 19.8746 61.9203C22.1414 62.8843 22.401 64.6857 20.3748 65.391C19.437 65.7174 19.1701 65.7111 17.6862 65.3271C16.78 65.0926 15.4051 64.5715 14.6307 64.1691L13.2228 63.4374V69.3095L14.6307 69.7023C15.4051 69.9183 16.1488 70.1335 16.2835 70.1805C16.8432 70.3759 22.241 70.2742 23.211 70.0499H23.2166ZM70.5258 64.906H62.6903V47.9737H56.3239V70.0593H70.5258V64.906ZM51.6716 23.3015C58.0567 22.5598 63.2963 21.2184 66.6079 19.4777C68.7837 18.334 69.3054 17.922 70.1418 16.6869C72.7281 12.8673 66.9369 9.02691 55.7116 7.11766C45.1656 5.32391 31.2677 5.72965 22.3725 8.09101C4.019 12.9633 11.2542 21.9135 34.973 23.678C38.8657 23.9676 47.6399 23.7698 51.6716 23.3015Z" fill="#00BCF2"/>
</svg>
