<svg width="100" height="101" viewBox="0 0 100 101" fill="none" xmlns="http://www.w3.org/2000/svg">
<path fill-rule="evenodd" clip-rule="evenodd" d="M0 0.20459V100.205H100V0.20459H0ZM21.925 54.4546V50.3796L22 50.4046V46.3046L39.5 46.2296C49.125 46.2296 57.05 46.2546 57.05 46.3296C57.15 46.3796 57.15 48.2046 57.15 50.4546V54.4546H44.15V91.4546H34.925V54.4546H21.925ZM86.6 49.7796C84.85 47.9546 82.9 46.8046 80.35 46.2046L80.4 46.1546C78.675 45.7046 74.55 45.5546 72.8 45.9046C67.4 46.9046 63.625 50.4046 62.55 55.4046C62.2 56.8296 62.325 60.3796 62.7 61.8296C63.2 63.5046 64.275 65.5296 65.45 66.8296C67.5 68.9796 69.7 70.3796 74.875 72.5796C79.375 74.5796 80.975 75.4796 81.775 76.5796C82.35 77.4546 82.525 77.9796 82.525 79.1296C82.525 80.3796 82.125 81.2796 81.2 82.1296C79.05 84.0796 74.7 84.3046 71.45 82.6296C70.375 82.0296 68.525 80.2796 67.7 78.9796L67.05 78.1046L64.225 79.7546L60.475 81.9296L59.525 82.5296C59.425 82.7046 61.2 85.3796 62.125 86.3796C64.475 88.9546 68.3 90.9546 72.3 91.7046C74.175 92.0296 78.175 92.0796 79.925 91.7796C85.5 90.8546 89.4 88.0296 91 83.8546C92.425 80.0296 91.95 74.9296 89.825 71.6796C87.95 68.7796 84.85 66.7546 77.7 63.6796C73.825 61.9796 72.575 61.1546 71.9 59.7796C71.6 59.1296 71.45 58.6796 71.45 57.8796C71.45 55.2546 73.45 53.6796 76.45 53.8796C78.525 54.0296 79.85 54.8296 81.15 56.6796C81.55 57.3296 81.95 57.7546 82.05 57.6796C84.675 56.0546 89 53.1296 89 52.9796C88.9 52.5296 87.525 50.7796 86.6 49.7796Z" fill="#007ACC"/>
</svg>
