<svg width="134" height="133" viewBox="0 0 134 133" fill="none" xmlns="http://www.w3.org/2000/svg">
<path d="M128.331 14.0107L100.938 0.822441C99.3907 0.0765562 97.65 -0.169586 95.9569 0.118135C94.2637 0.405855 92.702 1.21319 91.4883 2.42821L1.81704 84.1799C0.729063 85.1671 0.077805 86.5461 0.00652964 88.0135C-0.0647457 89.4809 0.449799 90.9165 1.43697 92.0045C1.55574 92.1327 1.67451 92.2563 1.80279 92.3703L9.12376 99.0214C10.0804 99.8921 11.3118 100.4 12.604 100.457C13.8963 100.515 15.1678 100.118 16.1977 99.3349L124.207 17.4312C125.023 16.8122 125.995 16.4331 127.015 16.3367C128.034 16.2403 129.061 16.4305 129.978 16.8857C130.895 17.3409 131.668 18.0432 132.207 18.9134C132.747 19.7837 133.034 20.7873 133.034 21.8115V21.4932C133.034 19.9297 132.592 18.398 131.76 17.0743C130.928 15.7506 129.74 14.6886 128.331 14.0107Z" fill="#0065A9"/>
<path d="M128.331 118.243L100.938 131.436C99.3902 132.18 97.65 132.425 95.9574 132.137C94.2648 131.849 92.7032 131.043 91.4883 129.83L1.81704 48.0737C0.729063 47.0865 0.077805 45.7075 0.00652964 44.2402C-0.0647457 42.7728 0.449799 41.3372 1.43697 40.2492C1.55574 40.1209 1.67451 39.9974 1.80279 39.8834L9.12376 33.2322C10.0814 32.3579 11.3156 31.8476 12.611 31.7903C13.9064 31.733 15.1809 32.1323 16.2119 32.9187L124.207 114.822C125.023 115.441 125.995 115.821 127.015 115.917C128.034 116.013 129.061 115.823 129.978 115.368C130.895 114.913 131.668 114.21 132.207 113.34C132.747 112.47 133.034 111.466 133.034 110.442V110.784C133.029 112.344 132.585 113.87 131.753 115.189C130.922 116.508 129.736 117.566 128.331 118.243Z" fill="#007ACC"/>
<path d="M100.938 131.436C99.3902 132.18 97.65 132.425 95.9574 132.137C94.2648 131.849 92.7032 131.043 91.4883 129.83C92.1705 130.504 93.0361 130.961 93.9769 131.144C94.9178 131.328 95.8918 131.229 96.777 130.861C97.6622 130.494 98.4192 129.873 98.953 129.077C99.4869 128.281 99.774 127.345 99.7782 126.386V5.86785C99.779 4.90481 99.4939 3.9632 98.9591 3.1623C98.4243 2.3614 97.6639 1.73725 96.7741 1.36891C95.8842 1.00057 94.9051 0.904612 93.9607 1.0932C93.0163 1.28179 92.1492 1.74643 91.4691 2.42827C92.683 1.21369 94.2444 0.406308 95.9372 0.117788C97.63 -0.170732 99.3706 0.0738656 100.918 0.817754L128.307 13.987C129.72 14.6616 130.914 15.722 131.75 17.046C132.587 18.37 133.032 19.9034 133.034 21.4695L133.034 110.784C133.034 112.349 132.592 113.882 131.759 115.207C130.926 116.532 129.736 117.594 128.326 118.272L100.938 131.436Z" fill="#1F9CF0"/>
</svg>
