<svg width="134" height="134" viewBox="0 0 134 134" fill="none" xmlns="http://www.w3.org/2000/svg">
<path d="M128.293 42.9554C127.502 41.037 126.61 39.1578 125.616 37.3177C125.057 36.2757 124.464 35.2407 123.836 34.2263C121.138 29.8514 117.846 25.718 113.961 21.8331C101.244 9.11551 85.8832 2.75328 67.8936 2.75328C49.9041 2.75328 34.5506 9.11551 21.8331 21.8331C9.11551 34.5506 2.75328 49.9041 2.75328 67.8936C2.75328 85.8832 9.11551 101.244 21.8331 113.961C34.5506 126.679 49.9041 133.034 67.8936 133.034C85.8832 133.034 101.244 126.679 113.961 113.961C120.965 106.95 126.044 99.1389 129.19 90.5341C131.751 83.5163 133.034 75.9741 133.034 67.8936C133.034 61.697 132.282 55.8109 130.771 50.2354C130.598 49.6074 130.419 48.9795 130.232 48.3584C129.667 46.5229 129.018 44.7219 128.293 42.9554Z" fill="black" fill-opacity="0.098039"/>
<path d="M127.803 46.7023C127.665 46.2331 127.527 45.757 127.369 45.2532C127.148 44.5425 126.9 43.8041 126.637 43.0658C125.747 40.5471 124.684 38.0906 123.442 35.6616C122.918 34.6403 122.345 33.5984 121.745 32.5702C118.943 27.8089 115.424 23.296 111.208 19.0798C101.188 9.06031 89.5197 2.981 76.2018 0.855657C73.9592 0.496833 71.6751 0.248417 69.2944 0.117308C67.9558 0.0414031 66.555 0 65.1404 0C63.85 0 62.5734 0.0345023 61.2899 0.103507C44.9565 0.945363 30.8865 7.27309 19.0798 19.0798C6.35993 31.7996 0 47.1532 0 65.1404C0 83.1299 6.36223 98.4903 19.0798 111.208C26.9049 119.026 35.7168 124.443 45.4533 127.431C50.5252 128.983 55.7764 129.894 61.2899 130.184H61.3451C62.5182 130.246 63.6361 130.281 64.7263 130.281H65.1404C66.5619 130.281 67.9696 130.239 69.2944 130.17C69.6395 130.15 69.95 130.129 70.2536 130.108C73.0414 129.908 75.7602 129.549 78.3548 129.046C79.4519 128.832 80.5353 128.59 81.5842 128.335C92.7353 125.533 102.582 119.833 111.208 111.208C117.915 104.501 122.856 97.0619 126.023 88.878C128.569 82.3018 129.977 75.2426 130.239 67.6935C130.267 66.8586 130.281 66.0029 130.281 65.1404C130.281 65.0507 130.281 64.9541 130.281 64.8643C130.281 64.816 130.281 64.7746 130.281 64.7263C130.253 59.1163 129.598 53.7546 128.307 48.5793C128.155 47.9789 127.983 47.3372 127.803 46.7023Z" fill="#FD7900"/>
<path d="M130.281 64.8643C130.281 64.816 130.281 64.7746 130.281 64.7263C130.274 63.7327 130.246 62.7528 130.205 61.7522L102.403 33.9503L28.9819 95.7784L63.4636 130.26C63.9052 130.274 64.3192 130.281 64.7263 130.281C64.8644 130.281 65.0024 130.281 65.1404 130.281C66.5619 130.281 67.9696 130.239 69.2944 130.17C69.6395 130.15 69.95 130.129 70.2536 130.108C73.0414 129.908 75.7602 129.549 78.3548 129.046C79.4519 128.832 80.5353 128.59 81.5842 128.335C92.7353 125.533 102.582 119.833 111.208 111.208C117.915 104.501 122.856 97.0619 126.023 88.878C128.569 82.3018 129.977 75.2426 130.239 67.6935C130.267 66.8586 130.281 66.0029 130.281 65.1404C130.281 65.0507 130.281 64.9541 130.281 64.8643Z" fill="black" fill-opacity="0.2"/>
<path d="M86.8298 27.7263C76.9293 27.7263 68.4509 34.0715 65.333 42.7139C62.3247 34.5637 53.8464 28.4922 43.8911 28.4922C37.6555 28.4922 32.3315 30.5707 27.9191 34.7278C23.5067 38.9214 21.3005 43.9537 21.3005 49.8247C21.3005 54.7476 22.8321 59.0688 25.9499 62.8431C22.5586 67.0548 20.863 72.0324 20.863 77.7758C20.863 90.9582 31.1463 101.625 43.7818 101.625C53.3541 101.625 61.5589 95.4983 65.1143 86.6918C68.3961 96.0452 76.5463 102.554 86.1734 102.554C98.4805 102.554 108.49 91.8881 108.49 78.7057C108.49 73.9469 107.178 69.5162 104.88 65.578C108.108 61.4209 109.749 56.6074 109.749 51.0828C109.749 38.1739 99.4652 27.7263 86.8298 27.7263ZM45.4227 42.3857C50.0175 42.3857 53.7369 45.9957 53.7369 50.4264V58.3578L45.4227 58.4124C40.8828 58.4124 37.1631 54.8022 37.1631 50.4264C37.1631 45.9957 40.8828 42.3857 45.4227 42.3857Z" fill="white"/>
<path d="M78.9531 57.0996C78.3515 57.5373 75.343 58.6311 68.6151 58.6311C67.3023 58.5765 66.0989 58.5765 65.0049 58.5765C64.8408 58.5765 64.7315 58.5765 64.6767 58.5765C59.2615 58.467 53.9011 58.3577 48.4312 60.4909C45.0946 61.8037 41.7579 64.4293 39.8435 67.9847C37.8744 71.5401 37.1632 75.6426 37.1632 80.4013C37.1085 84.2302 40.1717 87.3481 44.0006 87.4027C47.8842 87.4574 51.0021 84.3943 51.0567 80.5653V80.4013C51.0567 77.0646 51.6038 75.369 51.9866 74.6032C52.4243 73.8922 52.5336 73.8374 53.5183 73.4546C55.4874 72.6341 61.2308 72.5247 68.6151 72.5247C73.1004 72.5247 76.6011 72.2511 79.1172 71.7588C79.5001 71.7042 79.9378 71.5947 80.3206 71.4854V79.4167C80.266 83.2456 83.3291 86.4182 87.158 86.4728C90.9869 86.5276 94.1594 83.4644 94.2141 79.6356V71.2666C94.2688 69.3521 93.6124 67.7112 92.2449 66.3438C91.698 65.7421 91.0962 65.3044 90.4399 64.9762C93.3389 60.9286 94.2141 55.6228 94.2141 50.0435C94.2141 46.2146 91.151 43.0967 87.3221 43.042H87.1032C83.2743 43.0967 80.266 46.2146 80.3206 50.0435C80.3206 55.4587 79.5001 56.6074 78.9531 57.0996Z" fill="#FB7922"/>
<path d="M45.4227 42.3857C40.8828 42.3857 37.1631 45.9957 37.1631 50.4264C37.1631 54.8022 40.8828 58.4124 45.4227 58.4124L53.7369 58.3578V50.4264C53.7369 45.9957 50.0175 42.3857 45.4227 42.3857Z" fill="#FB7922"/>
</svg>
