<svg width="100" height="100" viewBox="0 0 100 100" fill="none" xmlns="http://www.w3.org/2000/svg">
<path d="M37.5 1.73326C38.1101 2.47459 38.4838 3.38184 38.573 4.33778C38.6621 5.29372 38.4625 6.25443 38 7.09576C34.3866 13.73 32.4996 21.1663 32.5125 28.7208C32.5125 53.852 53 74.202 78.25 74.202C81.5438 74.202 84.75 73.8583 87.8313 73.202C88.7758 72.9975 89.7597 73.0757 90.66 73.4269C91.5603 73.7782 92.3373 74.3869 92.8938 75.177C93.4812 75.9986 93.7807 76.9912 93.7456 78.0006C93.7106 79.0099 93.343 79.9794 92.7 80.7583C87.798 86.7797 81.6141 91.6314 74.599 94.9594C67.5839 98.2875 59.9145 100.008 52.15 99.9958C23.3375 99.9958 0 76.7833 0 48.1833C0 26.6583 13.2125 8.19576 32.025 0.370762C32.9621 -0.0252888 34.0024 -0.106576 34.9897 0.13911C35.9769 0.384796 36.8578 0.944191 37.5 1.73326Z" fill="white"/>
<path d="M67.4625 19.6708C67.5522 19.4001 67.7248 19.1646 67.9559 18.9976C68.1871 18.8307 68.4649 18.7409 68.75 18.7409C69.0352 18.7409 69.313 18.8307 69.5441 18.9976C69.7753 19.1646 69.9479 19.4001 70.0375 19.6708L72.4563 26.9333C73.5375 30.1708 76.075 32.7083 79.3125 33.7895L86.575 36.2083C86.8457 36.2979 87.0812 36.4705 87.2482 36.7017C87.4151 36.9328 87.505 37.2107 87.505 37.4958C87.505 37.7809 87.4151 38.0587 87.2482 38.2899C87.0812 38.521 86.8457 38.6936 86.575 38.7833L79.3125 41.202C77.7158 41.734 76.2649 42.6305 75.0749 43.8206C73.8848 45.0107 72.9883 46.4616 72.4563 48.0583L70.0375 55.3208C69.9479 55.5914 69.7753 55.827 69.5441 55.9939C69.313 56.1608 69.0352 56.2507 68.75 56.2507C68.4649 56.2507 68.1871 56.1608 67.9559 55.9939C67.7248 55.827 67.5522 55.5914 67.4625 55.3208L65.0438 48.0583C64.5118 46.4616 63.6153 45.0107 62.4252 43.8206C61.2351 42.6305 59.7843 41.734 58.1875 41.202L50.925 38.7833C50.6544 38.6936 50.4188 38.521 50.2519 38.2899C50.085 38.0587 49.9951 37.7809 49.9951 37.4958C49.9951 37.2107 50.085 36.9328 50.2519 36.7017C50.4188 36.4705 50.6544 36.2979 50.925 36.2083L58.1875 33.7895C59.7843 33.2575 61.2351 32.361 62.4252 31.1709C63.6153 29.9809 64.5118 28.53 65.0438 26.9333L67.4625 19.6708ZM86.6438 0.614518C86.7055 0.436558 86.8211 0.282243 86.9746 0.173028C87.128 0.0638139 87.3117 0.00512695 87.5 0.00512695C87.6884 0.00512695 87.8721 0.0638139 88.0255 0.173028C88.179 0.282243 88.2946 0.436558 88.3563 0.614518L89.9688 5.45202C90.6875 7.61452 92.3813 9.30827 94.5438 10.027L99.3813 11.6395C99.5592 11.7012 99.7136 11.8168 99.8228 11.9703C99.932 12.1237 99.9907 12.3074 99.9907 12.4958C99.9907 12.6841 99.932 12.8678 99.8228 13.0212C99.7136 13.1747 99.5592 13.2903 99.3813 13.352L94.5438 14.9645C93.4781 15.319 92.5097 15.9171 91.7156 16.7113C90.9214 17.5054 90.3233 18.4738 89.9688 19.5395L88.3563 24.377C88.2946 24.555 88.179 24.7093 88.0255 24.8185C87.8721 24.9277 87.6884 24.9864 87.5 24.9864C87.3117 24.9864 87.128 24.9277 86.9746 24.8185C86.8211 24.7093 86.7055 24.555 86.6438 24.377L85.0313 19.5395C84.6768 18.4738 84.0787 17.5054 83.2845 16.7113C82.4904 15.9171 81.522 15.319 80.4563 14.9645L75.6188 13.352C75.4408 13.2903 75.2865 13.1747 75.1773 13.0212C75.0681 12.8678 75.0094 12.6841 75.0094 12.4958C75.0094 12.3074 75.0681 12.1237 75.1773 11.9703C75.2865 11.8168 75.4408 11.7012 75.6188 11.6395L80.4563 10.027C82.6188 9.30827 84.3125 7.61452 85.0313 5.45202L86.6438 0.620768V0.614518Z" fill="white"/>
</svg>
