<svg width="348" height="349" viewBox="0 0 348 349" fill="none" xmlns="http://www.w3.org/2000/svg">
<path d="M22.8373 87.7787L87.8176 22.7982C76.2813 29.3904 65.5689 37.2775 55.8768 46.2241L46.2632 55.8378C37.3166 65.5692 29.4295 76.2423 22.8373 87.7787Z" fill="white"/>
<path d="M3.45306 139.418L139.457 3.41431C135.69 4.15985 132.001 5.06229 128.313 6.04328L6.08209 128.274C5.06187 131.962 4.19861 135.69 3.45306 139.418Z" fill="white"/>
<path d="M0 173.987C0 174.341 0 174.733 0 175.086L175.086 0C174.733 0 174.34 0 173.987 0C171.476 0 168.925 0.0785122 166.453 0.156991L0.156931 166.453C0.0784524 168.965 0 171.476 0 173.987Z" fill="white"/>
<path d="M2.7075 204.673L204.673 2.70805C202.24 2.27641 199.768 1.88411 197.335 1.57019L1.56958 197.335C1.88349 199.768 2.27586 202.24 2.7075 204.673Z" fill="white"/>
<path d="M9.29968 230.296L230.296 9.30004C228.177 8.5545 226.019 7.88735 223.86 7.25952L7.25922 223.861C7.88705 226.019 8.59337 228.177 9.29968 230.296Z" fill="white"/>
<path d="M18.9133 252.937L252.976 18.8745C251.093 17.8935 249.17 16.991 247.247 16.0885L16.1273 247.208C17.0298 249.17 17.9324 251.054 18.9133 252.937Z" fill="white"/>
<path d="M30.999 273.106L273.145 30.9599C271.458 29.7828 269.771 28.6448 268.044 27.5461L27.5852 268.005C28.6839 269.771 29.8218 271.458 30.999 273.106Z" fill="white"/>
<path d="M45.2822 291.078L291.078 45.2823C289.586 43.9482 288.095 42.614 286.565 41.3191L41.3191 286.565C42.614 288.096 43.9089 289.586 45.2822 291.078Z" fill="white"/>
<path d="M61.6842 306.891L306.891 61.6845C305.596 60.1541 304.262 58.6238 302.928 57.1327L57.1324 302.928C58.6628 304.301 60.1538 305.596 61.6842 306.891Z" fill="white"/>
<path d="M80.2444 320.625L320.625 80.245C319.526 78.5185 318.388 76.8312 317.211 75.1439L75.1433 317.212C76.8306 318.349 78.5179 319.487 80.2444 320.625Z" fill="white"/>
<path d="M101.081 332.004L332.004 101.081C331.102 99.1579 330.199 97.2352 329.218 95.3517L95.3124 329.258C97.2351 330.199 99.1578 331.141 101.081 332.004Z" fill="white"/>
<path d="M124.506 340.833L340.872 124.467C340.244 122.309 339.538 120.151 338.832 118.032L118.071 338.793C120.151 339.538 122.309 340.205 124.506 340.833Z" fill="white"/>
<path d="M151.071 346.484L346.483 151.072C346.17 148.6 345.777 146.128 345.345 143.695L143.694 345.346C146.167 345.817 148.599 346.17 151.071 346.484Z" fill="white"/>
<path d="M173.987 348.014C176.695 348.014 179.363 347.935 181.992 347.818L347.778 182.031C347.896 179.363 347.975 176.695 347.975 174.027C347.975 173.791 347.975 173.595 347.975 173.359L173.32 348.014C173.556 348.014 173.791 348.014 173.987 348.014Z" fill="white"/>
<path d="M220.329 341.775L341.775 220.329C342.795 216.641 343.697 212.913 344.482 209.146L209.146 344.483C212.913 343.698 216.64 342.756 220.329 341.775Z" fill="white"/>
<path d="M324.549 261.295L261.256 324.588C287.468 309.324 309.324 287.468 324.549 261.295Z" fill="white"/>
</svg>
