<svg width="341" height="341" viewBox="0 0 341 341" fill="none" xmlns="http://www.w3.org/2000/svg">
<path d="M177.242 16.25C173.521 19.9708 167.503 19.9708 163.783 16.25C160.062 12.5293 160.062 6.51134 163.783 2.79057C167.503 -0.930191 173.521 -0.930191 177.242 2.79057C180.962 6.51134 180.962 12.5293 177.242 16.25ZM217.49 43.0395C213.769 39.3188 207.751 39.3188 204.031 43.0395C200.31 46.7603 200.31 52.7782 204.031 56.499C207.751 60.2198 213.769 60.2198 217.49 56.499C221.21 52.7782 221.21 46.7603 217.49 43.0395ZM257.738 83.2885C254.017 79.5677 247.999 79.5677 244.279 83.2885C240.558 87.0093 240.558 93.0272 244.279 96.748C247.999 100.469 254.017 100.469 257.738 96.748C261.458 93.0272 261.458 87.0093 257.738 83.2885ZM297.986 123.537C294.265 119.817 288.247 119.817 284.527 123.537C280.806 127.258 280.806 133.276 284.527 136.997C288.247 140.718 294.265 140.718 297.986 136.997C301.706 133.276 301.706 127.258 297.986 123.537ZM338.234 163.786C334.513 160.066 328.495 160.066 324.775 163.786C321.054 167.507 321.054 173.525 324.775 177.246C328.495 180.967 334.513 180.967 338.234 177.246C341.922 173.525 341.922 167.507 338.234 163.786ZM136.994 43.0395C133.273 39.3188 127.255 39.3188 123.535 43.0395C119.814 46.7603 119.814 52.7782 123.535 56.499C127.255 60.2198 133.273 60.2198 136.994 56.499C140.714 52.7782 140.714 46.7603 136.994 43.0395ZM177.242 83.2885C173.521 79.5677 167.503 79.5677 163.783 83.2885C160.062 87.0093 160.062 93.0272 163.783 96.748C167.503 100.469 173.521 100.469 177.242 96.748C180.962 93.0272 180.962 87.0093 177.242 83.2885ZM217.49 123.537C213.769 119.817 207.751 119.817 204.031 123.537C200.31 127.258 200.31 133.276 204.031 136.997C207.751 140.718 213.769 140.718 217.49 136.997C221.21 133.276 221.21 127.258 217.49 123.537ZM257.738 163.786C254.017 160.066 247.999 160.066 244.279 163.786C240.558 167.507 240.558 173.525 244.279 177.246C247.999 180.967 254.017 180.967 257.738 177.246C261.458 173.525 261.458 167.507 257.738 163.786ZM297.986 204.035C294.265 200.315 288.247 200.315 284.527 204.035C280.806 207.756 280.806 213.774 284.527 217.495C288.247 221.216 294.265 221.216 297.986 217.495C301.706 213.774 301.706 207.756 297.986 204.035ZM96.7457 83.2885C93.025 79.5677 87.0072 79.5677 83.2865 83.2885C79.5658 87.0093 79.5658 93.0272 83.2865 96.748C87.0072 100.469 93.025 100.469 96.7457 96.748C100.466 93.0272 100.466 87.0093 96.7457 83.2885ZM136.994 123.537C133.273 119.817 127.255 119.817 123.535 123.537C119.814 127.258 119.814 133.276 123.535 136.997C127.255 140.718 133.273 140.718 136.994 136.997C140.714 133.276 140.714 127.258 136.994 123.537ZM177.242 163.786C173.521 160.066 167.503 160.066 163.783 163.786C160.062 167.507 160.062 173.525 163.783 177.246C167.503 180.967 173.521 180.967 177.242 177.246C180.962 173.525 180.962 167.507 177.242 163.786ZM217.49 204.035C213.769 200.315 207.751 200.315 204.031 204.035C200.31 207.756 200.31 213.774 204.031 217.495C207.751 221.216 213.769 221.216 217.49 217.495C221.21 213.774 221.21 207.756 217.49 204.035ZM257.738 244.284C254.017 240.564 247.999 240.564 244.279 244.284C240.558 248.005 240.558 254.023 244.279 257.744C247.999 261.465 254.017 261.465 257.738 257.744C261.458 254.023 261.458 247.973 257.738 244.284ZM56.4977 123.537C52.777 119.817 46.7592 119.817 43.0385 123.537C39.3179 127.258 39.3179 133.276 43.0385 136.997C46.7592 140.718 52.777 140.718 56.4977 136.997C60.2183 133.276 60.2183 127.258 56.4977 123.537ZM96.7457 163.786C93.025 160.066 87.0072 160.066 83.2865 163.786C79.5658 167.507 79.5658 173.525 83.2865 177.246C87.0072 180.967 93.025 180.967 96.7457 177.246C100.466 173.525 100.466 167.507 96.7457 163.786ZM136.994 204.035C133.273 200.315 127.255 200.315 123.535 204.035C119.814 207.756 119.814 213.774 123.535 217.495C127.255 221.216 133.273 221.216 136.994 217.495C140.714 213.774 140.714 207.756 136.994 204.035ZM177.242 244.284C173.521 240.564 167.503 240.564 163.783 244.284C160.062 248.005 160.062 254.023 163.783 257.744C167.503 261.465 173.521 261.465 177.242 257.744C180.962 254.023 180.962 247.973 177.242 244.284ZM217.49 284.533C213.769 280.813 207.751 280.813 204.031 284.533C200.31 288.254 200.31 294.272 204.031 297.993C207.751 301.714 213.769 301.714 217.49 297.993C221.21 294.272 221.21 288.222 217.49 284.533ZM16.2496 163.786C12.529 160.066 6.51118 160.066 2.79051 163.786C-0.930169 167.507 -0.930169 173.525 2.79051 177.246C6.51118 180.967 12.529 180.967 16.2496 177.246C19.9703 173.525 19.9703 167.507 16.2496 163.786ZM56.4977 204.035C52.777 200.315 46.7592 200.315 43.0385 204.035C39.3179 207.756 39.3179 213.774 43.0385 217.495C46.7592 221.216 52.777 221.216 56.4977 217.495C60.2183 213.774 60.2183 207.756 56.4977 204.035ZM96.7457 244.284C93.025 240.564 87.0072 240.564 83.2865 244.284C79.5658 248.005 79.5658 254.023 83.2865 257.744C87.0072 261.465 93.025 261.465 96.7457 257.744C100.466 254.023 100.466 247.973 96.7457 244.284ZM136.994 284.533C133.273 280.813 127.255 280.813 123.535 284.533C119.814 288.254 119.814 294.272 123.535 297.993C127.255 301.714 133.273 301.714 136.994 297.993C140.714 294.272 140.714 288.222 136.994 284.533ZM177.242 324.75C173.521 321.029 167.503 321.029 163.783 324.75C160.062 328.471 160.062 334.489 163.783 338.209C167.503 341.93 173.521 341.93 177.242 338.209C180.962 334.521 180.962 328.471 177.242 324.75Z" fill="white"/>
</svg>
