<svg width="499" height="151" viewBox="0 0 499 151" fill="none" xmlns="http://www.w3.org/2000/svg">
<path d="M261.339 75.3219L203.627 17.5246L220.611 0.540327L295.392 75.3219L220.611 150.018L203.627 133.034L261.339 75.3219Z" fill="white"/>
<path d="M160.531 75.3219L102.819 17.5246L119.803 0.540327L194.584 75.3219L119.803 150.018L102.819 133.034L160.531 75.3219Z" fill="white"/>
<path d="M58.5444 75.3219L0.747366 17.5246L17.8162 0.540327L92.5129 75.3219L17.8162 150.018L0.747371 133.034L58.5444 75.3219Z" fill="white"/>
<path d="M464.136 75.3219L406.423 17.5246L423.407 0.540327L498.189 75.3219L423.407 150.018L406.423 133.034L464.136 75.3219Z" fill="white"/>
<path d="M363.327 75.3219L305.615 17.5246L322.599 0.540327L397.38 75.3219L322.599 150.018L305.615 133.034L363.327 75.3219Z" fill="white"/>
</svg>
