<svg width="311" height="285" viewBox="0 0 311 285" fill="none" xmlns="http://www.w3.org/2000/svg">
<path opacity="0.7" d="M3.79518 6.76802C5.50105 6.88566 6.78133 5.61195 6.65478 3.92309C6.52823 2.23423 5.04278 0.769744 3.33691 0.6521C1.63104 0.534456 0.350759 1.8082 0.477308 3.49706C0.603857 5.18592 2.08931 6.65037 3.79518 6.76802Z" fill="white"/>
<path opacity="0.7" d="M32.3972 8.51777C34.1031 8.63542 35.3835 7.36171 35.2569 5.67285C35.1304 3.98399 33.6448 2.5195 31.939 2.40186C30.2331 2.28421 28.9528 3.55796 29.0794 5.24682C29.2059 6.93568 30.6914 8.40013 32.3972 8.51777Z" fill="white"/>
<path opacity="0.7" d="M61.0219 10.2689C62.7277 10.3865 64.008 9.1128 63.8815 7.42394C63.7549 5.73508 62.2695 4.2706 60.5636 4.15295C58.8577 4.03531 57.5774 5.30905 57.704 6.99792C57.8305 8.68678 59.316 10.1512 61.0219 10.2689Z" fill="white"/>
<path opacity="0.7" d="M89.6238 12.0185C91.3297 12.1361 92.6099 10.8624 92.4834 9.17358C92.3568 7.48471 90.8714 6.02023 89.1655 5.90259C87.4596 5.78494 86.1794 7.05869 86.3059 8.74755C86.4325 10.4364 87.9179 11.9009 89.6238 12.0185Z" fill="white"/>
<path opacity="0.7" d="M118.249 13.7696C119.954 13.8872 121.235 12.6135 121.108 10.9247C120.982 9.23581 119.496 7.77133 117.79 7.65369C116.084 7.53604 114.804 8.80979 114.931 10.4986C115.057 12.1875 116.543 13.652 118.249 13.7696Z" fill="white"/>
<path opacity="0.7" d="M149.71 12.6744C149.836 14.3563 148.549 15.6365 146.85 15.5194C145.152 15.4022 143.66 13.9521 143.533 12.2484C143.407 10.5665 144.693 9.28629 146.392 9.40344C148.091 9.5206 149.582 10.9707 149.71 12.6744Z" fill="white"/>
<path opacity="0.7" d="M175.452 17.269C177.158 17.3866 178.439 16.1129 178.312 14.4241C178.185 12.7352 176.7 11.2707 174.994 11.1531C173.288 11.0354 172.008 12.3092 172.135 13.998C172.261 15.6869 173.747 17.1513 175.452 17.269Z" fill="white"/>
<path opacity="0.7" d="M206.914 16.1738C207.04 17.8557 205.753 19.1359 204.054 19.0187C202.356 18.9016 200.864 17.4515 200.736 15.7478C200.61 14.0659 201.897 12.7857 203.596 12.9028C205.317 13.0215 206.786 14.4701 206.914 16.1738Z" fill="white"/>
<path opacity="0.7" d="M232.679 20.7698C234.385 20.8875 235.665 19.6138 235.539 17.9249C235.412 16.2361 233.927 14.7716 232.221 14.6539C230.515 14.5363 229.235 15.81 229.361 17.4989C229.488 19.1878 230.973 20.6522 232.679 20.7698Z" fill="white"/>
<path opacity="0.7" d="M264.141 19.6746C264.267 21.3564 262.98 22.6366 261.281 22.5195C259.582 22.4023 258.091 20.9522 257.963 19.2485C257.837 17.5667 259.124 16.2864 260.823 16.4036C262.544 16.5222 264.013 17.9708 264.141 19.6746Z" fill="white"/>
<path opacity="0.7" d="M289.906 24.2706C291.612 24.3882 292.892 23.1145 292.765 21.4257C292.639 19.7368 291.153 18.2723 289.447 18.1547C287.742 18.037 286.461 19.3108 286.588 20.9996C286.714 22.6885 288.2 24.1529 289.906 24.2706Z" fill="white"/>
<path opacity="0.7" d="M5.34987 30.3867C7.05574 30.5043 8.33602 29.2306 8.20947 27.5417C8.08292 25.8529 6.59746 24.3884 4.89159 24.2708C3.18572 24.1531 1.90545 25.4269 2.032 27.1157C2.15854 28.8046 3.644 30.269 5.34987 30.3867Z" fill="white"/>
<path opacity="0.7" d="M33.9518 32.1364C35.6577 32.2541 36.938 30.9804 36.8115 29.2915C36.6849 27.6026 35.1994 26.1382 33.4935 26.0205C31.7877 25.9029 30.5074 27.1766 30.6339 28.8655C30.7605 30.5543 32.2459 32.0188 33.9518 32.1364Z" fill="white"/>
<path opacity="0.7" d="M62.5766 33.8875C64.2824 34.0052 65.5627 32.7315 65.4362 31.0426C65.3096 29.3537 63.8241 27.8893 62.1183 27.7716C60.4124 27.654 59.1321 28.9277 59.2587 30.6166C59.3852 32.3054 60.8707 33.7699 62.5766 33.8875Z" fill="white"/>
<path opacity="0.7" d="M91.1785 35.6372C92.8844 35.7548 94.1646 34.4811 94.0381 32.7922C93.9115 31.1034 92.4261 29.6389 90.7202 29.5212C89.0143 29.4036 87.7341 30.6773 87.8606 32.3662C87.9872 34.0551 89.4726 35.5195 91.1785 35.6372Z" fill="white"/>
<path opacity="0.7" d="M119.803 37.3883C121.509 37.5059 122.789 36.2322 122.663 34.5433C122.536 32.8545 121.051 31.39 119.345 31.2723C117.639 31.1547 116.359 32.4284 116.485 34.1173C116.612 35.8062 118.097 37.2706 119.803 37.3883Z" fill="white"/>
<path opacity="0.7" d="M151.265 36.2931C151.391 37.975 150.104 39.2552 148.405 39.138C146.706 39.0209 145.215 37.5708 145.087 35.8671C144.961 34.1852 146.248 32.9049 147.947 33.0221C149.647 33.1611 151.139 34.6112 151.265 36.2931Z" fill="white"/>
<path opacity="0.7" d="M177.007 40.8876C178.713 41.0053 179.993 39.7316 179.867 38.0427C179.74 36.3539 178.255 34.8894 176.549 34.7717C174.843 34.6541 173.563 35.9278 173.689 37.6167C173.816 39.3056 175.301 40.77 177.007 40.8876Z" fill="white"/>
<path opacity="0.7" d="M208.469 39.7925C208.595 41.4743 207.308 42.7546 205.609 42.6374C203.91 42.5202 202.419 41.0702 202.291 39.3664C202.165 37.6846 203.452 36.4043 205.151 36.5215C206.873 36.662 208.343 38.1106 208.469 39.7925Z" fill="white"/>
<path opacity="0.7" d="M234.234 44.3885C235.94 44.5061 237.22 43.2324 237.093 41.5436C236.967 39.8547 235.481 38.3902 233.775 38.2726C232.07 38.1549 230.789 39.4287 230.916 41.1175C231.042 42.8064 232.528 44.2709 234.234 44.3885Z" fill="white"/>
<path opacity="0.7" d="M265.695 43.2932C265.821 44.9751 264.535 46.2553 262.836 46.1381C261.137 46.021 259.645 44.5709 259.518 42.8672C259.392 41.1853 260.679 39.9051 262.377 40.0222C264.1 40.1627 265.569 41.6113 265.695 43.2932Z" fill="white"/>
<path opacity="0.7" d="M291.46 47.8892C293.166 48.0069 294.446 46.7332 294.32 45.0443C294.193 43.3554 292.708 41.891 291.002 41.7733C289.296 41.6557 288.016 42.9294 288.142 44.6183C288.269 46.3071 289.754 47.7716 291.46 47.8892Z" fill="white"/>
<path opacity="0.7" d="M9.7655 51.1816C9.89153 52.8635 8.60471 54.1437 6.9059 54.0266C5.20709 53.9094 3.71405 52.4375 3.58803 50.7556C3.462 49.0737 4.72675 47.792 6.44762 47.9106C8.14807 48.0496 9.63947 49.4998 9.7655 51.1816Z" fill="white"/>
<path opacity="0.7" d="M38.3675 52.9314C38.4935 54.6133 37.2287 55.895 35.5078 55.7763C33.809 55.6592 32.316 54.1872 32.19 52.5054C32.0639 50.8235 33.3507 49.5432 35.0496 49.6604C36.7721 49.8009 38.2415 51.2495 38.3675 52.9314Z" fill="white"/>
<path opacity="0.7" d="M66.9694 54.681C67.0955 56.3629 65.8086 57.6431 64.1098 57.526C62.4109 57.4088 60.9179 55.9369 60.7919 54.255C60.6659 52.5731 61.9306 51.2914 63.6515 51.41C65.374 51.5506 66.8434 52.9992 66.9694 54.681Z" fill="white"/>
<path opacity="0.7" d="M95.5941 56.4321C95.7201 58.114 94.4554 59.3957 92.7345 59.277C91.0357 59.1599 89.5427 57.688 89.4166 56.0061C89.2906 54.3242 90.5774 53.044 92.2762 53.1611C93.9767 53.3001 95.4681 54.7502 95.5941 56.4321Z" fill="white"/>
<path opacity="0.7" d="M124.196 58.1819C124.322 59.8638 123.035 61.144 121.336 61.0268C119.638 60.9096 118.145 59.4377 118.019 57.7559C117.893 56.074 119.157 54.7922 120.878 54.9109C122.601 55.0514 124.07 56.5 124.196 58.1819Z" fill="white"/>
<path opacity="0.7" d="M152.821 59.933C152.947 61.6149 151.66 62.8951 149.961 62.7779C148.262 62.6607 146.769 61.1888 146.643 59.5069C146.517 57.8251 147.804 56.5448 149.503 56.662C151.203 56.801 152.695 58.2511 152.821 59.933Z" fill="white"/>
<path opacity="0.7" d="M181.423 61.6826C181.549 63.3645 180.262 64.6447 178.563 64.5275C176.864 64.4104 175.371 62.9385 175.245 61.2566C175.119 59.5747 176.384 58.2929 178.105 58.4116C179.805 58.5506 181.297 60.0007 181.423 61.6826Z" fill="white"/>
<path opacity="0.7" d="M210.025 63.4324C210.151 65.1142 208.864 66.3945 207.165 66.2773C205.466 66.1601 203.973 64.6882 203.847 63.0063C203.721 61.3245 205.008 60.0442 206.707 60.1614C208.429 60.3019 209.899 61.7505 210.025 63.4324Z" fill="white"/>
<path opacity="0.7" d="M238.649 65.1835C238.775 66.8653 237.489 68.1455 235.79 68.0284C234.091 67.9112 232.598 66.4393 232.472 64.7574C232.346 63.0756 233.611 61.7938 235.331 61.9125C237.032 62.0515 238.523 63.5016 238.649 65.1835Z" fill="white"/>
<path opacity="0.7" d="M267.251 66.9331C267.377 68.615 266.09 69.8952 264.392 69.778C262.693 69.6609 261.2 68.1889 261.074 66.5071C260.948 64.8252 262.235 63.545 263.933 63.6621C265.656 63.8026 267.125 65.2512 267.251 66.9331Z" fill="white"/>
<path opacity="0.7" d="M295.876 68.6842C296.002 70.3661 294.737 71.6478 293.016 71.5291C291.295 71.4104 289.825 69.94 289.698 68.2582C289.572 66.5763 290.837 65.2945 292.558 65.4132C294.279 65.5319 295.75 67.0023 295.876 68.6842Z" fill="white"/>
<path opacity="0.7" d="M11.3217 74.8214C11.4477 76.5033 10.1609 77.7835 8.46205 77.6663C6.76324 77.5492 5.27184 76.0991 5.14418 74.3954C5.01815 72.7135 6.2829 71.4317 8.00378 71.5504C9.70259 71.6676 11.1956 73.1395 11.3217 74.8214Z" fill="white"/>
<path opacity="0.7" d="M39.9236 76.5712C40.0497 78.253 38.7849 79.5348 37.064 79.4161C35.3652 79.2989 33.8738 77.8489 33.7461 76.1451C33.6201 74.4633 34.9069 73.183 36.6057 73.3002C38.3266 73.4189 39.7976 74.8893 39.9236 76.5712Z" fill="white"/>
<path opacity="0.7" d="M68.5256 78.3208C68.6516 80.0027 67.3647 81.2829 65.6659 81.1657C63.9671 81.0486 62.4757 79.5985 62.348 77.8948C62.222 76.2129 63.4868 74.9311 65.2076 75.0498C66.9285 75.1685 68.3996 76.6389 68.5256 78.3208Z" fill="white"/>
<path opacity="0.7" d="M97.1503 80.0719C97.2763 81.7538 96.0115 83.0355 94.2907 82.9168C92.5919 82.7997 91.1005 81.3496 90.9728 79.6459C90.8468 77.964 92.1336 76.6837 93.8324 76.8009C95.5312 76.9181 97.0242 78.39 97.1503 80.0719Z" fill="white"/>
<path opacity="0.7" d="M125.752 81.8216C125.878 83.5035 124.591 84.7837 122.893 84.6666C121.194 84.5494 119.702 83.0993 119.575 81.3956C119.449 79.7137 120.713 78.432 122.434 78.5507C124.155 78.6693 125.626 80.1398 125.752 81.8216Z" fill="white"/>
<path opacity="0.7" d="M154.377 83.5727C154.503 85.2546 153.216 86.5348 151.517 86.4177C149.819 86.3005 148.327 84.8504 148.199 83.1467C148.073 81.4648 149.36 80.1846 151.059 80.3018C152.758 80.4189 154.251 81.8909 154.377 83.5727Z" fill="white"/>
<path opacity="0.7" d="M182.979 85.3224C183.105 87.0043 181.818 88.2845 180.119 88.1673C178.42 88.0502 176.929 86.6001 176.801 84.8964C176.675 83.2145 177.94 81.9327 179.661 82.0514C181.36 82.1685 182.853 83.6405 182.979 85.3224Z" fill="white"/>
<path opacity="0.7" d="M211.581 87.0721C211.707 88.754 210.42 90.0342 208.721 89.9171C207.022 89.7999 205.531 88.3498 205.403 86.6461C205.277 84.9642 206.564 83.684 208.263 83.8011C209.984 83.9198 211.455 85.3903 211.581 87.0721Z" fill="white"/>
<path opacity="0.7" d="M240.206 88.8232C240.332 90.5051 239.045 91.7853 237.346 91.6682C235.647 91.551 234.156 90.1009 234.028 88.3972C233.902 86.7153 235.167 85.4336 236.888 85.5522C238.587 85.6694 240.08 87.1414 240.206 88.8232Z" fill="white"/>
<path opacity="0.7" d="M268.807 90.5729C268.934 92.2547 267.647 93.535 265.948 93.4178C264.249 93.3006 262.758 91.8506 262.63 90.1468C262.504 88.465 263.791 87.1847 265.49 87.3019C267.21 87.4206 268.681 88.891 268.807 90.5729Z" fill="white"/>
<path opacity="0.7" d="M297.432 92.324C297.558 94.0058 296.293 95.2876 294.573 95.1689C292.852 95.0502 291.382 93.6017 291.255 91.8979C291.129 90.2161 292.393 88.9343 294.114 89.053C295.835 89.1717 297.306 90.6421 297.432 92.324Z" fill="white"/>
<path opacity="0.7" d="M10.0181 101.306C11.7239 101.424 13.0042 100.15 12.8777 98.4613C12.7511 96.7724 11.2657 95.308 9.55981 95.1903C7.85394 95.0727 6.57366 96.3464 6.70021 98.0352C6.82675 99.7241 8.31221 101.189 10.0181 101.306Z" fill="white"/>
<path opacity="0.7" d="M38.62 103.056C40.3259 103.174 41.6062 101.9 41.4797 100.211C41.3531 98.5222 39.8676 97.0577 38.1617 96.9401C36.4559 96.8224 35.1756 98.0961 35.3021 99.785C35.4287 101.474 36.9141 102.938 38.62 103.056Z" fill="white"/>
<path opacity="0.7" d="M67.2448 104.807C68.9506 104.925 70.2309 103.651 70.1044 101.962C69.9778 100.273 68.4924 98.8088 66.7865 98.6912C65.0806 98.5735 63.8003 99.8472 63.9269 101.536C64.0534 103.225 65.5389 104.689 67.2448 104.807Z" fill="white"/>
<path opacity="0.7" d="M95.8467 106.557C97.5526 106.674 98.8328 105.401 98.7063 103.712C98.5797 102.023 97.0943 100.558 95.3884 100.441C93.6826 100.323 92.4023 101.597 92.5288 103.286C92.6554 104.975 94.1408 106.439 95.8467 106.557Z" fill="white"/>
<path opacity="0.7" d="M124.471 108.308C126.177 108.425 127.458 107.152 127.331 105.463C127.205 103.774 125.719 102.31 124.013 102.192C122.307 102.074 121.027 103.348 121.154 105.037C121.28 106.726 122.766 108.19 124.471 108.308Z" fill="white"/>
<path opacity="0.7" d="M155.933 107.213C156.059 108.894 154.772 110.175 153.073 110.058C151.374 109.94 149.883 108.49 149.755 106.787C149.628 105.083 150.916 103.824 152.615 103.942C154.314 104.059 155.807 105.531 155.933 107.213Z" fill="white"/>
<path opacity="0.7" d="M181.675 111.807C183.381 111.925 184.661 110.651 184.535 108.962C184.408 107.273 182.923 105.809 181.217 105.691C179.511 105.574 178.231 106.847 178.357 108.536C178.484 110.225 179.969 111.69 181.675 111.807Z" fill="white"/>
<path opacity="0.7" d="M213.137 110.712C213.263 112.394 211.976 113.674 210.277 113.557C208.578 113.44 207.087 111.99 206.959 110.286C206.832 108.582 208.12 107.324 209.819 107.441C211.54 107.56 213.011 109.03 213.137 110.712Z" fill="white"/>
<path opacity="0.7" d="M238.902 115.308C240.608 115.426 241.888 114.152 241.762 112.463C241.635 110.774 240.15 109.31 238.444 109.192C236.738 109.074 235.458 110.348 235.584 112.037C235.711 113.726 237.196 115.19 238.902 115.308Z" fill="white"/>
<path opacity="0.7" d="M270.364 114.213C270.49 115.895 269.203 117.175 267.504 117.058C265.805 116.94 264.314 115.49 264.186 113.787C264.058 112.083 265.347 110.825 267.046 110.942C268.767 111.06 270.237 112.531 270.364 114.213Z" fill="white"/>
<path opacity="0.7" d="M296.129 118.809C297.834 118.926 299.115 117.653 298.988 115.964C298.862 114.275 297.376 112.811 295.67 112.693C293.964 112.575 292.684 113.849 292.811 115.538C292.937 117.227 294.423 118.691 296.129 118.809Z" fill="white"/>
<path opacity="0.7" d="M11.5741 124.946C13.28 125.064 14.5603 123.79 14.4337 122.101C14.3072 120.412 12.8217 118.948 11.1158 118.83C9.40997 118.712 8.12969 119.986 8.25624 121.675C8.38279 123.364 9.86824 124.828 11.5741 124.946Z" fill="white"/>
<path opacity="0.7" d="M40.176 126.696C41.8819 126.813 43.1623 125.54 43.0357 123.851C42.9092 122.162 41.4236 120.697 39.7178 120.58C38.0119 120.462 36.7316 121.736 36.8582 123.425C36.9847 125.114 38.4702 126.578 40.176 126.696Z" fill="white"/>
<path opacity="0.7" d="M68.8008 128.447C70.5067 128.564 71.7869 127.291 71.6604 125.602C71.5339 123.913 70.0484 122.448 68.3425 122.331C66.6367 122.213 65.3564 123.487 65.4829 125.176C65.6095 126.865 67.0949 128.329 68.8008 128.447Z" fill="white"/>
<path opacity="0.7" d="M97.4027 130.196C99.1086 130.314 100.389 129.04 100.262 127.351C100.136 125.663 98.6503 124.198 96.9445 124.08C95.2386 123.963 93.9583 125.237 94.0849 126.925C94.2114 128.614 95.6969 130.079 97.4027 130.196Z" fill="white"/>
<path opacity="0.7" d="M126.027 131.947C127.733 132.065 129.014 130.791 128.887 129.103C128.761 127.414 127.275 125.949 125.569 125.832C123.863 125.714 122.583 126.988 122.71 128.677C122.836 130.365 124.322 131.83 126.027 131.947Z" fill="white"/>
<path opacity="0.7" d="M157.489 130.852C157.615 132.534 156.328 133.814 154.629 133.697C152.931 133.58 151.438 132.108 151.312 130.426C151.186 128.744 152.472 127.464 154.171 127.581C155.87 127.698 157.361 129.149 157.489 130.852Z" fill="white"/>
<path opacity="0.7" d="M183.231 135.447C184.937 135.565 186.217 134.291 186.091 132.602C185.964 130.913 184.479 129.449 182.773 129.331C181.067 129.213 179.787 130.487 179.913 132.176C180.04 133.865 181.525 135.329 183.231 135.447Z" fill="white"/>
<path opacity="0.7" d="M214.693 134.352C214.819 136.034 213.532 137.314 211.833 137.197C210.134 137.079 208.641 135.608 208.515 133.926C208.389 132.244 209.676 130.964 211.375 131.081C213.096 131.199 214.565 132.648 214.693 134.352Z" fill="white"/>
<path opacity="0.7" d="M240.458 138.948C242.164 139.065 243.444 137.792 243.318 136.103C243.191 134.414 241.706 132.949 240 132.832C238.294 132.714 237.014 133.988 237.14 135.677C237.267 137.366 238.752 138.83 240.458 138.948Z" fill="white"/>
<path opacity="0.7" d="M271.92 137.852C272.046 139.534 270.759 140.815 269.06 140.697C267.361 140.58 265.868 139.108 265.742 137.426C265.616 135.745 266.903 134.464 268.602 134.581C270.323 134.7 271.792 136.149 271.92 137.852Z" fill="white"/>
<path opacity="0.7" d="M297.685 142.448C299.39 142.566 300.671 141.292 300.544 139.604C300.418 137.915 298.932 136.45 297.226 136.333C295.52 136.215 294.24 137.489 294.367 139.178C294.493 140.866 295.979 142.331 297.685 142.448Z" fill="white"/>
<path opacity="0.7" d="M13.1288 148.565C14.8347 148.682 16.1149 147.408 15.9884 145.72C15.8618 144.031 14.3764 142.566 12.6705 142.449C10.9647 142.331 9.68437 143.605 9.81092 145.294C9.93747 146.982 11.4229 148.447 13.1288 148.565Z" fill="white"/>
<path opacity="0.7" d="M41.7307 150.314C43.4366 150.432 44.7169 149.158 44.5904 147.469C44.4638 145.78 42.9783 144.316 41.2725 144.198C39.5666 144.081 38.2863 145.354 38.4129 147.043C38.5394 148.732 40.0249 150.197 41.7307 150.314Z" fill="white"/>
<path opacity="0.7" d="M70.3555 152.065C72.0614 152.183 73.3416 150.909 73.2151 149.22C73.0885 147.532 71.6031 146.067 69.8972 145.949C68.1913 145.832 66.9111 147.106 67.0376 148.794C67.1642 150.483 68.6496 151.948 70.3555 152.065Z" fill="white"/>
<path opacity="0.7" d="M98.9574 153.815C100.663 153.933 101.944 152.659 101.817 150.97C101.69 149.281 100.205 147.817 98.4991 147.699C96.7933 147.581 95.513 148.855 95.6395 150.544C95.7661 152.233 97.2515 153.697 98.9574 153.815Z" fill="white"/>
<path opacity="0.7" d="M127.582 155.566C129.288 155.684 130.568 154.41 130.442 152.721C130.315 151.032 128.83 149.568 127.124 149.45C125.418 149.333 124.138 150.606 124.264 152.295C124.391 153.984 125.876 155.449 127.582 155.566Z" fill="white"/>
<path opacity="0.7" d="M159.044 154.471C159.17 156.153 157.883 157.433 156.184 157.316C154.485 157.199 152.994 155.749 152.866 154.045C152.738 152.341 154.027 151.083 155.726 151.2C157.426 151.339 158.918 152.789 159.044 154.471Z" fill="white"/>
<path opacity="0.7" d="M184.786 159.066C186.492 159.183 187.772 157.909 187.646 156.221C187.519 154.532 186.034 153.067 184.328 152.95C182.622 152.832 181.342 154.106 181.468 155.795C181.595 157.483 183.08 158.948 184.786 159.066Z" fill="white"/>
<path opacity="0.7" d="M216.247 157.97C216.373 159.652 215.087 160.932 213.388 160.815C211.689 160.698 210.198 159.248 210.07 157.544C209.942 155.841 211.231 154.582 212.93 154.699C214.652 154.84 216.121 156.288 216.247 157.97Z" fill="white"/>
<path opacity="0.7" d="M242.013 162.566C243.719 162.684 244.999 161.41 244.872 159.721C244.746 158.033 243.26 156.568 241.554 156.45C239.849 156.333 238.568 157.607 238.695 159.295C238.821 160.984 240.307 162.449 242.013 162.566Z" fill="white"/>
<path opacity="0.7" d="M273.474 161.471C273.6 163.153 272.313 164.433 270.615 164.316C268.916 164.199 267.424 162.749 267.297 161.045C267.169 159.341 268.458 158.083 270.156 158.2C271.879 158.341 273.348 159.789 273.474 161.471Z" fill="white"/>
<path opacity="0.7" d="M299.239 166.067C300.945 166.185 302.225 164.911 302.099 163.222C301.972 161.533 300.487 160.069 298.781 159.951C297.075 159.834 295.795 161.107 295.921 162.796C296.048 164.485 297.533 165.949 299.239 166.067Z" fill="white"/>
<path opacity="0.7" d="M17.5446 169.359C17.6706 171.041 16.3838 172.322 14.6849 172.204C12.9861 172.087 11.4947 170.637 11.3671 168.933C11.2411 167.252 12.5058 165.97 14.2267 166.089C15.9271 166.228 17.4185 167.678 17.5446 169.359Z" fill="white"/>
<path opacity="0.7" d="M46.1465 171.109C46.2726 172.791 45.0078 174.073 43.2869 173.954C41.5881 173.837 40.0967 172.387 39.969 170.683C39.843 169.001 41.1298 167.721 42.8286 167.838C44.5511 167.979 46.0205 169.427 46.1465 171.109Z" fill="white"/>
<path opacity="0.7" d="M74.7485 172.859C74.8745 174.541 73.5876 175.821 71.8888 175.704C70.19 175.587 68.6986 174.137 68.5709 172.433C68.4449 170.751 69.7097 169.469 71.4305 169.588C73.153 169.728 74.6225 171.177 74.7485 172.859Z" fill="white"/>
<path opacity="0.7" d="M103.373 174.61C103.499 176.292 102.234 177.574 100.514 177.455C98.8147 177.338 97.3234 175.888 97.1957 174.184C97.0697 172.502 98.3565 171.222 100.055 171.339C101.756 171.478 103.247 172.928 103.373 174.61Z" fill="white"/>
<path opacity="0.7" d="M131.975 176.36C132.101 178.042 130.814 179.322 129.115 179.205C127.417 179.087 125.925 177.637 125.798 175.934C125.672 174.252 126.936 172.97 128.657 173.089C130.38 173.229 131.849 174.678 131.975 176.36Z" fill="white"/>
<path opacity="0.7" d="M160.6 178.111C160.726 179.793 159.439 181.073 157.74 180.956C156.041 180.839 154.55 179.388 154.422 177.685C154.296 176.003 155.583 174.723 157.282 174.84C158.982 174.979 160.474 176.429 160.6 178.111Z" fill="white"/>
<path opacity="0.7" d="M189.202 179.86C189.328 181.542 188.041 182.823 186.342 182.705C184.643 182.588 183.152 181.138 183.024 179.434C182.898 177.753 184.163 176.471 185.884 176.589C187.584 176.728 189.076 178.179 189.202 179.86Z" fill="white"/>
<path opacity="0.7" d="M217.804 181.61C217.93 183.292 216.643 184.572 214.944 184.455C213.245 184.338 211.754 182.888 211.626 181.184C211.5 179.502 212.787 178.222 214.486 178.339C216.208 178.48 217.678 179.928 217.804 181.61Z" fill="white"/>
<path opacity="0.7" d="M246.428 183.361C246.554 185.043 245.268 186.323 243.569 186.206C241.87 186.089 240.379 184.639 240.251 182.935C240.125 181.253 241.39 179.972 243.111 180.09C244.811 180.229 246.302 181.679 246.428 183.361Z" fill="white"/>
<path opacity="0.7" d="M275.03 185.111C275.156 186.793 273.87 188.073 272.171 187.956C270.472 187.839 268.981 186.389 268.853 184.685C268.727 183.003 270.014 181.723 271.713 181.84C273.435 181.98 274.904 183.429 275.03 185.111Z" fill="white"/>
<path opacity="0.7" d="M303.655 186.862C303.781 188.544 302.516 189.826 300.795 189.707C299.075 189.588 297.605 188.14 297.478 186.436C297.352 184.754 298.616 183.472 300.337 183.591C302.058 183.71 303.529 185.18 303.655 186.862Z" fill="white"/>
<path opacity="0.7" d="M19.1005 192.999C19.2265 194.681 17.9397 195.961 16.2409 195.844C14.542 195.727 13.0507 194.277 12.923 192.573C12.797 190.891 14.0617 189.61 15.7826 189.728C17.4814 189.845 18.9744 191.317 19.1005 192.999Z" fill="white"/>
<path opacity="0.7" d="M47.7025 194.749C47.8285 196.431 46.5637 197.713 44.8428 197.594C43.144 197.477 41.6526 196.027 41.5249 194.323C41.3989 192.641 42.6857 191.361 44.3845 191.478C46.1054 191.597 47.5764 193.067 47.7025 194.749Z" fill="white"/>
<path opacity="0.7" d="M76.3044 196.499C76.4304 198.181 75.1435 199.461 73.4447 199.344C71.7459 199.226 70.2545 197.776 70.1268 196.073C70.0008 194.391 71.2656 193.109 72.9864 193.228C74.7073 193.346 76.1784 194.817 76.3044 196.499Z" fill="white"/>
<path opacity="0.7" d="M104.929 198.25C105.055 199.932 103.79 201.213 102.069 201.095C100.371 200.978 98.8793 199.527 98.7516 197.824C98.6256 196.142 99.9124 194.862 101.611 194.979C103.31 195.096 104.803 196.568 104.929 198.25Z" fill="white"/>
<path opacity="0.7" d="M133.531 200C133.657 201.681 132.37 202.962 130.671 202.844C128.973 202.727 127.481 201.277 127.354 199.574C127.228 197.892 128.492 196.61 130.213 196.729C131.934 196.847 133.405 198.318 133.531 200Z" fill="white"/>
<path opacity="0.7" d="M162.156 201.751C162.282 203.433 160.995 204.713 159.296 204.596C157.597 204.478 156.106 203.028 155.978 201.325C155.852 199.643 157.139 198.362 158.838 198.48C160.537 198.597 162.03 200.069 162.156 201.751Z" fill="white"/>
<path opacity="0.7" d="M190.758 203.5C190.884 205.182 189.597 206.462 187.898 206.345C186.199 206.228 184.708 204.778 184.58 203.074C184.454 201.392 185.719 200.111 187.44 200.229C189.139 200.346 190.632 201.818 190.758 203.5Z" fill="white"/>
<path opacity="0.7" d="M219.36 205.25C219.486 206.932 218.199 208.212 216.5 208.095C214.801 207.978 213.31 206.528 213.182 204.824C213.056 203.142 214.343 201.862 216.042 201.979C217.763 202.098 219.234 203.568 219.36 205.25Z" fill="white"/>
<path opacity="0.7" d="M247.984 207.001C248.11 208.683 246.824 209.963 245.125 209.846C243.426 209.729 241.935 208.279 241.807 206.575C241.681 204.893 242.946 203.611 244.666 203.73C246.365 203.847 247.858 205.319 247.984 207.001Z" fill="white"/>
<path opacity="0.7" d="M276.586 208.751C276.712 210.433 275.426 211.713 273.727 211.596C272.028 211.479 270.536 210.028 270.409 208.325C270.283 206.643 271.57 205.363 273.268 205.48C274.989 205.598 276.46 207.069 276.586 208.751Z" fill="white"/>
<path opacity="0.7" d="M305.211 210.502C305.337 212.184 304.072 213.465 302.351 213.347C300.63 213.228 299.161 211.78 299.033 210.076C298.907 208.394 300.172 207.112 301.893 207.231C303.614 207.35 305.085 208.82 305.211 210.502Z" fill="white"/>
<path opacity="0.7" d="M17.797 219.484C19.5029 219.602 20.7832 218.328 20.6566 216.639C20.5301 214.95 19.0446 213.486 17.3387 213.368C15.6329 213.251 14.3526 214.524 14.4791 216.213C14.6057 217.902 16.0911 219.366 17.797 219.484Z" fill="white"/>
<path opacity="0.7" d="M46.3989 221.234C48.1048 221.351 49.3852 220.078 49.2586 218.389C49.1321 216.7 47.6465 215.236 45.9407 215.118C44.2348 215 42.9545 216.274 43.0811 217.963C43.2076 219.652 44.6931 221.116 46.3989 221.234Z" fill="white"/>
<path opacity="0.7" d="M75.0237 222.985C76.7296 223.103 78.0098 221.829 77.8833 220.14C77.7567 218.451 76.2713 216.987 74.5654 216.869C72.8596 216.751 71.5793 218.025 71.7058 219.714C71.8324 221.403 73.3178 222.867 75.0237 222.985Z" fill="white"/>
<path opacity="0.7" d="M103.626 224.735C105.331 224.852 106.612 223.578 106.485 221.89C106.359 220.201 104.873 218.736 103.167 218.619C101.461 218.501 100.181 219.775 100.308 221.464C100.434 223.152 101.92 224.617 103.626 224.735Z" fill="white"/>
<path opacity="0.7" d="M132.25 226.486C133.956 226.603 135.237 225.33 135.11 223.641C134.983 221.952 133.498 220.487 131.792 220.37C130.086 220.252 128.806 221.526 128.933 223.215C129.059 224.904 130.545 226.368 132.25 226.486Z" fill="white"/>
<path opacity="0.7" d="M163.712 225.39C163.838 227.072 162.551 228.353 160.852 228.235C159.153 228.118 157.662 226.668 157.534 224.964C157.407 223.261 158.695 222.002 160.394 222.12C162.093 222.237 163.586 223.709 163.712 225.39Z" fill="white"/>
<path opacity="0.7" d="M189.454 229.985C191.16 230.103 192.44 228.829 192.314 227.14C192.187 225.451 190.702 223.987 188.996 223.869C187.29 223.751 186.01 225.025 186.136 226.714C186.263 228.403 187.748 229.867 189.454 229.985Z" fill="white"/>
<path opacity="0.7" d="M220.916 228.89C221.042 230.572 219.755 231.852 218.056 231.735C216.357 231.618 214.866 230.168 214.738 228.464C214.611 226.76 215.899 225.502 217.598 225.619C219.319 225.738 220.79 227.208 220.916 228.89Z" fill="white"/>
<path opacity="0.7" d="M246.681 233.486C248.387 233.604 249.667 232.33 249.541 230.641C249.414 228.952 247.929 227.488 246.223 227.37C244.517 227.252 243.236 228.526 243.363 230.215C243.49 231.904 244.975 233.368 246.681 233.486Z" fill="white"/>
<path opacity="0.7" d="M278.142 232.391C278.268 234.072 276.982 235.353 275.283 235.236C273.584 235.118 272.093 233.668 271.965 231.965C271.837 230.261 273.126 229.002 274.825 229.12C276.545 229.238 278.016 230.709 278.142 232.391Z" fill="white"/>
<path opacity="0.7" d="M303.907 236.987C305.613 237.104 306.894 235.831 306.767 234.142C306.641 232.453 305.155 230.988 303.449 230.871C301.743 230.753 300.463 232.027 300.59 233.716C300.716 235.405 302.202 236.869 303.907 236.987Z" fill="white"/>
<path opacity="0.7" d="M22.2113 240.258C22.3373 241.94 21.0505 243.22 19.3517 243.103C17.6529 242.985 16.1598 241.513 16.0338 239.832C15.9078 238.15 17.1725 236.868 18.8934 236.987C20.5939 237.126 22.0853 238.576 22.2113 240.258Z" fill="white"/>
<path opacity="0.7" d="M50.8133 242.007C50.9393 243.689 49.6745 244.971 47.9536 244.852C46.2548 244.735 44.7618 243.263 44.6358 241.581C44.5097 239.9 45.7965 238.619 47.4954 238.736C49.2179 238.877 50.6873 240.326 50.8133 242.007Z" fill="white"/>
<path opacity="0.7" d="M79.4152 243.757C79.5413 245.439 78.2544 246.719 76.5556 246.602C74.8567 246.485 73.3637 245.013 73.2377 243.331C73.1117 241.649 74.3764 240.367 76.0973 240.486C77.8198 240.627 79.2892 242.075 79.4152 243.757Z" fill="white"/>
<path opacity="0.7" d="M108.04 245.508C108.166 247.19 106.901 248.472 105.18 248.353C103.481 248.236 101.988 246.764 101.862 245.082C101.736 243.4 103.023 242.12 104.722 242.237C106.422 242.376 107.914 243.826 108.04 245.508Z" fill="white"/>
<path opacity="0.7" d="M136.642 247.258C136.768 248.94 135.481 250.22 133.782 250.103C132.083 249.986 130.59 248.514 130.464 246.832C130.338 245.15 131.603 243.868 133.324 243.987C135.046 244.127 136.516 245.576 136.642 247.258Z" fill="white"/>
<path opacity="0.7" d="M165.267 249.009C165.393 250.691 164.106 251.971 162.407 251.854C160.708 251.737 159.215 250.265 159.089 248.583C158.963 246.901 160.25 245.621 161.949 245.738C163.649 245.877 165.141 247.327 165.267 249.009Z" fill="white"/>
<path opacity="0.7" d="M193.869 250.759C193.995 252.441 192.708 253.721 191.009 253.604C189.31 253.486 187.817 252.014 187.691 250.333C187.565 248.651 188.83 247.369 190.551 247.488C192.251 247.627 193.743 249.077 193.869 250.759Z" fill="white"/>
<path opacity="0.7" d="M222.47 252.508C222.596 254.19 221.31 255.47 219.611 255.353C217.912 255.236 216.419 253.764 216.293 252.082C216.167 250.4 217.454 249.12 219.152 249.237C220.875 249.378 222.344 250.827 222.47 252.508Z" fill="white"/>
<path opacity="0.7" d="M251.095 254.259C251.221 255.941 249.934 257.222 248.236 257.104C246.537 256.987 245.044 255.515 244.918 253.833C244.792 252.152 246.056 250.87 247.777 250.989C249.478 251.128 250.969 252.578 251.095 254.259Z" fill="white"/>
<path opacity="0.7" d="M279.697 256.009C279.823 257.691 278.536 258.971 276.838 258.854C275.139 258.737 273.646 257.265 273.52 255.583C273.394 253.901 274.68 252.621 276.379 252.738C278.102 252.879 279.571 254.327 279.697 256.009Z" fill="white"/>
<path opacity="0.7" d="M308.322 257.76C308.448 259.442 307.183 260.724 305.462 260.605C303.741 260.486 302.27 259.016 302.144 257.334C302.018 255.652 303.283 254.371 305.004 254.489C306.725 254.608 308.196 256.078 308.322 257.76Z" fill="white"/>
<path opacity="0.7" d="M20.9077 266.742C22.6136 266.86 23.8939 265.586 23.7673 263.897C23.6408 262.209 22.1553 260.744 20.4495 260.626C18.7436 260.509 17.4633 261.783 17.5899 263.471C17.7164 265.16 19.2019 266.625 20.9077 266.742Z" fill="white"/>
<path opacity="0.7" d="M49.5097 268.492C51.2155 268.61 52.4959 267.336 52.3693 265.647C52.2428 263.958 50.7573 262.494 49.0514 262.376C47.3455 262.259 46.0652 263.532 46.1918 265.221C46.3183 266.91 47.8038 268.375 49.5097 268.492Z" fill="white"/>
<path opacity="0.7" d="M78.1344 270.243C79.8403 270.361 81.1206 269.087 80.994 267.398C80.8675 265.709 79.382 264.245 77.6761 264.127C75.9703 264.01 74.69 265.283 74.8165 266.972C74.9431 268.661 76.4285 270.126 78.1344 270.243Z" fill="white"/>
<path opacity="0.7" d="M106.736 271.993C108.442 272.111 109.722 270.837 109.596 269.148C109.469 267.459 107.984 265.995 106.278 265.877C104.572 265.759 103.292 267.033 103.418 268.722C103.545 270.411 105.03 271.875 106.736 271.993Z" fill="white"/>
<path opacity="0.7" d="M135.361 273.744C137.067 273.862 138.347 272.588 138.221 270.899C138.094 269.21 136.609 267.746 134.903 267.628C133.197 267.51 131.917 268.784 132.043 270.473C132.17 272.162 133.655 273.626 135.361 273.744Z" fill="white"/>
<path opacity="0.7" d="M166.823 272.649C166.949 274.331 165.662 275.611 163.963 275.494C162.264 275.377 160.771 273.905 160.645 272.223C160.519 270.541 161.806 269.261 163.505 269.378C165.205 269.517 166.697 270.967 166.823 272.649Z" fill="white"/>
<path opacity="0.7" d="M192.565 277.243C194.271 277.361 195.551 276.087 195.425 274.398C195.298 272.71 193.813 271.245 192.107 271.127C190.401 271.01 189.121 272.284 189.247 273.972C189.374 275.661 190.859 277.126 192.565 277.243Z" fill="white"/>
<path opacity="0.7" d="M224.026 276.148C224.153 277.83 222.866 279.11 221.167 278.993C219.468 278.876 217.975 277.404 217.849 275.722C217.723 274.04 219.01 272.76 220.709 272.877C222.431 273.018 223.9 274.466 224.026 276.148Z" fill="white"/>
<path opacity="0.7" d="M249.792 280.744C251.498 280.862 252.778 279.588 252.651 277.899C252.525 276.21 251.039 274.746 249.333 274.628C247.627 274.511 246.347 275.784 246.474 277.473C246.6 279.162 248.086 280.627 249.792 280.744Z" fill="white"/>
<path opacity="0.7" d="M281.253 279.649C281.379 281.331 280.092 282.611 278.394 282.494C276.695 282.377 275.202 280.905 275.076 279.223C274.95 277.541 276.236 276.261 277.935 276.378C279.658 276.518 281.127 277.967 281.253 279.649Z" fill="white"/>
<path opacity="0.7" d="M307.018 284.245C308.724 284.363 310.004 283.089 309.878 281.4C309.751 279.711 308.266 278.247 306.56 278.129C304.854 278.011 303.574 279.285 303.7 280.974C303.827 282.663 305.312 284.127 307.018 284.245Z" fill="white"/>
</svg>
