<svg width="285" height="285" viewBox="0 0 285 285" fill="none" xmlns="http://www.w3.org/2000/svg">
<path d="M279.812 10.5014C277.107 10.5014 274.915 8.30909 274.915 5.6048C274.915 2.90051 277.107 0.708252 279.812 0.708252C282.516 0.708252 284.708 2.90052 284.708 5.60481C284.708 8.3091 282.516 10.5014 279.812 10.5014Z" fill="white"/>
<path d="M279.812 44.7772C277.107 44.7772 274.915 42.585 274.915 39.8807C274.915 37.1764 277.107 34.9841 279.812 34.9841C282.516 34.9841 284.708 37.1764 284.708 39.8807C284.708 42.585 282.516 44.7772 279.812 44.7772Z" fill="white"/>
<path d="M279.812 79.0531C277.107 79.0531 274.915 76.8608 274.915 74.1565C274.915 71.4522 277.107 69.26 279.812 69.26C282.516 69.26 284.708 71.4522 284.708 74.1565C284.708 76.8608 282.516 79.0531 279.812 79.0531Z" fill="white"/>
<path d="M279.812 113.329C277.107 113.329 274.915 111.137 274.915 108.432C274.915 105.728 277.107 103.536 279.812 103.536C282.516 103.536 284.708 105.728 284.708 108.432C284.708 111.137 282.516 113.329 279.812 113.329Z" fill="white"/>
<path d="M279.812 147.605C277.107 147.605 274.915 145.413 274.915 142.708C274.915 140.004 277.107 137.812 279.812 137.812C282.516 137.812 284.708 140.004 284.708 142.708C284.708 145.413 282.516 147.605 279.812 147.605Z" fill="white"/>
<path d="M279.812 181.881C277.107 181.881 274.915 179.688 274.915 176.984C274.915 174.28 277.107 172.088 279.812 172.088C282.516 172.088 284.708 174.28 284.708 176.984C284.708 179.688 282.516 181.881 279.812 181.881Z" fill="white"/>
<path d="M279.812 216.157C277.107 216.157 274.915 213.964 274.915 211.26C274.915 208.556 277.107 206.363 279.812 206.363C282.516 206.363 284.708 208.556 284.708 211.26C284.708 213.964 282.516 216.157 279.812 216.157Z" fill="white"/>
<path d="M279.812 250.432C277.107 250.432 274.915 248.24 274.915 245.536C274.915 242.832 277.107 240.639 279.812 240.639C282.516 240.639 284.708 242.832 284.708 245.536C284.708 248.24 282.516 250.432 279.812 250.432Z" fill="white"/>
<path d="M279.812 284.708C277.107 284.708 274.915 282.516 274.915 279.812C274.915 277.107 277.107 274.915 279.812 274.915C282.516 274.915 284.708 277.107 284.708 279.812C284.708 282.516 282.516 284.708 279.812 284.708Z" fill="white"/>
<path d="M245.536 10.5014C242.832 10.5014 240.639 8.3091 240.639 5.60481C240.639 2.90051 242.832 0.708256 245.536 0.708256C248.24 0.708256 250.432 2.90052 250.432 5.60482C250.432 8.30911 248.24 10.5014 245.536 10.5014Z" fill="white"/>
<path d="M245.536 44.7772C242.832 44.7772 240.639 42.585 240.639 39.8807C240.639 37.1764 242.832 34.9841 245.536 34.9841C248.24 34.9841 250.432 37.1764 250.432 39.8807C250.432 42.585 248.24 44.7772 245.536 44.7772Z" fill="white"/>
<path d="M245.536 79.0531C242.832 79.0531 240.639 76.8608 240.639 74.1565C240.639 71.4522 242.832 69.26 245.536 69.26C248.24 69.26 250.432 71.4522 250.432 74.1565C250.432 76.8608 248.24 79.0531 245.536 79.0531Z" fill="white"/>
<path d="M245.536 113.329C242.832 113.329 240.639 111.137 240.639 108.432C240.639 105.728 242.832 103.536 245.536 103.536C248.24 103.536 250.432 105.728 250.432 108.432C250.432 111.137 248.24 113.329 245.536 113.329Z" fill="white"/>
<path d="M245.536 147.605C242.832 147.605 240.639 145.413 240.639 142.708C240.639 140.004 242.832 137.812 245.536 137.812C248.24 137.812 250.432 140.004 250.432 142.708C250.432 145.413 248.24 147.605 245.536 147.605Z" fill="white"/>
<path d="M245.536 181.881C242.832 181.881 240.639 179.688 240.639 176.984C240.639 174.28 242.832 172.088 245.536 172.088C248.24 172.088 250.432 174.28 250.432 176.984C250.432 179.688 248.24 181.881 245.536 181.881Z" fill="white"/>
<path d="M245.536 216.157C242.832 216.157 240.639 213.964 240.639 211.26C240.639 208.556 242.832 206.363 245.536 206.363C248.24 206.363 250.432 208.556 250.432 211.26C250.432 213.964 248.24 216.157 245.536 216.157Z" fill="white"/>
<path d="M245.536 250.432C242.832 250.432 240.639 248.24 240.639 245.536C240.639 242.832 242.832 240.639 245.536 240.639C248.24 240.639 250.432 242.832 250.432 245.536C250.432 248.24 248.24 250.432 245.536 250.432Z" fill="white"/>
<path d="M245.536 284.708C242.832 284.708 240.639 282.516 240.639 279.812C240.639 277.107 242.832 274.915 245.536 274.915C248.24 274.915 250.432 277.107 250.432 279.812C250.432 282.516 248.24 284.708 245.536 284.708Z" fill="white"/>
<path d="M211.26 10.5014C208.556 10.5014 206.363 8.3091 206.363 5.60481C206.363 2.90052 208.556 0.708259 211.26 0.708259C213.964 0.708259 216.157 2.90051 216.157 5.60481C216.157 8.3091 213.964 10.5014 211.26 10.5014Z" fill="white"/>
<path d="M211.26 44.7772C208.556 44.7772 206.363 42.585 206.363 39.8807C206.363 37.1764 208.556 34.9841 211.26 34.9841C213.964 34.9841 216.157 37.1764 216.157 39.8807C216.157 42.585 213.964 44.7772 211.26 44.7772Z" fill="white"/>
<path d="M211.26 79.0531C208.556 79.0531 206.363 76.8608 206.363 74.1565C206.363 71.4522 208.556 69.26 211.26 69.26C213.964 69.26 216.157 71.4522 216.157 74.1565C216.157 76.8608 213.964 79.0531 211.26 79.0531Z" fill="white"/>
<path d="M211.26 113.329C208.556 113.329 206.363 111.137 206.363 108.432C206.363 105.728 208.556 103.536 211.26 103.536C213.964 103.536 216.157 105.728 216.157 108.432C216.157 111.137 213.964 113.329 211.26 113.329Z" fill="white"/>
<path d="M211.26 147.605C208.556 147.605 206.363 145.413 206.363 142.708C206.363 140.004 208.556 137.812 211.26 137.812C213.964 137.812 216.157 140.004 216.157 142.708C216.157 145.413 213.964 147.605 211.26 147.605Z" fill="white"/>
<path d="M211.26 181.881C208.556 181.881 206.363 179.688 206.363 176.984C206.363 174.28 208.556 172.088 211.26 172.088C213.964 172.088 216.157 174.28 216.157 176.984C216.157 179.688 213.964 181.881 211.26 181.881Z" fill="white"/>
<path d="M211.26 216.157C208.556 216.157 206.363 213.964 206.363 211.26C206.363 208.556 208.556 206.363 211.26 206.363C213.964 206.363 216.157 208.556 216.157 211.26C216.157 213.964 213.964 216.157 211.26 216.157Z" fill="white"/>
<path d="M211.26 250.432C208.556 250.432 206.363 248.24 206.363 245.536C206.363 242.832 208.556 240.639 211.26 240.639C213.964 240.639 216.157 242.832 216.157 245.536C216.157 248.24 213.964 250.432 211.26 250.432Z" fill="white"/>
<path d="M211.26 284.708C208.556 284.708 206.363 282.516 206.363 279.812C206.363 277.107 208.556 274.915 211.26 274.915C213.964 274.915 216.157 277.107 216.157 279.812C216.157 282.516 213.964 284.708 211.26 284.708Z" fill="white"/>
<path d="M176.984 10.5014C174.28 10.5014 172.088 8.3091 172.088 5.60481C172.088 2.90052 174.28 0.708262 176.984 0.708262C179.688 0.708262 181.881 2.90052 181.881 5.60481C181.881 8.3091 179.688 10.5014 176.984 10.5014Z" fill="white"/>
<path d="M176.984 44.7772C174.28 44.7772 172.088 42.585 172.088 39.8807C172.088 37.1764 174.28 34.9841 176.984 34.9841C179.688 34.9841 181.881 37.1764 181.881 39.8807C181.881 42.585 179.688 44.7772 176.984 44.7772Z" fill="white"/>
<path d="M176.984 79.0531C174.28 79.0531 172.088 76.8608 172.088 74.1565C172.088 71.4522 174.28 69.26 176.984 69.26C179.688 69.26 181.881 71.4522 181.881 74.1565C181.881 76.8608 179.688 79.0531 176.984 79.0531Z" fill="white"/>
<path d="M176.984 113.329C174.28 113.329 172.088 111.137 172.088 108.432C172.088 105.728 174.28 103.536 176.984 103.536C179.688 103.536 181.881 105.728 181.881 108.432C181.881 111.137 179.688 113.329 176.984 113.329Z" fill="white"/>
<path d="M176.984 147.605C174.28 147.605 172.088 145.413 172.088 142.708C172.088 140.004 174.28 137.812 176.984 137.812C179.688 137.812 181.881 140.004 181.881 142.708C181.881 145.413 179.688 147.605 176.984 147.605Z" fill="white"/>
<path d="M176.984 181.881C174.28 181.881 172.088 179.688 172.088 176.984C172.088 174.28 174.28 172.088 176.984 172.088C179.688 172.088 181.881 174.28 181.881 176.984C181.881 179.688 179.688 181.881 176.984 181.881Z" fill="white"/>
<path d="M176.984 216.157C174.28 216.157 172.088 213.964 172.088 211.26C172.088 208.556 174.28 206.363 176.984 206.363C179.688 206.363 181.881 208.556 181.881 211.26C181.881 213.964 179.688 216.157 176.984 216.157Z" fill="white"/>
<path d="M176.984 250.432C174.28 250.432 172.088 248.24 172.088 245.536C172.088 242.832 174.28 240.639 176.984 240.639C179.688 240.639 181.881 242.832 181.881 245.536C181.881 248.24 179.688 250.432 176.984 250.432Z" fill="white"/>
<path d="M176.984 284.708C174.28 284.708 172.088 282.516 172.088 279.812C172.088 277.107 174.28 274.915 176.984 274.915C179.688 274.915 181.881 277.107 181.881 279.812C181.881 282.516 179.688 284.708 176.984 284.708Z" fill="white"/>
<path d="M142.708 10.5014C140.004 10.5014 137.812 8.3091 137.812 5.60481C137.812 2.90052 140.004 0.708256 142.708 0.708256C145.413 0.708256 147.605 2.90052 147.605 5.60481C147.605 8.3091 145.413 10.5014 142.708 10.5014Z" fill="white"/>
<path d="M142.708 44.7772C140.004 44.7772 137.812 42.585 137.812 39.8807C137.812 37.1764 140.004 34.9841 142.708 34.9841C145.413 34.9841 147.605 37.1764 147.605 39.8807C147.605 42.585 145.413 44.7772 142.708 44.7772Z" fill="white"/>
<path d="M142.708 79.0531C140.004 79.0531 137.812 76.8608 137.812 74.1565C137.812 71.4522 140.004 69.26 142.708 69.26C145.413 69.26 147.605 71.4522 147.605 74.1565C147.605 76.8608 145.413 79.0531 142.708 79.0531Z" fill="white"/>
<path d="M142.708 113.329C140.004 113.329 137.812 111.137 137.812 108.432C137.812 105.728 140.004 103.536 142.708 103.536C145.413 103.536 147.605 105.728 147.605 108.432C147.605 111.137 145.413 113.329 142.708 113.329Z" fill="white"/>
<path d="M142.708 147.605C140.004 147.605 137.812 145.413 137.812 142.708C137.812 140.004 140.004 137.812 142.708 137.812C145.413 137.812 147.605 140.004 147.605 142.708C147.605 145.413 145.413 147.605 142.708 147.605Z" fill="white"/>
<path d="M142.708 181.881C140.004 181.881 137.812 179.688 137.812 176.984C137.812 174.28 140.004 172.088 142.708 172.088C145.413 172.088 147.605 174.28 147.605 176.984C147.605 179.688 145.413 181.881 142.708 181.881Z" fill="white"/>
<path d="M142.708 216.157C140.004 216.157 137.812 213.964 137.812 211.26C137.812 208.556 140.004 206.363 142.708 206.363C145.413 206.363 147.605 208.556 147.605 211.26C147.605 213.964 145.413 216.157 142.708 216.157Z" fill="white"/>
<path d="M142.708 250.432C140.004 250.432 137.812 248.24 137.812 245.536C137.812 242.832 140.004 240.639 142.708 240.639C145.413 240.639 147.605 242.832 147.605 245.536C147.605 248.24 145.413 250.432 142.708 250.432Z" fill="white"/>
<path d="M142.708 284.708C140.004 284.708 137.812 282.516 137.812 279.812C137.812 277.107 140.004 274.915 142.708 274.915C145.413 274.915 147.605 277.107 147.605 279.812C147.605 282.516 145.413 284.708 142.708 284.708Z" fill="white"/>
<path d="M108.432 10.5014C105.728 10.5014 103.536 8.3091 103.536 5.60481C103.536 2.90052 105.728 0.708262 108.432 0.708262C111.137 0.708262 113.329 2.90052 113.329 5.60481C113.329 8.3091 111.137 10.5014 108.432 10.5014Z" fill="white"/>
<path d="M108.432 44.7772C105.728 44.7772 103.536 42.585 103.536 39.8807C103.536 37.1764 105.728 34.9841 108.432 34.9841C111.137 34.9841 113.329 37.1764 113.329 39.8807C113.329 42.585 111.137 44.7772 108.432 44.7772Z" fill="white"/>
<path d="M108.432 79.0531C105.728 79.0531 103.536 76.8608 103.536 74.1565C103.536 71.4522 105.728 69.26 108.432 69.26C111.137 69.26 113.329 71.4522 113.329 74.1565C113.329 76.8608 111.137 79.0531 108.432 79.0531Z" fill="white"/>
<path d="M108.432 113.329C105.728 113.329 103.536 111.137 103.536 108.432C103.536 105.728 105.728 103.536 108.432 103.536C111.137 103.536 113.329 105.728 113.329 108.432C113.329 111.137 111.137 113.329 108.432 113.329Z" fill="white"/>
<path d="M108.432 147.605C105.728 147.605 103.536 145.413 103.536 142.708C103.536 140.004 105.728 137.812 108.432 137.812C111.137 137.812 113.329 140.004 113.329 142.708C113.329 145.413 111.137 147.605 108.432 147.605Z" fill="white"/>
<path d="M108.432 181.881C105.728 181.881 103.536 179.688 103.536 176.984C103.536 174.28 105.728 172.088 108.432 172.088C111.137 172.088 113.329 174.28 113.329 176.984C113.329 179.688 111.137 181.881 108.432 181.881Z" fill="white"/>
<path d="M108.432 216.157C105.728 216.157 103.536 213.964 103.536 211.26C103.536 208.556 105.728 206.363 108.432 206.363C111.137 206.363 113.329 208.556 113.329 211.26C113.329 213.964 111.137 216.157 108.432 216.157Z" fill="white"/>
<path d="M108.432 250.432C105.728 250.432 103.536 248.24 103.536 245.536C103.536 242.832 105.728 240.639 108.432 240.639C111.137 240.639 113.329 242.832 113.329 245.536C113.329 248.24 111.137 250.432 108.432 250.432Z" fill="white"/>
<path d="M108.432 284.708C105.728 284.708 103.536 282.516 103.536 279.812C103.536 277.107 105.728 274.915 108.432 274.915C111.137 274.915 113.329 277.107 113.329 279.812C113.329 282.516 111.137 284.708 108.432 284.708Z" fill="white"/>
<path d="M74.1565 10.5014C71.4522 10.5014 69.26 8.3091 69.26 5.60481C69.26 2.90051 71.4522 0.708259 74.1565 0.708259C76.8608 0.708259 79.0531 2.90052 79.0531 5.60481C79.0531 8.3091 76.8608 10.5014 74.1565 10.5014Z" fill="white"/>
<path d="M74.1565 44.7772C71.4522 44.7772 69.26 42.585 69.26 39.8807C69.26 37.1764 71.4522 34.9841 74.1565 34.9841C76.8608 34.9841 79.0531 37.1764 79.0531 39.8807C79.0531 42.585 76.8608 44.7772 74.1565 44.7772Z" fill="white"/>
<path d="M74.1565 79.0531C71.4522 79.0531 69.26 76.8608 69.26 74.1565C69.26 71.4522 71.4522 69.26 74.1565 69.26C76.8608 69.26 79.0531 71.4522 79.0531 74.1565C79.0531 76.8608 76.8608 79.0531 74.1565 79.0531Z" fill="white"/>
<path d="M74.1565 113.329C71.4522 113.329 69.26 111.137 69.26 108.432C69.26 105.728 71.4522 103.536 74.1565 103.536C76.8608 103.536 79.0531 105.728 79.0531 108.432C79.0531 111.137 76.8608 113.329 74.1565 113.329Z" fill="white"/>
<path d="M74.1565 147.605C71.4522 147.605 69.26 145.413 69.26 142.708C69.26 140.004 71.4522 137.812 74.1565 137.812C76.8608 137.812 79.0531 140.004 79.0531 142.708C79.0531 145.413 76.8608 147.605 74.1565 147.605Z" fill="white"/>
<path d="M74.1565 181.881C71.4522 181.881 69.26 179.688 69.26 176.984C69.26 174.28 71.4522 172.088 74.1565 172.088C76.8608 172.088 79.0531 174.28 79.0531 176.984C79.0531 179.688 76.8608 181.881 74.1565 181.881Z" fill="white"/>
<path d="M74.1565 216.157C71.4522 216.157 69.26 213.964 69.26 211.26C69.26 208.556 71.4522 206.363 74.1565 206.363C76.8608 206.363 79.0531 208.556 79.0531 211.26C79.0531 213.964 76.8608 216.157 74.1565 216.157Z" fill="white"/>
<path d="M74.1565 250.432C71.4522 250.432 69.26 248.24 69.26 245.536C69.26 242.832 71.4522 240.639 74.1565 240.639C76.8608 240.639 79.0531 242.832 79.0531 245.536C79.0531 248.24 76.8608 250.432 74.1565 250.432Z" fill="white"/>
<path d="M74.1565 284.708C71.4522 284.708 69.26 282.516 69.26 279.812C69.26 277.107 71.4522 274.915 74.1565 274.915C76.8608 274.915 79.0531 277.107 79.0531 279.812C79.0531 282.516 76.8608 284.708 74.1565 284.708Z" fill="white"/>
<path d="M39.8807 10.5014C37.1764 10.5014 34.9841 8.30911 34.9841 5.60482C34.9841 2.90052 37.1764 0.708256 39.8807 0.708256C42.585 0.708256 44.7772 2.90051 44.7772 5.60481C44.7772 8.3091 42.585 10.5014 39.8807 10.5014Z" fill="white"/>
<path d="M39.8807 44.7772C37.1764 44.7772 34.9841 42.585 34.9841 39.8807C34.9841 37.1764 37.1764 34.9841 39.8807 34.9841C42.585 34.9841 44.7772 37.1764 44.7772 39.8807C44.7772 42.585 42.585 44.7772 39.8807 44.7772Z" fill="white"/>
<path d="M39.8807 79.0531C37.1764 79.0531 34.9841 76.8608 34.9841 74.1565C34.9841 71.4522 37.1764 69.26 39.8807 69.26C42.585 69.26 44.7772 71.4522 44.7772 74.1565C44.7772 76.8608 42.585 79.0531 39.8807 79.0531Z" fill="white"/>
<path d="M39.8807 113.329C37.1764 113.329 34.9841 111.137 34.9841 108.432C34.9841 105.728 37.1764 103.536 39.8807 103.536C42.585 103.536 44.7772 105.728 44.7772 108.432C44.7772 111.137 42.585 113.329 39.8807 113.329Z" fill="white"/>
<path d="M39.8807 147.605C37.1764 147.605 34.9841 145.413 34.9841 142.708C34.9841 140.004 37.1764 137.812 39.8807 137.812C42.585 137.812 44.7772 140.004 44.7772 142.708C44.7772 145.413 42.585 147.605 39.8807 147.605Z" fill="white"/>
<path d="M39.8807 181.881C37.1764 181.881 34.9841 179.688 34.9841 176.984C34.9841 174.28 37.1764 172.088 39.8807 172.088C42.585 172.088 44.7772 174.28 44.7772 176.984C44.7772 179.688 42.585 181.881 39.8807 181.881Z" fill="white"/>
<path d="M39.8807 216.157C37.1764 216.157 34.9841 213.964 34.9841 211.26C34.9841 208.556 37.1764 206.363 39.8807 206.363C42.585 206.363 44.7772 208.556 44.7772 211.26C44.7772 213.964 42.585 216.157 39.8807 216.157Z" fill="white"/>
<path d="M39.8807 250.432C37.1764 250.432 34.9841 248.24 34.9841 245.536C34.9841 242.832 37.1764 240.639 39.8807 240.639C42.585 240.639 44.7772 242.832 44.7772 245.536C44.7772 248.24 42.585 250.432 39.8807 250.432Z" fill="white"/>
<path d="M39.8807 284.708C37.1764 284.708 34.9841 282.516 34.9841 279.812C34.9841 277.107 37.1764 274.915 39.8807 274.915C42.585 274.915 44.7772 277.107 44.7772 279.812C44.7772 282.516 42.585 284.708 39.8807 284.708Z" fill="white"/>
<path d="M5.60481 10.5014C2.90052 10.5014 0.708255 8.3091 0.708255 5.60481C0.708255 2.90052 2.90052 0.708252 5.60481 0.708252C8.30911 0.708252 10.5014 2.90051 10.5014 5.6048C10.5014 8.30909 8.3091 10.5014 5.60481 10.5014Z" fill="white"/>
<path d="M5.60481 44.7772C2.90052 44.7772 0.708258 42.585 0.708258 39.8807C0.708258 37.1764 2.90051 34.9841 5.60481 34.9841C8.3091 34.9841 10.5014 37.1764 10.5014 39.8807C10.5014 42.585 8.3091 44.7772 5.60481 44.7772Z" fill="white"/>
<path d="M5.60481 79.0531C2.90052 79.0531 0.708261 76.8608 0.708261 74.1565C0.708261 71.4522 2.90052 69.26 5.60481 69.26C8.3091 69.26 10.5014 71.4522 10.5014 74.1565C10.5014 76.8608 8.3091 79.0531 5.60481 79.0531Z" fill="white"/>
<path d="M5.6048 113.329C2.90051 113.329 0.708252 111.137 0.708252 108.432C0.708252 105.728 2.90052 103.536 5.60481 103.536C8.3091 103.536 10.5014 105.728 10.5014 108.432C10.5014 111.137 8.30909 113.329 5.6048 113.329Z" fill="white"/>
<path d="M5.60481 147.605C2.90051 147.605 0.708252 145.413 0.708252 142.708C0.708252 140.004 2.90052 137.812 5.60481 137.812C8.3091 137.812 10.5014 140.004 10.5014 142.708C10.5014 145.413 8.3091 147.605 5.60481 147.605Z" fill="white"/>
<path d="M5.60481 181.881C2.90051 181.881 0.708258 179.688 0.708258 176.984C0.708258 174.28 2.90051 172.088 5.60481 172.088C8.3091 172.088 10.5014 174.28 10.5014 176.984C10.5014 179.688 8.3091 181.881 5.60481 181.881Z" fill="white"/>
<path d="M5.60481 216.157C2.90051 216.157 0.708258 213.964 0.708258 211.26C0.708258 208.556 2.90051 206.363 5.60481 206.363C8.3091 206.363 10.5014 208.556 10.5014 211.26C10.5014 213.964 8.3091 216.157 5.60481 216.157Z" fill="white"/>
<path d="M5.60482 250.432C2.90053 250.432 0.708258 248.24 0.708258 245.536C0.708258 242.832 2.90051 240.639 5.60481 240.639C8.3091 240.639 10.5014 242.832 10.5014 245.536C10.5014 248.24 8.30911 250.432 5.60482 250.432Z" fill="white"/>
<path d="M5.60482 284.708C2.90053 284.708 0.708258 282.516 0.708258 279.812C0.708258 277.107 2.90051 274.915 5.60481 274.915C8.3091 274.915 10.5014 277.107 10.5014 279.812C10.5014 282.516 8.30911 284.708 5.60482 284.708Z" fill="white"/>
</svg>
