<svg width="151" height="498" viewBox="0 0 151 498" fill="none" xmlns="http://www.w3.org/2000/svg">
<path d="M75.4254 261.15L133.223 203.438L150.207 220.422L75.4254 295.203L0.729004 220.422L17.7133 203.438L75.4254 261.15Z" fill="white"/>
<path d="M75.4254 160.342L133.223 102.63L150.207 119.614L75.4254 194.395L0.729004 119.614L17.7133 102.63L75.4254 160.342Z" fill="white"/>
<path d="M75.4254 58.3556L133.223 0.558651L150.207 17.6275L75.4254 92.3242L0.729004 17.6275L17.7133 0.558651L75.4254 58.3556Z" fill="white"/>
<path d="M75.4254 463.947L133.223 406.234L150.207 423.219L75.4254 498L0.729004 423.219L17.7133 406.234L75.4254 463.947Z" fill="white"/>
<path d="M75.4254 363.138L133.223 305.426L150.207 322.41L75.4254 397.191L0.729004 322.41L17.7133 305.426L75.4254 363.138Z" fill="white"/>
</svg>
