<svg width="90" height="90" viewBox="0 0 90 90" fill="none" xmlns="http://www.w3.org/2000/svg">
<mask id="mask0_1863_1463" style="mask-type:alpha" maskUnits="userSpaceOnUse" x="0" y="0" width="90" height="90">
<circle cx="45" cy="45" r="45" fill="white"/>
</mask>
<g mask="url(#mask0_1863_1463)">
<path d="M45.5 72.25C52.8598 72.25 59.9181 69.3264 65.1222 64.1222C70.3264 58.9181 73.25 51.8598 73.25 44.5C73.25 37.1402 70.3264 30.0819 65.1222 24.8778C59.9181 19.6737 52.8598 16.75 45.5 16.75C38.1402 16.75 31.0819 19.6737 25.8778 24.8778C20.6737 30.0819 17.75 37.1402 17.75 44.5C17.75 51.8598 20.6737 58.9181 25.8778 64.1222C31.0819 69.3264 38.1402 72.25 45.5 72.25ZM45.5 -11C46.42 -11 47.3023 -10.6345 47.9528 -9.98403C48.6033 -9.33351 48.9688 -8.45122 48.9688 -7.53125V6.34375C48.9688 7.26372 48.6033 8.14601 47.9528 8.79653C47.3023 9.44704 46.42 9.8125 45.5 9.8125C44.58 9.8125 43.6977 9.44704 43.0472 8.79653C42.3967 8.14601 42.0313 7.26372 42.0313 6.34375V-7.53125C42.0313 -8.45122 42.3967 -9.33351 43.0472 -9.98403C43.6977 -10.6345 44.58 -11 45.5 -11ZM45.5 79.1875C46.42 79.1875 47.3023 79.553 47.9528 80.2035C48.6033 80.854 48.9688 81.7363 48.9688 82.6563V96.5313C48.9688 97.4512 48.6033 98.3335 47.9528 98.984C47.3023 99.6345 46.42 100 45.5 100C44.58 100 43.6977 99.6345 43.0472 98.984C42.3967 98.3335 42.0313 97.4512 42.0313 96.5313V82.6563C42.0313 81.7363 42.3967 80.854 43.0472 80.2035C43.6977 79.553 44.58 79.1875 45.5 79.1875ZM101 44.5C101 45.42 100.635 46.3023 99.984 46.9528C99.3335 47.6033 98.4512 47.9688 97.5313 47.9688H83.6563C82.7363 47.9688 81.854 47.6033 81.2035 46.9528C80.553 46.3023 80.1875 45.42 80.1875 44.5C80.1875 43.58 80.553 42.6977 81.2035 42.0472C81.854 41.3967 82.7363 41.0313 83.6563 41.0313H97.5313C98.4512 41.0313 99.3335 41.3967 99.984 42.0472C100.635 42.6977 101 43.58 101 44.5ZM10.8125 44.5C10.8125 45.42 10.447 46.3023 9.79653 46.9528C9.14601 47.6033 8.26372 47.9688 7.34375 47.9688H-6.53125C-7.45122 47.9688 -8.33351 47.6033 -8.98403 46.9528C-9.63454 46.3023 -10 45.42 -10 44.5C-10 43.58 -9.63454 42.6977 -8.98403 42.0472C-8.33351 41.3967 -7.45122 41.0313 -6.53125 41.0313H7.34375C8.26372 41.0313 9.14601 41.3967 9.79653 42.0472C10.447 42.6977 10.8125 43.58 10.8125 44.5ZM84.7454 5.25456C85.3957 5.90505 85.761 6.78718 85.761 7.70697C85.761 8.62676 85.3957 9.50889 84.7454 10.1594L74.9358 19.9759C74.6133 20.298 74.2305 20.5534 73.8093 20.7275C73.3881 20.9016 72.9367 20.9911 72.481 20.9907C71.5605 20.9901 70.6779 20.6238 70.0275 19.9725C69.7055 19.65 69.4501 19.2672 69.276 18.846C69.1019 18.4248 69.0124 17.9734 69.0127 17.5176C69.0134 16.5971 69.3797 15.7146 70.031 15.0642L79.8406 5.25456C80.4911 4.60427 81.3732 4.23896 82.293 4.23896C83.2128 4.23896 84.0949 4.60427 84.7454 5.25456ZM20.969 69.031C21.6193 69.6815 21.9846 70.5636 21.9846 71.4834C21.9846 72.4032 21.6193 73.2853 20.969 73.9358L11.1594 83.7454C10.5052 84.3773 9.62895 84.7269 8.71945 84.719C7.80996 84.7111 6.93995 84.3463 6.29682 83.7032C5.65368 83.0601 5.28888 82.19 5.28097 81.2805C5.27307 80.3711 5.6227 79.4948 6.25456 78.8406L16.0642 69.031C16.7147 68.3807 17.5968 68.0154 18.5166 68.0154C19.4364 68.0154 20.3185 68.3807 20.969 69.031ZM84.7454 83.7454C84.0949 84.3957 83.2128 84.761 82.293 84.761C81.3732 84.761 80.4911 84.3957 79.8406 83.7454L70.031 73.9358C69.3991 73.2816 69.0495 72.4054 69.0574 71.4959C69.0653 70.5864 69.4301 69.7164 70.0732 69.0732C70.7164 68.4301 71.5864 68.0653 72.4959 68.0574C73.4054 68.0495 74.2816 68.3991 74.9358 69.031L84.7454 78.8406C85.3957 79.4911 85.761 80.3732 85.761 81.293C85.761 82.2128 85.3957 83.0949 84.7454 83.7454ZM20.969 19.9759C20.3185 20.6262 19.4364 20.9915 18.5166 20.9915C17.5968 20.9915 16.7147 20.6262 16.0642 19.9759L6.25456 10.1594C5.92326 9.83939 5.65901 9.45664 5.47721 9.03344C5.29542 8.61023 5.19973 8.15506 5.19573 7.69449C5.19172 7.23391 5.27949 6.77714 5.4539 6.35085C5.62831 5.92455 5.88588 5.53726 6.21157 5.21157C6.53726 4.88588 6.92455 4.62831 7.35085 4.4539C7.77714 4.27949 8.23391 4.19172 8.69449 4.19573C9.15506 4.19973 9.61023 4.29542 10.0334 4.47721C10.4566 4.65901 10.8394 4.92326 11.1594 5.25456L20.969 15.0642C21.292 15.3864 21.5483 15.7692 21.7232 16.1906C21.8981 16.612 21.9881 17.0638 21.9881 17.5201C21.9881 17.9763 21.8981 18.4281 21.7232 18.8495C21.5483 19.2709 21.292 19.6537 20.969 19.9759Z" fill="white"/>
</g>
</svg>
