<?xml version="1.0" encoding="UTF-8"?>
<svg id="Isolation_Mode" data-name="Isolation Mode" xmlns="http://www.w3.org/2000/svg" viewBox="0 0 433.66 70.09">
  <defs>
    <style>
      .cls-1 {
        fill: #3a3a3a;
      }

      .cls-1, .cls-2 {
        stroke-width: 0px;
      }

      .cls-2 {
        fill: #cc6868;
      }
    </style>
  </defs>
  <g>
    <path class="cls-1" d="m168.02,34.35c0-3.35.55-6.32,1.65-8.9,1.1-2.58,2.61-4.73,4.53-6.45s4.2-3.02,6.85-3.9c2.65-.88,5.54-1.32,8.67-1.32,3.75,0,7.16.64,10.22,1.92,3.07,1.28,5.44,3.29,7.11,6.02l1.52-6.62h8.67v38.78c0,2.34-.42,4.5-1.26,6.49-.84,1.99-2.21,3.69-4.1,5.13-1.9,1.43-4.39,2.56-7.48,3.38-3.09.82-6.91,1.22-11.45,1.22s-8.3-.3-11.38-.89c-3.09-.6-5.57-1.43-7.45-2.51-1.88-1.08-3.19-2.36-3.94-3.84-.75-1.48-1.04-3.12-.86-4.93l10.66-.33c-.04,1.41.98,2.61,3.08,3.61,2.1.99,5.37,1.47,9.83,1.42,2.47-.04,4.56-.26,6.25-.66,1.7-.4,3.07-.98,4.1-1.75,1.04-.77,1.79-1.7,2.25-2.78.46-1.08.69-2.33.69-3.74v-5.43c-1.85,2.34-4.24,4.03-7.15,5.06s-6.02,1.55-9.33,1.55c-2.87,0-5.62-.44-8.24-1.32-2.63-.88-4.93-2.18-6.92-3.91-1.99-1.72-3.57-3.86-4.77-6.42-1.19-2.56-1.79-5.51-1.79-8.87Zm24.49,12.24c1.54,0,3.12-.18,4.73-.53,1.61-.35,3.08-.9,4.4-1.65,1.32-.75,2.42-1.72,3.28-2.91s1.29-2.62,1.29-4.3v-5.69c0-1.63-.43-3.05-1.29-4.27-.86-1.21-1.95-2.19-3.28-2.95-1.32-.75-2.79-1.31-4.4-1.69-1.61-.37-3.19-.56-4.73-.56-1.85,0-3.6.25-5.23.76-1.63.51-3.06,1.27-4.27,2.28-1.21,1.02-2.17,2.29-2.88,3.84-.71,1.54-1.06,3.35-1.06,5.43s.35,3.87,1.06,5.39c.71,1.52,1.67,2.79,2.88,3.81,1.21,1.02,2.64,1.78,4.27,2.28,1.63.51,3.38.76,5.23.76Z"/>
    <path class="cls-1" d="m223.68,6.22c0-1.9.56-3.41,1.69-4.53,1.13-1.13,2.64-1.69,4.53-1.69s3.42.56,4.57,1.69c1.15,1.13,1.72,2.64,1.72,4.53s-.57,3.47-1.72,4.6c-1.15,1.13-2.67,1.69-4.57,1.69s-3.41-.56-4.53-1.69c-1.12-1.13-1.69-2.66-1.69-4.6Zm.73,48.64V15.09h11.05v39.77h-11.05Z"/>
    <path class="cls-1" d="m242.6,25.74c0-1.59.44-3.11,1.32-4.57.88-1.46,2.26-2.72,4.14-3.81,1.87-1.08,4.27-1.95,7.18-2.61,2.91-.66,6.4-.99,10.46-.99,4.37,0,8.07.31,11.12.93,3.04.62,5.53,1.49,7.44,2.61,1.92,1.12,3.31,2.49,4.17,4.1.86,1.61,1.27,3.43,1.22,5.46l-10.26.79c.22-1.81-.72-3.2-2.81-4.17-2.1-.97-5.62-1.46-10.56-1.46-2.29,0-4.24.14-5.82.43-1.59.29-2.88.65-3.87,1.09-.99.44-1.71.94-2.15,1.49-.44.55-.66,1.07-.66,1.56,0,.93.53,1.64,1.59,2.15,1.06.51,2.44.92,4.14,1.22,1.7.31,3.65.56,5.86.76,2.21.2,4.45.44,6.72.73,2.27.29,4.51.67,6.72,1.16,2.21.49,4.16,1.16,5.86,2.02,1.7.86,3.08,1.98,4.14,3.34,1.06,1.37,1.59,3.07,1.59,5.1,0,1.85-.46,3.57-1.39,5.16-.93,1.59-2.36,2.97-4.3,4.14-1.94,1.17-4.4,2.1-7.38,2.78s-6.52,1.03-10.62,1.03c-8.74,0-15.12-1.29-19.16-3.87-4.04-2.58-5.86-6.03-5.46-10.36l9.66-.66c-.18,2.25.98,3.92,3.47,5,2.49,1.08,6.28,1.62,11.35,1.62,2.38,0,4.4-.15,6.06-.46,1.65-.31,3-.72,4.04-1.22,1.04-.51,1.79-1.06,2.25-1.65.46-.6.69-1.16.69-1.69,0-.97-.53-1.73-1.59-2.28-1.06-.55-2.45-.99-4.17-1.32-1.72-.33-3.67-.61-5.86-.83-2.18-.22-4.43-.47-6.75-.76-2.32-.29-4.57-.68-6.75-1.19-2.18-.51-4.14-1.2-5.86-2.08-1.72-.88-3.11-2.02-4.17-3.41-1.06-1.39-1.59-3.14-1.59-5.26Z"/>
    <path class="cls-1" d="m318.45,13.77c3.75,0,7.13.42,10.13,1.26,3,.84,5.54,2.11,7.61,3.81,2.07,1.7,3.66,3.8,4.76,6.29,1.1,2.49,1.65,5.39,1.65,8.7v4.43h-37.39c.09,3.18,1.25,5.58,3.47,7.21,2.23,1.63,5.48,2.45,9.76,2.45,3.97,0,7.04-.53,9.2-1.59,2.16-1.06,3.35-2.25,3.57-3.57h11.05c-1.02,4.32-3.63,7.64-7.84,9.96-4.21,2.32-9.54,3.47-15.98,3.47-3.75,0-7.13-.44-10.13-1.32-3-.88-5.55-2.22-7.64-4-2.1-1.79-3.71-3.99-4.83-6.62-1.12-2.62-1.69-5.7-1.69-9.23s.56-6.56,1.69-9.23c1.13-2.67,2.74-4.89,4.83-6.65,2.09-1.76,4.64-3.1,7.64-4,3-.9,6.37-1.36,10.13-1.36Zm0,8.27c-4.54,0-7.87.81-9.96,2.42-2.1,1.61-3.19,3.81-3.28,6.58v.53h26.34v-1.32c0-2.56-1.11-4.57-3.34-6.02s-5.48-2.18-9.76-2.18Z"/>
    <path class="cls-1" d="m348.76,54.86V1.26h11.05v53.61h-11.05Z"/>
    <path class="cls-1" d="m367.95,54.86V1.26h11.05v53.61h-11.05Z"/>
    <path class="cls-1" d="m409.51,13.77c3.75,0,7.13.42,10.13,1.26,3,.84,5.54,2.11,7.61,3.81,2.07,1.7,3.66,3.8,4.76,6.29,1.1,2.49,1.65,5.39,1.65,8.7v4.43h-37.39c.09,3.18,1.25,5.58,3.47,7.21,2.23,1.63,5.48,2.45,9.76,2.45,3.97,0,7.04-.53,9.2-1.59,2.16-1.06,3.35-2.25,3.57-3.57h11.05c-1.02,4.32-3.63,7.64-7.84,9.96-4.21,2.32-9.54,3.47-15.98,3.47-3.75,0-7.13-.44-10.13-1.32-3-.88-5.55-2.22-7.64-4-2.1-1.79-3.71-3.99-4.83-6.62-1.12-2.62-1.69-5.7-1.69-9.23s.56-6.56,1.69-9.23c1.13-2.67,2.74-4.89,4.83-6.65,2.09-1.76,4.64-3.1,7.64-4,3-.9,6.37-1.36,10.13-1.36Zm0,8.27c-4.54,0-7.87.81-9.96,2.42-2.1,1.61-3.19,3.81-3.28,6.58v.53h26.34v-1.32c0-2.56-1.11-4.57-3.34-6.02s-5.48-2.18-9.76-2.18Z"/>
  </g>
  <g>
    <path class="cls-2" d="m43.77,48.24v12.31L0,41.58v-10.53L43.77,12.08v12.4l-30.5,11.75,30.5,12.01Z"/>
    <path class="cls-2" d="m95.2,24.14v-12.58l44.71,19.38v10.75l-44.71,19.38v-12.67l31.15-12-31.15-12.27Z"/>
    <path class="cls-2" d="m82.37,11.48l-14.01,51.02c-.47,1.68-.88,3.01-1.23,3.98-.35.97-.88,1.73-1.6,2.28-.72.54-1.76.82-3.13.82-3.4,0-5.1-1.3-5.1-3.89,0-.68.33-2.37,1-5.09l13.96-51.02c.73-2.71,1.43-4.57,2.1-5.58.67-1,1.97-1.5,3.9-1.5,1.67,0,2.94.35,3.83,1.06.88.71,1.33,1.68,1.33,2.92,0,.91-.35,2.58-1.05,5Z"/>
  </g>
</svg>