<svg width="72" height="33" viewBox="0 0 72 33" fill="none" xmlns="http://www.w3.org/2000/svg">
<path d="M14.6878 9.94129L4.33307 15.9759L14.6878 21.8835L12.3939 25.4726L0 17.7863V14.1973L12.4576 6.47931L14.6878 9.94129Z" fill="#DA9F59"/>
<path d="M17.7978 27.6959L31.1793 0L35.0663 1.81039L21.7166 29.5063L17.7978 27.6959Z" fill="#DA9F59"/>
<path d="M54.3934 10.0683C53.2889 10.513 51.664 10.7353 49.5187 10.7353C50.6232 11.2223 51.441 11.8046 51.972 12.4822C52.5242 13.1598 52.8004 14.0279 52.8004 15.0866C52.8004 16.1665 52.503 17.1405 51.9083 18.0087C51.3135 18.8556 50.4745 19.5226 49.3913 20.0096C48.308 20.4966 47.0548 20.7401 45.6317 20.7401C44.9307 20.7401 44.2723 20.6766 43.6563 20.5496C43.4864 20.6343 43.3483 20.7719 43.2421 20.9625C43.1572 21.1319 43.1147 21.3118 43.1147 21.5024C43.1147 21.82 43.2315 22.0741 43.4651 22.2647C43.72 22.4341 44.2192 22.5188 44.9626 22.5188H47.7664C49.0408 22.5188 50.1665 22.7305 51.1436 23.154C52.1207 23.5775 52.8747 24.1598 53.4057 24.9009C53.9367 25.642 54.2022 26.4783 54.2022 27.41C54.2022 29.1675 53.427 30.5332 51.8764 31.5072C50.3471 32.5024 48.1062 33 45.1538 33C43.051 33 41.3942 32.7777 40.1835 32.333C38.994 31.9095 38.155 31.3061 37.6665 30.5226C37.1992 29.7392 36.9655 28.7546 36.9655 27.5688H41.426C41.426 28.0982 41.5216 28.5111 41.7128 28.8075C41.9252 29.1039 42.3075 29.3263 42.8598 29.4745C43.412 29.6227 44.2192 29.6968 45.2812 29.6968C46.768 29.6968 47.7876 29.5274 48.3398 29.1886C48.9133 28.8499 49.2001 28.3734 49.2001 27.7594C49.2001 27.2512 48.9877 26.8383 48.5629 26.5207C48.1593 26.2243 47.5539 26.076 46.7468 26.076H44.0705C42.3288 26.076 41.0225 25.769 40.1516 25.155C39.2808 24.5197 38.8453 23.7151 38.8453 22.7411C38.8453 22.1059 39.0046 21.513 39.3232 20.9625C39.6631 20.3908 40.1304 19.9143 40.7251 19.5332C39.6631 18.9615 38.8984 18.2945 38.4311 17.5322C37.9638 16.7488 37.7302 15.8065 37.7302 14.7055C37.7302 13.4562 38.0488 12.3657 38.686 11.4341C39.3232 10.5024 40.2153 9.79307 41.3623 9.30606C42.5093 8.79788 43.8156 8.54379 45.2812 8.54379C46.9805 8.58614 48.4248 8.42733 49.6143 8.06737C50.8038 7.68624 52.0145 7.12512 53.2464 6.38402L54.3934 10.0683ZM45.4087 11.8152C44.6015 11.8152 43.9643 12.0693 43.497 12.5775C43.051 13.0857 42.8279 13.7738 42.8279 14.642C42.8279 15.5525 43.0616 16.2618 43.5289 16.77C43.9962 17.2782 44.6228 17.5322 45.4087 17.5322C46.237 17.5322 46.8743 17.2887 47.3203 16.8017C47.7664 16.2936 47.9894 15.5525 47.9894 14.5784C47.9894 12.7363 47.1291 11.8152 45.4087 11.8152Z" fill="#DA9F59"/>
<path d="M72 14.1655V17.7863L59.5743 25.4726L57.3122 22.0423L67.6351 15.9759L57.3122 10.1001L59.5424 6.47931L72 14.1655Z" fill="#DA9F59"/>
</svg>
