<?xml version="1.0" encoding="UTF-8"?>
<svg id="Isolation_Mode" data-name="Isolation Mode" xmlns="http://www.w3.org/2000/svg" viewBox="0 0 139.91 67.09">
  <defs>
    <style>
      .cls-1 {
        fill: #cc6868;
        stroke-width: 0px;
      }
    </style>
  </defs>
  <path class="cls-1" d="m43.77,45.74v12.31L0,39.08v-10.53L43.77,9.58v12.4l-30.5,11.75,30.5,12.01Z"/>
  <path class="cls-1" d="m95.2,21.64v-12.58l44.71,19.38v10.75l-44.71,19.38v-12.67l31.15-12-31.15-12.27Z"/>
  <path class="cls-1" d="m82.37,8.98l-14.01,51.02c-.47,1.68-.88,3.01-1.23,3.98-.35.97-.88,1.73-1.6,2.28-.72.54-1.76.82-3.13.82-3.4,0-5.1-1.3-5.1-3.89,0-.68.33-2.37,1-5.09l13.96-51.02c.73-2.71,1.43-4.57,2.1-5.58.67-1,1.97-1.5,3.9-1.5,1.67,0,2.94.35,3.83,1.06.88.71,1.33,1.68,1.33,2.92,0,.91-.35,2.58-1.05,5Z"/>
</svg>