<svg width="298" height="34" viewBox="0 0 298 34" fill="none" xmlns="http://www.w3.org/2000/svg">
<path d="M14.048 9.46401L3.072 16.088L14.048 22.68L12.288 25.272L0 17.624V14.52L12.384 6.87201L14.048 9.46401Z" fill="#DA9F59"/>
<path d="M18.0035 28.216L31.5715 0.12001L34.3875 1.43201L20.8515 29.496L18.0035 28.216Z" fill="#DA9F59"/>
<path d="M53.799 10.04C53.1803 10.2533 52.4763 10.4027 51.687 10.488C50.919 10.552 49.991 10.584 48.903 10.584C49.927 11.0533 50.695 11.64 51.207 12.344C51.719 13.048 51.975 13.9013 51.975 14.904C51.975 16.0133 51.6977 16.9947 51.143 17.848C50.6097 18.7013 49.8417 19.3733 48.839 19.864C47.8363 20.3547 46.6523 20.6 45.287 20.6C44.327 20.6 43.559 20.504 42.983 20.312C42.7483 20.4827 42.567 20.696 42.439 20.952C42.311 21.1867 42.247 21.4427 42.247 21.72C42.247 22.5733 42.9403 23 44.327 23H47.271C48.4657 23 49.5323 23.2027 50.471 23.608C51.4097 24.0133 52.135 24.5787 52.647 25.304C53.1803 26.008 53.447 26.808 53.447 27.704C53.447 29.3893 52.7217 30.6907 51.271 31.608C49.8203 32.5467 47.7297 33.016 44.999 33.016C43.1003 33.016 41.5963 32.8133 40.487 32.408C39.399 32.024 38.6203 31.448 38.151 30.68C37.703 29.9333 37.479 28.9627 37.479 27.768H40.679C40.679 28.408 40.7963 28.9093 41.031 29.272C41.287 29.656 41.7243 29.9333 42.343 30.104C42.9617 30.296 43.8577 30.392 45.031 30.392C46.7377 30.392 47.9643 30.1787 48.711 29.752C49.4577 29.3467 49.831 28.7387 49.831 27.928C49.831 27.2453 49.5323 26.712 48.935 26.328C48.359 25.9653 47.5697 25.784 46.567 25.784H43.655C42.1403 25.784 40.9883 25.4747 40.199 24.856C39.431 24.2373 39.047 23.4587 39.047 22.52C39.047 21.944 39.207 21.3893 39.527 20.856C39.847 20.3227 40.3057 19.864 40.903 19.48C39.9003 18.9467 39.1643 18.3067 38.695 17.56C38.247 16.792 38.023 15.8533 38.023 14.744C38.023 13.5707 38.3217 12.536 38.919 11.64C39.5163 10.7227 40.3483 10.0187 41.415 9.52801C42.4817 9.01601 43.6977 8.76001 45.063 8.76001C46.8977 8.78134 48.3483 8.65334 49.415 8.37601C50.503 8.09868 51.655 7.66134 52.871 7.06401L53.799 10.04ZM45.095 11.256C43.9643 11.256 43.111 11.576 42.535 12.216C41.959 12.8347 41.671 13.6773 41.671 14.744C41.671 15.832 41.959 16.696 42.535 17.336C43.1323 17.9547 43.9963 18.264 45.127 18.264C46.1937 18.264 47.0043 17.9547 47.559 17.336C48.1137 16.7173 48.391 15.832 48.391 14.68C48.391 12.3973 47.2923 11.256 45.095 11.256Z" fill="#DA9F59"/>
<path d="M71.6105 14.52V17.624L59.3225 25.272L57.5625 22.712L68.5065 16.088L57.5625 9.52801L59.2265 6.87201L71.6105 14.52Z" fill="#DA9F59"/>
<path d="M85.7557 14.7759C85.7557 13.4868 85.9978 12.2837 86.4822 11.1665C86.9666 10.0415 87.6736 9.06495 88.6033 8.23682C89.533 7.4087 90.6736 6.75636 92.0252 6.27979C93.3846 5.80323 94.9392 5.56495 96.6892 5.56495C97.3221 5.56495 97.9549 5.60011 98.5877 5.67042C99.2283 5.73292 99.8572 5.83448 100.474 5.97511C101.099 6.11573 101.705 6.29542 102.291 6.51417C102.885 6.72511 103.447 6.97901 103.978 7.27589L102.267 10.0884C101.947 9.90089 101.584 9.73292 101.178 9.58448C100.771 9.42823 100.334 9.29932 99.865 9.19776C99.4041 9.08839 98.9236 9.00636 98.4236 8.95167C97.9314 8.89698 97.4353 8.86964 96.9353 8.86964C95.7791 8.86964 94.7478 9.01807 93.8416 9.31495C92.9353 9.60401 92.1697 10.0142 91.5447 10.5454C90.9197 11.0689 90.4432 11.6978 90.115 12.4321C89.7869 13.1665 89.6228 13.9712 89.6228 14.8462C89.6228 15.7524 89.7947 16.5845 90.1385 17.3423C90.4822 18.1001 90.9705 18.7524 91.6033 19.2993C92.2361 19.8462 93.0017 20.2759 93.9002 20.5884C94.7986 20.8931 95.8025 21.0454 96.9119 21.0454C97.7947 21.0454 98.6033 20.9478 99.3377 20.7524C100.072 20.5493 100.713 20.2642 101.26 19.897C101.806 19.5298 102.252 19.0884 102.595 18.5728C102.939 18.0493 103.166 17.4634 103.275 16.8149H96.8767V13.7564H106.615V13.7681L106.627 13.7564C106.822 14.6939 106.881 15.6079 106.803 16.4985C106.732 17.3814 106.529 18.2173 106.193 19.0064C105.865 19.7876 105.412 20.5064 104.834 21.1626C104.256 21.8189 103.564 22.3853 102.76 22.8618C101.955 23.3306 101.041 23.6978 100.017 23.9634C98.9939 24.2212 97.8728 24.3501 96.6541 24.3501C94.951 24.3501 93.4236 24.1001 92.0721 23.6001C90.7283 23.1001 89.5877 22.4165 88.6502 21.5493C87.7127 20.6821 86.9939 19.6665 86.4939 18.5024C86.0017 17.3384 85.7557 16.0962 85.7557 14.7759Z" fill="white"/>
<path d="M111.324 8.38917C110.98 8.38917 110.668 8.34229 110.387 8.24854C110.113 8.14698 109.879 8.01417 109.683 7.85011C109.488 7.67823 109.336 7.48292 109.226 7.26417C109.125 7.03761 109.074 6.79932 109.074 6.54932C109.074 6.29151 109.125 6.05323 109.226 5.83448C109.336 5.60792 109.488 5.41261 109.683 5.24854C109.879 5.08448 110.113 4.95557 110.387 4.86182C110.668 4.76026 110.98 4.70948 111.324 4.70948C111.676 4.70948 111.988 4.76026 112.262 4.86182C112.543 4.95557 112.781 5.08448 112.976 5.24854C113.172 5.41261 113.32 5.60792 113.422 5.83448C113.531 6.05323 113.586 6.29151 113.586 6.54932C113.586 6.79932 113.531 7.03761 113.422 7.26417C113.32 7.48292 113.172 7.67823 112.976 7.85011C112.781 8.01417 112.543 8.14698 112.262 8.24854C111.988 8.34229 111.676 8.38917 111.324 8.38917ZM109.59 10.2759H113.058V24.104H109.59V10.2759Z" fill="white"/>
<path d="M116.982 19.8618C117.92 20.4243 118.951 20.8384 120.076 21.104C121.201 21.3696 122.353 21.5024 123.533 21.5024C124.33 21.5024 124.994 21.4478 125.525 21.3384C126.057 21.229 126.482 21.0884 126.803 20.9165C127.123 20.7446 127.35 20.5493 127.482 20.3306C127.615 20.1118 127.682 19.8892 127.682 19.6626C127.682 19.3345 127.537 19.0532 127.248 18.8189C126.967 18.5845 126.498 18.4673 125.842 18.4673C125.537 18.4673 125.209 18.4868 124.857 18.5259C124.506 18.5649 124.135 18.6079 123.744 18.6548C123.361 18.6939 122.959 18.7329 122.537 18.772C122.123 18.811 121.701 18.8306 121.271 18.8306C120.334 18.8306 119.533 18.729 118.869 18.5259C118.213 18.3228 117.678 18.0454 117.264 17.6939C116.85 17.3423 116.549 16.9282 116.361 16.4517C116.174 15.9673 116.08 15.4478 116.08 14.8931C116.08 14.1899 116.244 13.5415 116.572 12.9478C116.9 12.354 117.369 11.8423 117.978 11.4126C118.588 10.9751 119.322 10.6353 120.182 10.3931C121.049 10.1509 122.014 10.0298 123.076 10.0298C123.631 10.0298 124.209 10.0649 124.811 10.1353C125.42 10.1978 126.018 10.2837 126.603 10.3931C127.189 10.5024 127.752 10.6314 128.291 10.7798C128.83 10.9204 129.307 11.0728 129.721 11.2368L128.631 13.9321C127.748 13.604 126.865 13.3462 125.982 13.1587C125.107 12.9634 124.205 12.8657 123.275 12.8657C122.627 12.8657 122.076 12.9165 121.623 13.0181C121.178 13.1118 120.814 13.2407 120.533 13.4048C120.252 13.561 120.045 13.7446 119.912 13.9556C119.787 14.1587 119.725 14.3735 119.725 14.6001C119.725 14.7642 119.756 14.9126 119.818 15.0454C119.889 15.1782 119.998 15.2954 120.146 15.397C120.303 15.4907 120.502 15.5649 120.744 15.6196C120.994 15.6665 121.299 15.6899 121.658 15.6899C121.986 15.6899 122.334 15.6704 122.701 15.6314C123.068 15.5923 123.451 15.5532 123.85 15.5142C124.248 15.4673 124.658 15.4243 125.08 15.3853C125.51 15.3462 125.947 15.3267 126.393 15.3267C127.221 15.3267 127.943 15.4243 128.561 15.6196C129.186 15.8149 129.701 16.0884 130.107 16.4399C130.514 16.7915 130.818 17.2056 131.021 17.6821C131.225 18.1587 131.326 18.6782 131.326 19.2407C131.326 19.9673 131.158 20.6431 130.822 21.2681C130.486 21.8931 129.986 22.436 129.322 22.897C128.658 23.3501 127.83 23.7056 126.838 23.9634C125.853 24.2212 124.713 24.3501 123.416 24.3501C122.619 24.3501 121.85 24.2993 121.107 24.1978C120.365 24.104 119.658 23.9751 118.986 23.811C118.314 23.6392 117.682 23.4399 117.088 23.2134C116.502 22.9868 115.967 22.7446 115.482 22.4868L116.982 19.8618Z" fill="white"/>
<path d="M132.719 17.1431C132.719 16.2056 132.91 15.311 133.293 14.4595C133.676 13.6001 134.227 12.8423 134.945 12.186C135.664 11.5298 136.543 11.0064 137.582 10.6157C138.629 10.2251 139.816 10.0298 141.145 10.0298C142.465 10.0298 143.652 10.229 144.707 10.6274C145.77 11.0181 146.668 11.5571 147.402 12.2446C148.145 12.9321 148.711 13.7407 149.102 14.6704C149.5 15.6001 149.699 16.5962 149.699 17.6587C149.699 17.7915 149.695 17.936 149.688 18.0923C149.688 18.2407 149.68 18.3774 149.664 18.5024H136.586C136.734 18.9165 136.973 19.2954 137.301 19.6392C137.637 19.9829 138.055 20.2798 138.555 20.5298C139.055 20.7798 139.633 20.9751 140.289 21.1157C140.945 21.2485 141.672 21.3149 142.469 21.3149C143.266 21.3149 144.059 21.2329 144.848 21.0689C145.637 20.897 146.391 20.6821 147.109 20.4243L148.281 23.0728C147.828 23.2837 147.367 23.4712 146.898 23.6353C146.438 23.7915 145.953 23.9243 145.445 24.0337C144.945 24.1353 144.418 24.2134 143.863 24.2681C143.316 24.3228 142.738 24.3501 142.129 24.3501C140.574 24.3501 139.211 24.1626 138.039 23.7876C136.867 23.4126 135.887 22.9009 135.098 22.2524C134.309 21.604 133.715 20.8423 133.316 19.9673C132.918 19.0923 132.719 18.1509 132.719 17.1431ZM146.02 15.7954C145.895 15.4126 145.699 15.0571 145.434 14.729C145.176 14.3931 144.852 14.104 144.461 13.8618C144.07 13.6118 143.617 13.4165 143.102 13.2759C142.586 13.1353 142.02 13.0649 141.402 13.0649C140.746 13.0649 140.148 13.1392 139.609 13.2876C139.07 13.436 138.598 13.6353 138.191 13.8853C137.785 14.1353 137.445 14.4243 137.172 14.7524C136.906 15.0806 136.711 15.4282 136.586 15.7954H146.02Z" fill="white"/>
<path d="M152.451 4.66261H155.92V24.104H152.451V4.66261Z" fill="white"/>
<path d="M159.387 4.66261H162.856V24.104H159.387V4.66261Z" fill="white"/>
<path d="M165.573 17.1431C165.573 16.2056 165.764 15.311 166.147 14.4595C166.53 13.6001 167.08 12.8423 167.799 12.186C168.518 11.5298 169.397 11.0064 170.436 10.6157C171.483 10.2251 172.67 10.0298 173.998 10.0298C175.319 10.0298 176.506 10.229 177.561 10.6274C178.623 11.0181 179.522 11.5571 180.256 12.2446C180.998 12.9321 181.565 13.7407 181.955 14.6704C182.354 15.6001 182.553 16.5962 182.553 17.6587C182.553 17.7915 182.549 17.936 182.541 18.0923C182.541 18.2407 182.533 18.3774 182.518 18.5024H169.44C169.588 18.9165 169.826 19.2954 170.155 19.6392C170.49 19.9829 170.908 20.2798 171.408 20.5298C171.908 20.7798 172.487 20.9751 173.143 21.1157C173.799 21.2485 174.526 21.3149 175.323 21.3149C176.119 21.3149 176.912 21.2329 177.701 21.0689C178.49 20.897 179.244 20.6821 179.963 20.4243L181.135 23.0728C180.682 23.2837 180.221 23.4712 179.752 23.6353C179.291 23.7915 178.807 23.9243 178.299 24.0337C177.799 24.1353 177.272 24.2134 176.717 24.2681C176.17 24.3228 175.592 24.3501 174.983 24.3501C173.428 24.3501 172.065 24.1626 170.893 23.7876C169.721 23.4126 168.74 22.9009 167.951 22.2524C167.162 21.604 166.569 20.8423 166.17 19.9673C165.772 19.0923 165.573 18.1509 165.573 17.1431ZM178.873 15.7954C178.748 15.4126 178.553 15.0571 178.287 14.729C178.03 14.3931 177.705 14.104 177.315 13.8618C176.924 13.6118 176.471 13.4165 175.955 13.2759C175.44 13.1353 174.873 13.0649 174.256 13.0649C173.6 13.0649 173.002 13.1392 172.463 13.2876C171.924 13.436 171.451 13.6353 171.045 13.8853C170.639 14.1353 170.299 14.4243 170.026 14.7524C169.76 15.0806 169.565 15.4282 169.44 15.7954H178.873Z" fill="white"/>
<path d="M193.389 18.6548C194.053 19.0298 194.725 19.3696 195.405 19.6743C196.092 19.9712 196.803 20.2251 197.538 20.436C198.272 20.6392 199.041 20.7954 199.846 20.9048C200.659 21.0142 201.522 21.0689 202.436 21.0689C203.538 21.0689 204.475 20.9985 205.248 20.8579C206.022 20.7095 206.651 20.5103 207.135 20.2603C207.627 20.0024 207.983 19.6978 208.202 19.3462C208.428 18.9946 208.541 18.6118 208.541 18.1978C208.541 17.5337 208.264 17.0103 207.709 16.6274C207.155 16.2368 206.299 16.0415 205.143 16.0415C204.635 16.0415 204.1 16.0767 203.538 16.147C202.975 16.2095 202.405 16.2798 201.827 16.3579C201.256 16.436 200.69 16.5103 200.127 16.5806C199.573 16.6431 199.049 16.6743 198.557 16.6743C197.737 16.6743 196.948 16.5689 196.19 16.3579C195.44 16.147 194.772 15.8306 194.186 15.4087C193.608 14.9868 193.147 14.4595 192.803 13.8267C192.459 13.1939 192.288 12.4556 192.288 11.6118C192.288 11.1118 192.354 10.6157 192.487 10.1235C192.627 9.63136 192.846 9.16261 193.143 8.71729C193.448 8.26417 193.838 7.8462 194.315 7.46339C194.791 7.07276 195.366 6.73682 196.038 6.45557C196.717 6.17432 197.498 5.95557 198.381 5.79932C199.272 5.63526 200.284 5.55323 201.416 5.55323C202.237 5.55323 203.061 5.60011 203.889 5.69386C204.717 5.77979 205.522 5.90479 206.303 6.06886C207.092 6.23292 207.85 6.43214 208.577 6.66651C209.303 6.89307 209.979 7.14698 210.604 7.42823L208.975 10.4282C208.459 10.2017 207.905 9.99464 207.311 9.80714C206.717 9.61182 206.096 9.44386 205.448 9.30323C204.799 9.16261 204.127 9.05323 203.432 8.97511C202.745 8.88917 202.041 8.8462 201.323 8.8462C200.299 8.8462 199.456 8.92042 198.791 9.06886C198.135 9.21729 197.612 9.4087 197.221 9.64307C196.831 9.86964 196.557 10.1274 196.401 10.4165C196.252 10.6978 196.178 10.979 196.178 11.2603C196.178 11.8071 196.424 12.2564 196.916 12.6079C197.409 12.9517 198.159 13.1235 199.166 13.1235C199.573 13.1235 200.038 13.0962 200.561 13.0415C201.092 12.979 201.647 12.9126 202.225 12.8423C202.811 12.772 203.405 12.7095 204.006 12.6548C204.616 12.5923 205.206 12.561 205.776 12.561C206.854 12.561 207.807 12.6821 208.635 12.9243C209.471 13.1665 210.17 13.5142 210.733 13.9673C211.295 14.4126 211.721 14.9556 212.01 15.5962C212.299 16.229 212.444 16.9399 212.444 17.729C212.444 18.7837 212.198 19.7251 211.706 20.5532C211.221 21.3735 210.526 22.0689 209.62 22.6392C208.721 23.2017 207.635 23.6314 206.362 23.9282C205.088 24.2173 203.67 24.3618 202.108 24.3618C201.077 24.3618 200.069 24.2954 199.084 24.1626C198.1 24.0376 197.155 23.8579 196.248 23.6235C195.35 23.3814 194.491 23.0962 193.67 22.7681C192.858 22.4321 192.104 22.0649 191.409 21.6665L193.389 18.6548Z" fill="white"/>
<path d="M214.364 19.7446C214.364 19.0806 214.508 18.4751 214.797 17.9282C215.086 17.3814 215.52 16.9126 216.098 16.522C216.676 16.1235 217.395 15.8189 218.254 15.6079C219.122 15.3892 220.129 15.2798 221.278 15.2798C222.129 15.2798 223.024 15.3423 223.961 15.4673C224.907 15.5923 225.879 15.7837 226.879 16.0415C226.84 15.604 226.708 15.2017 226.481 14.8345C226.254 14.4595 225.938 14.1392 225.532 13.8735C225.133 13.6001 224.649 13.3892 224.079 13.2407C223.516 13.0923 222.876 13.0181 222.157 13.0181C221.766 13.0181 221.336 13.0415 220.868 13.0884C220.399 13.1353 219.915 13.2056 219.415 13.2993C218.915 13.3931 218.418 13.5103 217.926 13.6509C217.442 13.7915 216.989 13.9595 216.567 14.1548L215.512 11.3071C216.036 11.1196 216.594 10.9478 217.188 10.7915C217.79 10.6353 218.403 10.5024 219.028 10.3931C219.653 10.2759 220.278 10.186 220.903 10.1235C221.528 10.061 222.133 10.0298 222.719 10.0298C225.305 10.0298 227.227 10.6899 228.485 12.0103C229.743 13.3306 230.372 15.354 230.372 18.0806V24.104H226.903V22.8032C226.543 23.0142 226.149 23.2134 225.719 23.4009C225.297 23.5884 224.836 23.7524 224.336 23.8931C223.836 24.0337 223.297 24.1431 222.719 24.2212C222.149 24.3071 221.543 24.3501 220.903 24.3501C219.825 24.3501 218.876 24.2329 218.055 23.9985C217.243 23.7642 216.563 23.4399 216.016 23.0259C215.469 22.6118 215.055 22.1274 214.774 21.5728C214.501 21.0103 214.364 20.4009 214.364 19.7446ZM218.02 19.6274C218.02 19.854 218.079 20.0728 218.196 20.2837C218.313 20.4868 218.501 20.6704 218.758 20.8345C219.016 20.9907 219.344 21.1196 219.743 21.2212C220.149 21.3149 220.637 21.3618 221.208 21.3618C221.817 21.3618 222.407 21.3071 222.977 21.1978C223.547 21.0884 224.079 20.9439 224.571 20.7642C225.063 20.5845 225.508 20.3774 225.907 20.1431C226.305 19.9087 226.637 19.6665 226.903 19.4165V18.8071C226.372 18.6587 225.844 18.5337 225.321 18.4321C224.805 18.3306 224.309 18.2524 223.833 18.1978C223.364 18.1353 222.918 18.0923 222.497 18.0689C222.083 18.0454 221.719 18.0337 221.407 18.0337C220.758 18.0337 220.219 18.0767 219.79 18.1626C219.36 18.2485 219.012 18.3657 218.747 18.5142C218.481 18.6548 218.293 18.8228 218.184 19.0181C218.075 19.2134 218.02 19.4165 218.02 19.6274Z" fill="white"/>
<path d="M233.885 10.2759H237.354V11.4478C238.276 10.9243 239.155 10.5571 239.991 10.3462C240.835 10.1353 241.659 10.0298 242.463 10.0298C243.518 10.0298 244.495 10.186 245.393 10.4985C246.292 10.8032 247.069 11.2603 247.725 11.8696C248.381 12.479 248.893 13.2407 249.26 14.1548C249.635 15.061 249.823 16.1118 249.823 17.3071V24.104H246.366V17.8696C246.366 17.1118 246.256 16.436 246.038 15.8423C245.827 15.2407 245.518 14.7368 245.112 14.3306C244.713 13.9165 244.225 13.604 243.647 13.3931C243.077 13.1743 242.436 13.0649 241.725 13.0649C241.35 13.0649 240.963 13.104 240.565 13.1821C240.174 13.2603 239.788 13.3735 239.405 13.522C239.03 13.6626 238.667 13.8423 238.315 14.061C237.963 14.272 237.643 14.5142 237.354 14.7876V24.104H233.885V10.2759Z" fill="white"/>
<path d="M255.094 12.8774H251.755V10.2759H255.094V5.97511H258.563V10.2759H261.903V12.8774H258.563V24.104H255.094V12.8774Z" fill="white"/>
<path d="M263.073 17.1899C263.073 16.1978 263.272 15.2681 263.671 14.4009C264.077 13.5337 264.651 12.7759 265.393 12.1274C266.143 11.479 267.046 10.9673 268.1 10.5923C269.163 10.2173 270.354 10.0298 271.675 10.0298C272.995 10.0298 274.182 10.2173 275.237 10.5923C276.3 10.9673 277.202 11.479 277.944 12.1274C278.694 12.7759 279.268 13.5337 279.667 14.4009C280.073 15.2681 280.276 16.1978 280.276 17.1899C280.276 18.1821 280.073 19.1118 279.667 19.979C279.268 20.8462 278.694 21.604 277.944 22.2524C277.202 22.9009 276.3 23.4126 275.237 23.7876C274.182 24.1626 272.995 24.3501 271.675 24.3501C270.354 24.3501 269.163 24.1626 268.1 23.7876C267.046 23.4126 266.143 22.9009 265.393 22.2524C264.651 21.604 264.077 20.8462 263.671 19.979C263.272 19.1118 263.073 18.1821 263.073 17.1899ZM266.718 17.1899C266.718 17.7446 266.827 18.272 267.046 18.772C267.272 19.2642 267.596 19.7017 268.018 20.0845C268.448 20.4595 268.968 20.7603 269.577 20.9868C270.194 21.2056 270.893 21.3149 271.675 21.3149C272.456 21.3149 273.151 21.2056 273.76 20.9868C274.378 20.7603 274.897 20.4595 275.319 20.0845C275.749 19.7017 276.073 19.2642 276.292 18.772C276.518 18.272 276.632 17.7446 276.632 17.1899C276.632 16.6353 276.518 16.1079 276.292 15.6079C276.073 15.1079 275.749 14.6704 275.319 14.2954C274.897 13.9126 274.378 13.6118 273.76 13.3931C273.151 13.1665 272.456 13.0532 271.675 13.0532C270.893 13.0532 270.194 13.1665 269.577 13.3931C268.968 13.6118 268.448 13.9126 268.018 14.2954C267.596 14.6704 267.272 15.1079 267.046 15.6079C266.827 16.1079 266.718 16.6353 266.718 17.1899Z" fill="white"/>
<path d="M283.251 19.8618C284.188 20.4243 285.22 20.8384 286.345 21.104C287.47 21.3696 288.622 21.5024 289.802 21.5024C290.598 21.5024 291.263 21.4478 291.794 21.3384C292.325 21.229 292.751 21.0884 293.071 20.9165C293.391 20.7446 293.618 20.5493 293.751 20.3306C293.884 20.1118 293.95 19.8892 293.95 19.6626C293.95 19.3345 293.806 19.0532 293.516 18.8189C293.235 18.5845 292.766 18.4673 292.11 18.4673C291.806 18.4673 291.477 18.4868 291.126 18.5259C290.774 18.5649 290.403 18.6079 290.013 18.6548C289.63 18.6939 289.227 18.7329 288.806 18.772C288.391 18.811 287.97 18.8306 287.54 18.8306C286.602 18.8306 285.802 18.729 285.138 18.5259C284.481 18.3228 283.946 18.0454 283.532 17.6939C283.118 17.3423 282.817 16.9282 282.63 16.4517C282.442 15.9673 282.348 15.4478 282.348 14.8931C282.348 14.1899 282.513 13.5415 282.841 12.9478C283.169 12.354 283.638 11.8423 284.247 11.4126C284.856 10.9751 285.591 10.6353 286.45 10.3931C287.317 10.1509 288.282 10.0298 289.345 10.0298C289.899 10.0298 290.477 10.0649 291.079 10.1353C291.688 10.1978 292.286 10.2837 292.872 10.3931C293.458 10.5024 294.02 10.6314 294.559 10.7798C295.098 10.9204 295.575 11.0728 295.989 11.2368L294.899 13.9321C294.016 13.604 293.134 13.3462 292.251 13.1587C291.376 12.9634 290.473 12.8657 289.544 12.8657C288.895 12.8657 288.345 12.9165 287.891 13.0181C287.446 13.1118 287.083 13.2407 286.802 13.4048C286.52 13.561 286.313 13.7446 286.181 13.9556C286.056 14.1587 285.993 14.3735 285.993 14.6001C285.993 14.7642 286.024 14.9126 286.087 15.0454C286.157 15.1782 286.266 15.2954 286.415 15.397C286.571 15.4907 286.77 15.5649 287.013 15.6196C287.263 15.6665 287.567 15.6899 287.927 15.6899C288.255 15.6899 288.602 15.6704 288.97 15.6314C289.337 15.5923 289.72 15.5532 290.118 15.5142C290.516 15.4673 290.927 15.4243 291.348 15.3853C291.778 15.3462 292.216 15.3267 292.661 15.3267C293.489 15.3267 294.212 15.4243 294.829 15.6196C295.454 15.8149 295.97 16.0884 296.376 16.4399C296.782 16.7915 297.087 17.2056 297.29 17.6821C297.493 18.1587 297.595 18.6782 297.595 19.2407C297.595 19.9673 297.427 20.6431 297.091 21.2681C296.755 21.8931 296.255 22.436 295.591 22.897C294.927 23.3501 294.098 23.7056 293.106 23.9634C292.122 24.2212 290.981 24.3501 289.684 24.3501C288.888 24.3501 288.118 24.2993 287.376 24.1978C286.634 24.104 285.927 23.9751 285.255 23.811C284.583 23.6392 283.95 23.4399 283.356 23.2134C282.77 22.9868 282.235 22.7446 281.751 22.4868L283.251 19.8618Z" fill="white"/>
</svg>
