<?xml version="1.0" encoding="UTF-8"?>
<svg id="Layer_2" data-name="Layer 2" xmlns="http://www.w3.org/2000/svg" viewBox="0 0 606.96 115.97">
  <defs>
    <style>
      .cls-1 {
        fill: #3a3a3a;
      }

      .cls-1, .cls-2 {
        stroke-width: 0px;
      }

      .cls-2 {
        fill: #cc6868;
      }
    </style>
  </defs>
  <g>
    <g>
      <polygon class="cls-2" points="226.71 50.59 226.71 65.38 160.52 95.46 160.52 77.11 202.6 57.99 160.52 38.87 160.52 20.52 226.71 50.59"/>
      <polygon class="cls-2" points="66.19 39.07 24.12 58.19 66.19 77.32 66.19 95.26 0 65.34 0 50.63 66.19 20.72 66.19 39.07"/>
    </g>
    <polygon class="cls-2" points="140.34 0 106.13 115.97 87.3 115.97 121.51 0 140.34 0"/>
  </g>
  <g>
    <path class="cls-1" d="M305.56,29.47c3.03,1.64,5.37,3.78,7,6.44v-8.08h17.48v56.94c0,5.25-1.04,10-3.12,14.26-2.08,4.26-5.25,7.65-9.51,10.17-4.26,2.52-9.56,3.78-15.9,3.78-8.45,0-15.3-1.99-20.55-5.98-5.25-3.99-8.25-9.39-9-16.2h17.28c.54,2.18,1.84,3.9,3.88,5.16,2.04,1.26,4.57,1.89,7.57,1.89,3.61,0,6.49-1.04,8.64-3.12,2.15-2.08,3.22-5.4,3.22-9.97v-8.08c-1.7,2.66-4.06,4.82-7.05,6.49-3,1.67-6.51,2.5-10.53,2.5-4.7,0-8.96-1.21-12.78-3.63-3.82-2.42-6.83-5.86-9.05-10.32-2.22-4.46-3.32-9.62-3.32-15.49s1.11-11,3.32-15.44c2.21-4.43,5.23-7.84,9.05-10.22,3.82-2.38,8.08-3.58,12.78-3.58,4.02,0,7.55.82,10.58,2.45ZM308.93,46.02c-2.42-2.52-5.37-3.78-8.84-3.78s-6.42,1.25-8.84,3.73c-2.42,2.49-3.63,5.91-3.63,10.27s1.21,7.82,3.63,10.38c2.42,2.56,5.37,3.83,8.84,3.83s6.42-1.26,8.84-3.78c2.42-2.52,3.63-5.96,3.63-10.32s-1.21-7.8-3.63-10.33Z"/>
    <path class="cls-1" d="M343.99,19.19c-1.94-1.81-2.91-4.04-2.91-6.7s.97-4.99,2.91-6.8c1.94-1.8,4.45-2.71,7.51-2.71s5.47.9,7.41,2.71c1.94,1.81,2.91,4.07,2.91,6.8s-.97,4.89-2.91,6.7c-1.94,1.81-4.41,2.71-7.41,2.71s-5.57-.9-7.51-2.71ZM360.2,27.83v57.04h-17.48V27.83h17.48Z"/>
    <path class="cls-1" d="M382.79,83.13c-3.88-1.7-6.95-4.04-9.2-7s-3.51-6.29-3.78-9.97h17.28c.21,1.98,1.12,3.58,2.76,4.8,1.64,1.23,3.65,1.84,6.03,1.84,2.18,0,3.87-.42,5.06-1.28,1.19-.85,1.79-1.96,1.79-3.32,0-1.64-.85-2.84-2.56-3.63-1.7-.78-4.46-1.65-8.28-2.61-4.09-.95-7.5-1.96-10.22-3.02-2.73-1.06-5.08-2.72-7.05-5.01-1.98-2.28-2.96-5.37-2.96-9.25,0-3.27.9-6.25,2.71-8.95,1.8-2.69,4.46-4.82,7.97-6.39,3.51-1.57,7.68-2.35,12.52-2.35,7.16,0,12.79,1.77,16.92,5.32,4.12,3.54,6.49,8.25,7.1,14.11h-16.15c-.27-1.98-1.14-3.54-2.61-4.7-1.47-1.16-3.39-1.74-5.78-1.74-2.04,0-3.61.39-4.7,1.17-1.09.78-1.64,1.86-1.64,3.22,0,1.63.87,2.86,2.61,3.68,1.74.82,4.45,1.64,8.13,2.45,4.23,1.09,7.67,2.17,10.33,3.22,2.66,1.06,4.99,2.76,7,5.11,2.01,2.35,3.05,5.5,3.12,9.46,0,3.34-.94,6.32-2.81,8.95-1.88,2.62-4.57,4.69-8.08,6.18-3.51,1.5-7.58,2.25-12.22,2.25-4.98,0-9.41-.85-13.29-2.56Z"/>
    <path class="cls-1" d="M483.38,60.54h-39.56c.27,3.54,1.41,6.25,3.42,8.13,2.01,1.88,4.48,2.81,7.41,2.81,4.36,0,7.39-1.84,9.1-5.52h18.61c-.96,3.75-2.68,7.12-5.16,10.12-2.49,3-5.61,5.35-9.35,7.05-3.75,1.71-7.94,2.56-12.57,2.56-5.59,0-10.56-1.19-14.92-3.58-4.36-2.38-7.77-5.79-10.22-10.22-2.45-4.43-3.68-9.61-3.68-15.54s1.21-11.11,3.63-15.54c2.42-4.43,5.81-7.84,10.17-10.22,4.36-2.38,9.37-3.58,15.03-3.58s10.43,1.16,14.72,3.48c4.29,2.32,7.65,5.62,10.07,9.92,2.42,4.29,3.63,9.3,3.63,15.03,0,1.64-.1,3.34-.31,5.11ZM465.79,50.83c0-3-1.02-5.38-3.07-7.16-2.04-1.77-4.6-2.66-7.67-2.66s-5.4.85-7.41,2.56c-2.01,1.7-3.26,4.12-3.73,7.26h21.88Z"/>
    <path class="cls-1" d="M510.36,9.22v75.65h-17.48V9.22h17.48Z"/>
    <path class="cls-1" d="M540.52,9.22v75.65h-17.48V9.22h17.48Z"/>
    <path class="cls-1" d="M606.66,60.54h-39.56c.27,3.54,1.41,6.25,3.42,8.13,2.01,1.88,4.48,2.81,7.41,2.81,4.36,0,7.39-1.84,9.1-5.52h18.61c-.96,3.75-2.68,7.12-5.16,10.12-2.49,3-5.61,5.35-9.35,7.05-3.75,1.71-7.94,2.56-12.57,2.56-5.59,0-10.56-1.19-14.92-3.58-4.36-2.38-7.77-5.79-10.22-10.22-2.45-4.43-3.68-9.61-3.68-15.54s1.21-11.11,3.63-15.54c2.42-4.43,5.81-7.84,10.17-10.22,4.36-2.38,9.37-3.58,15.03-3.58s10.43,1.16,14.72,3.48c4.29,2.32,7.65,5.62,10.07,9.92,2.42,4.29,3.63,9.3,3.63,15.03,0,1.64-.1,3.34-.31,5.11ZM589.08,50.83c0-3-1.02-5.38-3.07-7.16-2.04-1.77-4.6-2.66-7.67-2.66s-5.4.85-7.41,2.56c-2.01,1.7-3.26,4.12-3.73,7.26h21.88Z"/>
  </g>
</svg>