<svg width="134" height="134" viewBox="0 0 134 134" fill="none" xmlns="http://www.w3.org/2000/svg">
<path d="M0 48.1455C0 31.2931 0 22.8668 3.27972 16.43C6.16465 10.768 10.768 6.16465 16.43 3.27972C22.8668 0 31.2931 0 48.1455 0H84.8885C101.741 0 110.167 0 116.604 3.27972C122.266 6.16465 126.869 10.768 129.754 16.43C133.034 22.8668 133.034 31.2931 133.034 48.1455V84.8885C133.034 101.741 133.034 110.167 129.754 116.604C126.869 122.266 122.266 126.869 116.604 129.754C110.167 133.034 101.741 133.034 84.8885 133.034H48.1455C31.2931 133.034 22.8668 133.034 16.43 129.754C10.768 126.869 6.16465 122.266 3.27972 116.604C0 110.167 0 101.741 0 84.8885V48.1455Z" fill="#001E36"/>
<path d="M28.5073 97.4769V38.9761C28.5073 38.5784 28.6736 38.3509 29.0616 38.3509C34.7898 38.3509 40.5155 38.0097 46.245 38.0097C55.5427 38.0097 65.6095 41.1888 69.1383 50.915C69.9697 53.3029 70.413 55.7474 70.413 58.306C70.413 63.1954 69.3045 67.2316 67.0872 70.4154C60.8935 79.3087 50.1586 79.1704 40.5359 79.1704V97.4203C40.611 97.9605 40.1506 98.2162 39.7045 98.2162H29.1725C28.729 98.2162 28.5073 97.9886 28.5073 97.4769ZM40.5911 49.3233V68.4256C44.4068 68.7049 48.3992 68.7354 52.0652 67.5162C56.1128 66.3483 58.3292 62.8453 58.3292 58.6471C58.4414 55.0699 56.4924 51.6376 53.1742 50.3467C49.5523 48.8406 44.5008 48.7503 40.5911 49.3233Z" fill="#31A8FF"/>
<path d="M104.986 64.6521C103.309 63.7679 101.522 63.1213 99.6757 62.7298C97.3029 62.1715 87.944 60.2159 87.9402 65.1097C88.0233 67.8416 92.3602 69.18 94.2764 69.9607C101.004 72.2702 108.616 76.3986 108.466 84.6975C108.672 95.0285 98.6623 99.1588 90.082 99.1597C85.6154 99.2058 80.9621 98.514 76.8741 96.5964C76.4836 96.3898 76.2327 95.9484 76.2494 95.498V85.6126C76.2052 85.2163 76.6309 84.87 76.9635 85.155C80.9687 87.5772 85.7161 88.7536 90.35 88.8163C92.3954 88.8163 96.4491 88.6182 96.4187 85.6126C96.4187 82.7286 91.5692 81.4025 89.6359 80.6699C86.8336 79.6698 84.1768 78.2838 81.738 76.5511C78.3294 74.1199 76.1914 70.222 76.2494 65.9335C76.2294 56.2059 85.4434 51.8395 93.7414 51.8376C97.6203 51.8053 101.786 52.0928 105.397 53.6683C105.916 53.8208 106.024 54.3681 106.022 54.858V64.1029C106.055 64.6768 105.418 64.8721 104.986 64.6521Z" fill="#31A8FF"/>
</svg>
