<svg width="134" height="134" viewBox="0 0 134 134" fill="none" xmlns="http://www.w3.org/2000/svg">
<path d="M0 48.1455C0 31.2931 0 22.8668 3.27972 16.43C6.16465 10.768 10.768 6.16465 16.43 3.27972C22.8668 0 31.2931 0 48.1455 0H84.8885C101.741 0 110.167 0 116.604 3.27972C122.266 6.16465 126.869 10.768 129.754 16.43C133.034 22.8668 133.034 31.2931 133.034 48.1455V84.8885C133.034 101.741 133.034 110.167 129.754 116.604C126.869 122.266 122.266 126.869 116.604 129.754C110.167 133.034 101.741 133.034 84.8885 133.034H48.1455C31.2931 133.034 22.8668 133.034 16.43 129.754C10.768 126.869 6.16465 122.266 3.27972 116.604C0 110.167 0 101.741 0 84.8885V48.1455Z" fill="#470137"/>
<path d="M69.5887 39.1201L52.9893 67.2207L70.7484 97.0597C71.1176 97.7363 70.7484 97.886 70.2134 97.886H57.541C56.6482 97.886 56.0235 97.8537 55.6666 97.2431C54.4755 94.8633 53.2858 92.4986 52.0966 90.1491C50.9059 87.8006 49.6416 85.4055 48.3042 82.9638C46.9653 80.5241 45.6416 78.053 44.3326 75.55C43.142 77.9912 41.8178 80.4319 40.5397 82.8726C39.2598 85.3138 37.9955 87.7393 36.7469 90.1491C35.4975 92.5603 34.2184 94.9554 32.9095 97.3344C32.671 97.8836 32.254 97.9401 31.6599 97.9401H19.4337C18.9533 97.9401 18.8953 97.579 19.166 97.1514L36.3899 68.1358L19.6121 39.0284C19.3073 38.6131 19.5696 38.1708 20.0584 38.2045H32.6415C33.1864 38.1741 33.668 38.3794 33.9802 38.8455C35.0512 41.2866 36.2411 43.7278 37.5499 46.168C38.8578 48.6092 40.182 51.02 41.5213 53.3989C42.8602 55.7788 44.1839 58.1891 45.3142 60.6303C46.5035 58.1288 47.7084 55.6881 48.9285 53.3077C50.1476 50.9278 51.3967 48.5327 52.6767 46.1224C53.9557 43.7126 55.1901 41.3175 56.3803 38.9372C56.5385 38.415 56.9167 38.1504 57.4512 38.2045H69.142C69.5887 38.2045 69.773 38.8141 69.5887 39.1201Z" fill="#FF61F6"/>
<path d="M95.2005 99.0747C87.3301 99.1977 79.0863 95.9569 74.9423 88.7774C72.9192 85.3304 71.9077 81.0134 71.9081 75.8255C71.8744 71.6245 72.9211 67.4886 74.9423 63.8349C80.1577 54.5121 90.6645 51.019 100.644 51.936V33.904C100.644 33.4777 100.823 33.2633 101.18 33.2633H112.425C112.732 33.2182 113.004 33.4971 112.96 33.8124V87.9079C112.96 90.1395 113.181 92.3636 113.317 94.5895C113.339 94.9696 113.119 95.3459 112.781 95.5051C107.226 97.8816 101.214 99.0471 95.2005 99.0747ZM100.644 87.7245V62.7364C92.4932 60.472 84.5796 66.6804 84.5806 75.2763C84.3872 84.1635 92.0481 90.3034 100.644 87.7245Z" fill="#FF61F6"/>
</svg>
