<svg width="132" height="112" viewBox="0 0 132 112" fill="none" xmlns="http://www.w3.org/2000/svg">
<g filter="url(#filter0_d_1474_2956)">
<path d="M27.0314 22.5972C26.8428 17.1792 31.0641 12.1831 36.7699 12.1831H95.2373C100.943 12.1831 105.164 17.1792 104.976 22.5972C104.795 27.8017 105.03 34.5435 106.727 40.0405C108.429 45.5546 111.299 49.0399 116 49.4878V54.5659C111.299 55.0138 108.429 58.4991 106.727 64.0132C105.03 69.5103 104.795 76.2521 104.976 81.4567C105.164 86.8745 100.943 91.8706 95.2373 91.8706H36.7699C31.0641 91.8706 26.8428 86.8745 27.0316 81.4567C27.2127 76.2521 26.9773 69.5103 25.2805 64.0132C23.5785 58.4991 20.7012 55.0138 16 54.5659V49.4878C20.701 49.0399 23.5785 45.5546 25.2805 40.0405C26.9773 34.5435 27.2127 27.8017 27.0314 22.5972Z" fill="url(#paint0_linear_1474_2956)"/>
<path d="M68.1686 73.2099C77.4062 73.2099 82.9729 68.6868 82.9729 61.2265C82.9729 55.5872 79.001 51.5046 73.1033 50.8583V50.6233C77.4363 49.9185 80.8365 45.8946 80.8365 41.4009C80.8365 34.9979 75.7814 30.8271 68.0783 30.8271H50.7463V73.2099H68.1686ZM57.4865 36.2021H66.4535C71.3281 36.2021 74.0963 38.3755 74.0963 42.3112C74.0963 46.5114 70.8768 48.861 65.0393 48.861H57.4865V36.2021ZM57.4865 67.8351V53.8837H66.3932C72.7723 53.8837 76.0822 56.2333 76.0822 60.8153C76.0822 65.3972 72.8627 67.8351 66.7844 67.8351H57.4865Z" fill="url(#paint1_linear_1474_2956)"/>
</g>
<defs>
<filter id="filter0_d_1474_2956" x="0" y="0.183105" width="132" height="111.688" filterUnits="userSpaceOnUse" color-interpolation-filters="sRGB">
<feFlood flood-opacity="0" result="BackgroundImageFix"/>
<feColorMatrix in="SourceAlpha" type="matrix" values="0 0 0 0 0 0 0 0 0 0 0 0 0 0 0 0 0 0 127 0" result="hardAlpha"/>
<feOffset dy="4"/>
<feGaussianBlur stdDeviation="8"/>
<feColorMatrix type="matrix" values="0 0 0 0 0 0 0 0 0 0 0 0 0 0 0 0 0 0 0.15 0"/>
<feBlend mode="normal" in2="BackgroundImageFix" result="effect1_dropShadow_1474_2956"/>
<feBlend mode="normal" in="SourceGraphic" in2="effect1_dropShadow_1474_2956" result="shape"/>
</filter>
<linearGradient id="paint0_linear_1474_2956" x1="30.8592" y1="14.2921" x2="118.242" y2="83.6567" gradientUnits="userSpaceOnUse">
<stop stop-color="#9013FE"/>
<stop offset="1" stop-color="#6610F2"/>
</linearGradient>
<linearGradient id="paint1_linear_1474_2956" x1="53.7945" y1="33.6167" x2="73.327" y2="66.6503" gradientUnits="userSpaceOnUse">
<stop stop-color="white"/>
<stop offset="1" stop-color="#F1E5FC"/>
</linearGradient>
</defs>
</svg>
