<svg width="134" height="200" viewBox="0 0 134 200" fill="none" xmlns="http://www.w3.org/2000/svg">
<path d="M99.7755 133.034C118.144 133.034 133.034 118.144 133.034 99.7755C133.034 81.4073 118.144 66.517 99.7755 66.517C81.4073 66.517 66.517 81.4073 66.517 99.7755C66.517 118.144 81.4073 133.034 99.7755 133.034Z" fill="#19BCFE"/>
<path fill-rule="evenodd" clip-rule="evenodd" d="M33.2585 199.551C51.6267 199.551 66.517 184.661 66.517 166.293C66.517 161.278 66.517 150.192 66.517 133.034C51.5759 133.034 40.4898 133.034 33.2585 133.034C14.8903 133.034 0 147.924 0 166.293C0 184.661 14.8903 199.551 33.2585 199.551Z" fill="#09CF83"/>
<path fill-rule="evenodd" clip-rule="evenodd" d="M33.2585 133.034H66.517V66.517C50.4674 66.517 39.3812 66.517 33.2585 66.517C14.8903 66.517 0 81.4073 0 99.7755C0 118.144 14.8903 133.034 33.2585 133.034Z" fill="#A259FF"/>
<path fill-rule="evenodd" clip-rule="evenodd" d="M33.2585 66.517H66.517V0C50.4674 0 39.3812 0 33.2585 0C14.8903 0 0 14.8903 0 33.2585C0 51.6267 14.8903 66.517 33.2585 66.517Z" fill="#F24E1E"/>
<path fill-rule="evenodd" clip-rule="evenodd" d="M99.7755 66.517H66.517V0H99.7755C118.144 0 133.034 14.8903 133.034 33.2585C133.034 51.6267 118.144 66.517 99.7755 66.517Z" fill="#FF7262"/>
</svg>
