<svg width="134" height="134" viewBox="0 0 134 134" fill="none" xmlns="http://www.w3.org/2000/svg">
<path d="M0.000760881 4.47173V10.345C2.45671 10.345 4.45436 12.3433 4.45436 14.7984C4.45436 17.2551 2.45671 19.2534 0.000760881 19.2534V25.1266C2.45671 25.1266 4.45436 27.125 4.45436 29.5801C4.45436 32.0367 2.45671 34.0351 0.000760881 34.0351V39.9045C2.45671 39.9045 4.45436 41.899 4.45436 44.358C4.45436 46.8169 2.45671 48.8114 0.000760881 48.8114V54.6809C2.45671 54.6809 4.45436 56.6754 4.45436 59.1343C4.45436 61.5887 2.45671 63.5878 0.000760881 63.5878V69.4587C2.45671 69.4587 4.45436 71.4555 4.45436 73.9122C4.45436 76.3688 2.45671 78.3672 0.000760881 78.3672V84.2381C2.45671 84.2381 4.45436 86.2327 4.45436 88.6916C4.45436 91.1467 2.45671 93.145 0.000760881 93.145V99.0183C2.45671 99.0183 4.45436 101.016 4.45436 103.472C4.45436 105.929 2.45671 107.927 0.000760881 107.927V113.799C2.45671 113.799 4.45436 115.796 4.45436 118.253C4.45436 120.709 2.45671 122.706 0.000760881 122.706V128.583C1.17316 128.583 2.3212 129.058 3.15102 129.888C3.97931 130.715 4.45512 131.863 4.45512 133.036H10.3285C10.3285 130.578 12.327 128.582 14.7821 128.582C17.2389 128.582 19.2373 130.578 19.2373 133.036H25.1107C25.1107 130.578 27.1091 128.582 29.5643 128.582C32.021 128.582 34.0194 130.578 34.0194 133.036H39.8928C39.8928 130.578 41.8913 128.582 44.3465 128.582C46.8032 128.582 48.8016 130.578 48.8016 133.036H54.675C54.675 130.578 56.6696 128.582 59.1286 128.582C61.58 128.582 63.5822 130.578 63.5822 133.036H69.4518C69.4518 130.578 71.4464 128.582 73.9054 128.582C76.3568 128.582 78.359 130.578 78.359 133.036H84.2286C84.2286 130.578 86.2232 128.582 88.6822 128.582C91.1336 128.582 93.1358 130.578 93.1358 133.036H99.0055C99.0055 130.578 101.002 128.582 103.459 128.582C105.914 128.582 107.913 130.578 107.913 133.036H113.786C113.786 130.578 115.785 128.582 118.24 128.582C120.699 128.582 122.696 130.578 122.696 133.036H128.573C128.573 131.863 129.049 130.714 129.878 129.886C130.708 129.056 131.853 128.581 133.026 128.581V122.707C130.572 122.707 128.573 120.708 128.573 118.253C128.573 115.794 130.573 113.8 133.029 113.8V107.925C130.57 107.925 128.573 105.925 128.573 103.468C128.573 101.011 130.575 99.0145 133.031 99.0145V93.145C130.573 93.145 128.575 91.1459 128.575 88.6893C128.575 86.2342 130.576 84.2358 133.033 84.2358V78.3664C130.577 78.3664 128.579 76.3688 128.579 73.9129C128.579 71.4556 130.577 69.4595 133.034 69.4595V63.5855C130.575 63.5855 128.577 61.5887 128.577 59.132C128.577 56.6784 130.577 54.6786 133.033 54.6786V48.8091C130.574 48.8091 128.577 46.81 128.577 44.3519C128.577 41.893 130.576 39.8984 133.033 39.8984V34.0267C130.574 34.0267 128.576 32.0276 128.576 29.571C128.576 27.1166 130.576 25.1175 133.033 25.1175V19.245C130.574 19.245 128.575 17.2467 128.575 14.7916C128.575 12.3342 130.574 10.3381 133.031 10.3381V4.46107C131.859 4.46107 130.709 3.98375 129.879 3.15548C129.049 2.32569 128.574 1.17617 128.574 0.00380428H122.705C122.705 2.46044 120.706 4.45878 118.251 4.45878C115.794 4.45878 113.798 2.45968 113.798 0.00304343H107.923C107.923 2.45892 105.926 4.4565 103.47 4.4565C101.014 4.4565 99.0161 2.45816 99.0161 0.00152171H93.1427C93.1427 2.45892 91.1405 4.45726 88.6845 4.45726C86.2286 4.45726 84.2309 2.45816 84.2309 0.00152171H78.3613C78.3613 2.45739 76.3652 4.45498 73.9077 4.45498C71.4533 4.45498 69.4541 2.45663 69.4541 0H63.5845C63.5845 2.45892 61.5861 4.45574 59.1309 4.45574C56.6719 4.45574 54.6758 2.45816 54.6758 0.00228257H48.8031C48.8031 2.4612 46.8047 4.45878 44.3495 4.45878C41.8928 4.45878 39.8944 2.45968 39.8944 0.00304343H34.0225C34.0225 2.46044 32.0225 4.4565 29.5689 4.4565C27.1099 4.4565 25.1153 2.45968 25.1153 0.00304343H19.238C19.238 2.45968 17.2404 4.4565 14.7844 4.4565C12.3285 4.4565 10.3308 2.45892 10.3308 0.00304343H4.4536C4.4536 1.17541 3.97855 2.32493 3.15178 3.15472C2.32196 3.98147 1.1724 4.4565 0 4.4565L0.000760881 4.47173Z" fill="url(#paint0_linear_1872_2838)"/>
<path d="M113.337 53.2504H46.9486L50.4125 37.0413H90.8756L94.5877 19.5944H36.429L18.1151 105.964H35.6859L43.7283 68.2232H85.8738L49.2523 104.479L55.6868 115.862C58.6559 113.883 63.4825 113.635 66.8231 113.635C72.7635 113.635 78.5791 115.616 84.6405 115.616C90.198 115.616 95.8887 115.244 105.17 110.789L108.414 95.5697C102.102 98.1671 92.7628 100.643 84.6405 100.643C81.3015 100.643 78.2075 99.9006 74.9903 99.4057L110.49 64.8819L113.337 53.2504Z" fill="white"/>
<defs>
<linearGradient id="paint0_linear_1872_2838" x1="66.5193" y1="16.0842" x2="66.5193" y2="118.861" gradientUnits="userSpaceOnUse">
<stop stop-color="#BF0000"/>
<stop offset="1" stop-color="#8F0000"/>
</linearGradient>
</defs>
</svg>
