<svg width="100" height="100" viewBox="0 0 100 100" fill="none" xmlns="http://www.w3.org/2000/svg">
<path d="M44.9707 2.31791C47.7043 -0.415757 52.1365 -0.415759 54.8702 2.31791L97.7179 45.1657C100.452 47.8993 100.452 52.3315 97.7179 55.0652L55.0893 97.6937C52.3557 100.427 47.9235 100.427 45.1898 97.6937L2.34208 54.846C-0.391593 52.1123 -0.391589 47.6802 2.34208 44.9465L44.9707 2.31791Z" fill="white"/>
<path d="M98.1119 45.5439L54.4545 1.88654C53.8567 1.28845 53.1469 0.814007 52.3657 0.490308C51.5845 0.166609 50.7472 0 49.9016 0C49.056 0 48.2186 0.166609 47.4374 0.490308C46.6562 0.814007 45.9464 1.28845 45.3486 1.88654L36.2866 10.9486L47.786 22.4481C50.4609 21.5107 53.5233 22.1513 55.6544 24.2824C56.6689 25.2987 57.3771 26.5798 57.6982 27.9795C58.0192 29.3791 57.9401 30.8408 57.47 32.1977L68.5539 43.2815C71.235 42.3566 74.3286 42.9534 76.4691 45.1002C77.1807 45.812 77.7451 46.6569 78.1301 47.5868C78.5151 48.5167 78.7132 49.5134 78.7131 50.5198C78.7129 51.5263 78.5146 52.5229 78.1293 53.4526C77.744 54.3824 77.1793 55.2272 76.4676 55.9388C75.7558 56.6504 74.9108 57.2148 73.9809 57.5998C73.051 57.9848 72.0544 58.1829 71.048 58.1828C70.0415 58.1826 69.0449 57.9842 68.1151 57.5989C67.1853 57.2137 66.3406 56.649 65.629 55.9372C63.3791 53.6873 62.8229 50.375 63.9603 47.6032L53.6233 37.2662V64.4681C54.3736 64.8394 55.0595 65.329 55.6544 65.918C56.366 66.6296 56.9304 67.4743 57.3155 68.4041C57.7006 69.3338 57.8989 70.3302 57.8989 71.3365C57.8989 72.3428 57.7006 73.3393 57.3155 74.269C56.9304 75.1987 56.366 76.0435 55.6544 76.755C54.9429 77.4666 54.0981 78.0311 53.1684 78.4162C52.2387 78.8013 51.2422 78.9995 50.2359 78.9995C49.2296 78.9995 48.2332 78.8013 47.3035 78.4162C46.3737 78.0311 45.529 77.4666 44.8174 76.755C44.105 76.0439 43.5398 75.1993 43.1542 74.2696C42.7686 73.3398 42.5701 72.3431 42.5701 71.3365C42.5701 70.33 42.7686 69.3333 43.1542 68.4035C43.5398 67.4737 44.105 66.6291 44.8174 65.918C45.558 65.1806 46.3799 64.6212 47.3267 64.2462V36.7912C46.4142 36.4162 45.558 35.8631 44.8174 35.1194C43.7414 34.0448 43.0099 32.674 42.716 31.1819C42.4222 29.6898 42.5794 28.1441 43.1675 26.7417L31.8243 15.4047L1.8881 45.3096C1.28955 45.9074 0.814707 46.6174 0.490731 47.3989C0.166755 48.1804 0 49.0181 0 49.8641C0 50.7101 0.166755 51.5477 0.490731 52.3292C0.814707 53.1107 1.28955 53.8207 1.8881 54.4185L45.5486 98.0728C46.1464 98.6709 46.8562 99.1454 47.6374 99.4691C48.4186 99.7928 49.2559 99.9594 50.1016 99.9594C50.9472 99.9594 51.7845 99.7928 52.5657 99.4691C53.3469 99.1454 54.0567 98.6709 54.6545 98.0728L98.1119 54.6842C98.7104 54.0863 99.1853 53.3763 99.5093 52.5948C99.8332 51.8134 100 50.9757 100 50.1297C100 49.2837 99.8332 48.446 99.5093 47.6645C99.1853 46.883 98.7104 46.173 98.1119 45.5752" fill="#F03C2E"/>
</svg>
