<svg width="100" height="101" viewBox="0 0 100 101" fill="none" xmlns="http://www.w3.org/2000/svg">
<path d="M98.1119 45.9736L54.4545 2.31623C53.8567 1.71814 53.1469 1.24369 52.3657 0.919995C51.5845 0.596296 50.7472 0.429688 49.9016 0.429688C49.056 0.429688 48.2186 0.596296 47.4374 0.919995C46.6562 1.24369 45.9464 1.71814 45.3486 2.31623L36.2866 11.3783L47.786 22.8778C50.4609 21.9403 53.5233 22.5809 55.6544 24.7121C56.6689 25.7284 57.3771 27.0095 57.6982 28.4092C58.0192 29.8088 57.9401 31.2705 57.47 32.6274L68.5539 43.7112C71.235 42.7863 74.3286 43.3831 76.4691 45.5299C77.1807 46.2417 77.7451 47.0866 78.1301 48.0165C78.5151 48.9464 78.7132 49.9431 78.7131 50.9495C78.7129 51.956 78.5146 52.9525 78.1293 53.8823C77.744 54.8121 77.1793 55.6569 76.4676 56.3685C75.7558 57.08 74.9108 57.6445 73.9809 58.0295C73.051 58.4145 72.0544 58.6126 71.048 58.6124C70.0415 58.6123 69.0449 58.4139 68.1151 58.0286C67.1853 57.6433 66.3405 57.0787 65.629 56.3669C63.3791 54.117 62.8229 50.8047 63.9603 48.0329L53.6233 37.6959V64.8978C54.3736 65.2691 55.0595 65.7587 55.6544 66.3477C56.366 67.0593 56.9305 67.904 57.3155 68.8337C57.7006 69.7635 57.8989 70.7599 57.8989 71.7662C57.8989 72.7725 57.7006 73.769 57.3155 74.6987C56.9305 75.6284 56.366 76.4732 55.6544 77.1847C54.9429 77.8963 54.0981 78.4607 53.1684 78.8458C52.2387 79.2309 51.2422 79.4291 50.2359 79.4291C49.2296 79.4291 48.2332 79.2309 47.3035 78.8458C46.3737 78.4607 45.529 77.8963 44.8174 77.1847C44.105 76.4736 43.5398 75.629 43.1542 74.6992C42.7686 73.7695 42.5701 72.7728 42.5701 71.7662C42.5701 70.7597 42.7686 69.763 43.1542 68.8332C43.5398 67.9034 44.105 67.0588 44.8174 66.3477C45.558 65.6102 46.3799 65.0509 47.3267 64.6759V37.2209C46.4142 36.8459 45.558 36.2928 44.8174 35.5491C43.7414 34.4744 43.0099 33.1037 42.716 31.6116C42.4222 30.1195 42.5794 28.5738 43.1675 27.1714L31.8243 15.8344L1.8881 45.7393C1.28955 46.3371 0.814707 47.0471 0.490731 47.8286C0.166755 48.6101 0 49.4478 0 50.2938C0 51.1397 0.166755 51.9774 0.490731 52.7589C0.814707 53.5404 1.28955 54.2504 1.8881 54.8482L45.5486 98.5025C46.1464 99.1006 46.8562 99.575 47.6374 99.8987C48.4186 100.222 49.2559 100.389 50.1016 100.389C50.9472 100.389 51.7845 100.222 52.5657 99.8987C53.3469 99.575 54.0567 99.1006 54.6545 98.5025L98.1119 55.1138C98.7104 54.516 99.1853 53.806 99.5093 53.0245C99.8332 52.243 100 51.4053 100 50.5594C100 49.7134 99.8332 48.8757 99.5093 48.0942C99.1853 47.3127 98.7104 46.6027 98.1119 46.0049" fill="#F03C2E"/>
</svg>
