<svg width="122" height="120" viewBox="0 0 122 120" fill="none" xmlns="http://www.w3.org/2000/svg">
<path d="M103.425 54.6298C104.225 63.1116 102.4 71.5724 99.7502 79.6694C90.7734 107.103 89.8471 119.46 60.9559 119.46C28.095 119.46 11.6186 95.8609 11.6186 63C11.6186 30.1391 28.113 6.5 60.9739 6.5C89.4417 6.5 100.876 27.6183 103.425 54.6298Z" fill="white"/>
<path d="M60.9739 0.0952836C44.9736 -0.0673063 29.5634 6.12953 18.1299 17.3239C6.69653 28.5182 0.175495 43.7941 0 59.7943C0.0616523 72.439 4.12928 84.7389 11.6186 94.9272C19.108 105.115 29.6337 112.668 41.684 116.5C44.7327 117.054 45.8413 115.225 45.8413 113.618C45.8413 112.01 45.8413 108.463 45.8413 103.474C28.8795 107.077 25.2765 95.4917 25.2765 95.4917C24.1473 91.8549 21.7468 88.7461 18.5139 86.7337C12.9708 83.0752 18.9573 83.1307 18.9573 83.1307C20.8733 83.3868 22.7064 84.0734 24.3192 85.139C25.932 86.2046 27.2826 87.6215 28.2697 89.2835C29.9899 92.2663 32.8125 94.4546 36.1299 95.3772C39.4473 96.2999 42.9943 95.8832 46.0076 94.2168C46.3175 91.1813 47.6921 88.3536 49.8878 86.2348C36.3626 84.7382 22.1723 79.6385 22.1723 56.7456C22.0514 50.7739 24.2579 44.9893 28.3252 40.6152C26.4728 35.4883 26.6915 29.8412 28.9349 24.8729C28.9349 24.8729 34.09 23.2654 45.5641 30.9703C55.5522 28.3087 66.0631 28.3087 76.0511 30.9703C87.6916 23.2654 92.6804 24.8729 92.6804 24.8729C94.9237 29.8412 95.1424 35.4883 93.2901 40.6152C97.4519 44.9091 99.778 50.6549 99.7755 56.6347C99.7755 79.5831 85.4743 84.6273 72.0601 86.1239C73.5289 87.55 74.6635 89.2838 75.3823 91.2007C76.1012 93.1175 76.3864 95.1699 76.2174 97.2101V113.562C76.2174 113.562 77.326 117.054 80.3747 116.445C92.3908 112.589 102.881 105.035 110.347 94.8606C117.813 84.6867 121.874 72.4136 121.948 59.7943C121.772 43.7941 115.251 28.5182 103.818 17.3239C92.3845 6.12953 76.9742 -0.0673063 60.9739 0.0952836Z" fill="#231F20"/>
</svg>
