<svg width="100" height="101" viewBox="0 0 100 101" fill="none" xmlns="http://www.w3.org/2000/svg">
<path fill-rule="evenodd" clip-rule="evenodd" d="M0 0.20459H100V100.205H0V0.20459ZM67.1797 78.3159L59.5352 82.7534C62.2734 88.2046 67.918 92.3686 76.6856 92.3198C85.5899 92.3198 92.2481 87.6889 92.2481 79.2241C92.2481 71.3608 87.7559 67.8804 79.7559 64.4565L77.4004 63.4429C73.3731 61.7163 71.6191 60.5659 71.6191 57.7436C71.6191 55.4702 73.3711 53.7163 76.1113 53.7163C78.7969 53.7163 80.5215 54.8667 82.1387 57.7436L89.4531 53.0581C86.3574 47.6323 82.0566 45.5503 76.084 45.5503C67.6992 45.5503 62.3301 50.9194 62.3301 57.9604C62.3301 65.603 66.8496 69.2475 73.6172 72.1245L75.9727 73.1382C80.2734 75.0288 82.8223 76.1518 82.8223 79.3843C82.8223 82.0698 80.3301 84.0151 76.4395 84.0151C71.8105 84.0151 69.207 81.603 67.1797 78.3159ZM33.9453 79.1362L26.3008 83.7671C28.5215 88.478 32.877 92.3686 40.3828 92.3686C48.7109 92.3686 54.4102 87.9311 54.4102 78.2046V46.1225H45.0137V78.0405C45.0137 82.7534 43.0684 83.9585 39.9727 83.9585C36.7676 83.9585 35.4238 81.7671 33.9453 79.1362Z" fill="#F7DF1E"/>
</svg>
