<svg width="100" height="52" viewBox="0 0 100 52" fill="none" xmlns="http://www.w3.org/2000/svg">
<path d="M0 47.2428H3.29445V34.2379L8.39457 45.5793C8.99614 46.9465 9.82036 47.4377 11.4356 47.4377C13.0508 47.4377 13.8428 46.9518 14.4454 45.5793L19.546 34.2379V47.2477H22.8409V34.2594C22.8409 32.9923 22.3331 32.3795 21.2882 32.0631C18.7857 31.2818 17.1065 31.9576 16.3468 33.6471L11.3419 44.84L6.49417 33.6422C5.76565 31.9527 4.0552 31.2769 1.55274 32.0582C0.506838 32.3751 0 32.9879 0 34.2545V47.2428ZM25.5792 36.6539H28.8727V43.8219C28.8419 44.2116 28.9977 45.1256 30.8024 45.1535C31.7233 45.1681 37.9089 45.1535 37.9665 45.1535V36.6183H41.2673C41.2819 36.6183 41.2639 48.256 41.2644 48.3058C41.2824 51.176 37.7028 51.7995 36.0534 51.8479H25.651V49.631L36.072 49.6306C38.1921 49.4059 37.9421 48.3527 37.9421 47.9977V47.1335H30.9401C27.6823 47.1042 25.608 45.6818 25.5822 44.0461C25.5797 43.8996 25.6525 36.7242 25.5802 36.6534L25.5792 36.6539Z" fill="#00618A"/>
<path d="M43.8069 47.2428H53.2786C54.387 47.2428 55.4646 47.0109 56.3206 46.6091C57.7464 45.9548 58.4432 45.0675 58.4432 43.9059V41.4987C58.4432 40.548 57.6512 39.6613 56.0994 39.07C55.2757 38.7526 54.262 38.5841 53.28 38.5841H49.2883C47.9582 38.5841 47.3245 38.1827 47.1662 37.296C47.1345 37.1906 47.1345 37.1007 47.1345 37.0001V35.5011C47.1345 35.4166 47.1345 35.3317 47.1662 35.2262C47.3245 34.5504 47.6731 34.36 48.845 34.2496C48.9402 34.2496 49.0666 34.2281 49.1623 34.2281H58.5706V32.0323H49.3206C47.99 32.0323 47.2932 32.1168 46.6594 32.3067C44.6936 32.9195 43.8381 33.8961 43.8381 35.5856V37.5075C43.8381 38.986 45.5178 40.2531 48.3362 40.5485C48.6536 40.5695 48.97 40.5905 49.2864 40.5905H52.7078C52.8347 40.5905 52.9617 40.5905 53.0564 40.612C54.1013 40.6964 54.5457 40.8864 54.8621 41.2663C55.0574 41.4616 55.116 41.6471 55.116 41.8522V43.7741C55.116 44.0065 54.9578 44.3024 54.6409 44.5553C54.3557 44.8092 53.8806 44.9777 53.2468 45.0202C53.1199 45.0202 53.0252 45.0412 52.8987 45.0412H43.8069V47.2428ZM78.9945 43.4206C78.9945 45.6803 80.6732 46.9474 84.0629 47.2009C84.3791 47.2253 84.696 47.2393 85.0131 47.2428H93.5981V45.0465H84.9496C83.0175 45.0465 82.2885 44.5607 82.2885 43.3991V32.0367H78.994V43.4196L78.9945 43.4206ZM60.5447 43.5348V35.7052C60.5447 33.7159 61.9412 32.5094 64.7029 32.1285C64.9975 32.0864 65.2946 32.0652 65.5921 32.065H71.8456C72.1536 32.0652 72.4613 32.0864 72.7665 32.1285C75.5282 32.5094 76.9247 33.7154 76.9247 35.7052V43.5348C76.9247 45.1486 76.3314 46.0124 74.9642 46.5754L78.2094 49.5051H74.3842L71.7587 47.1349L69.1156 47.3024H65.5921C64.9891 47.3024 64.3543 47.2175 63.6556 47.027C61.556 46.4557 60.5447 45.3551 60.5447 43.5348ZM64.1009 43.3395C64.1009 43.4455 64.1326 43.5509 64.1644 43.6784C64.3597 44.5885 65.2117 45.0964 66.5081 45.0964H69.5013L66.7523 42.6144H70.5775L72.9701 44.779C73.412 44.5436 73.7025 44.1833 73.8002 43.7209C73.8319 43.6154 73.8319 43.5094 73.8319 43.4035V35.8961C73.8319 35.8116 73.8319 35.7008 73.8002 35.5997C73.6049 34.7535 72.7523 34.2667 71.4828 34.2667H66.514C65.0491 34.2667 64.1019 34.9015 64.1019 35.8961V43.3454L64.1009 43.3395Z" fill="#E48E00"/>
<path d="M96.4966 28.3931C94.4716 28.3385 92.9243 28.5264 91.602 29.0841C91.226 29.2428 90.6269 29.2467 90.5654 29.7179C90.7719 29.9342 90.8046 30.2574 90.9682 30.5235C91.2841 31.0348 91.8178 31.7198 92.2929 32.0782C92.8125 32.4703 93.3476 32.8902 93.9057 33.2306C94.8969 33.8351 96.0034 34.1803 96.9575 34.7853C97.52 35.1417 98.0786 35.5909 98.6274 35.9943C98.8984 36.1935 99.0815 36.503 99.4331 36.6276V36.5699C99.2476 36.3341 99.2002 36.0099 99.0303 35.7643L98.2817 35.0157C97.5493 34.0392 96.6206 33.191 95.6328 32.4815C94.8452 31.9161 93.082 31.1524 92.7534 30.2354L92.6958 30.1778C93.2544 30.1143 93.9082 29.9127 94.4243 29.775C95.29 29.5431 96.0639 29.6026 96.9585 29.3722L98.168 29.0264V28.796C97.7158 28.3321 97.3935 27.7183 96.9009 27.2989C95.6118 26.2003 94.2041 25.1041 92.7553 24.1885C91.9516 23.6807 90.9585 23.3516 90.1064 22.9214C89.8198 22.7769 89.3164 22.7017 89.1274 22.4605C88.6801 21.8902 88.4365 21.1665 88.0912 20.5074C87.3686 19.1158 86.6586 17.5952 86.018 16.1309C85.581 15.1323 85.2953 14.1475 84.7514 13.2515C82.1366 8.95262 79.3217 6.35788 74.9623 3.80806C74.0345 3.26607 72.9178 3.05122 71.7372 2.77144L69.8368 2.6562C69.45 2.49507 69.0477 2.02143 68.6844 1.79194C67.2401 0.878848 63.5355 -1.10505 62.4656 1.49897C61.7903 3.14595 63.4749 4.75289 64.0779 5.58786C64.5008 6.1738 65.0428 6.82956 65.3446 7.48826C65.5433 7.92088 65.578 8.35496 65.7479 8.81297C66.1663 9.93602 66.5306 11.168 67.0721 12.2104C67.3456 12.7378 67.6473 13.2935 67.9935 13.7651C68.2059 14.0547 68.5697 14.1821 68.6268 14.6294C68.2713 15.1275 68.2508 15.8989 68.0506 16.5298C67.1507 19.3677 67.4901 22.8946 68.7992 24.9952C69.201 25.6397 70.1468 27.0225 71.4481 26.4923C72.5858 26.0284 72.327 24.5928 72.6576 23.3252C72.7308 23.0372 72.6859 22.8272 72.8304 22.6343V22.6919L73.8671 24.7647C74.6337 26.0001 75.996 27.2916 77.1493 28.1632C77.7475 28.6148 78.2235 29.3961 78.9921 29.6602V29.6026H78.9345C78.7846 29.3682 78.5502 29.2721 78.3583 29.085C77.9076 28.6431 77.4061 28.0938 77.0336 27.588C75.9838 26.1632 75.057 24.6046 74.2123 22.981C73.809 22.2061 73.4579 21.3511 73.1185 20.5625C72.9877 20.2583 72.9891 19.7989 72.7157 19.6411C72.3431 20.2193 71.7943 20.6861 71.5062 21.3687C71.0453 22.4595 70.9857 23.7896 70.8153 25.1695C70.7142 25.2056 70.7591 25.1807 70.7001 25.2271C69.8983 25.0338 69.6161 24.2081 69.3182 23.4996C68.5643 21.7076 68.4247 18.8238 69.0877 16.7622C69.2586 16.229 70.035 14.5484 69.721 14.0557C69.5711 13.564 69.0765 13.2744 68.7997 12.9033C68.4579 12.4395 68.1151 11.8271 67.8783 11.291C67.2611 9.89452 66.973 8.32713 66.3236 6.91452C66.013 6.23972 65.4886 5.55709 65.057 4.96139C64.5794 4.29732 64.0447 3.80709 63.6751 3.00825C63.5433 2.72261 63.3646 2.26606 63.5599 1.97163C63.5785 1.88703 63.621 1.80953 63.6822 1.74828C63.7435 1.68703 63.821 1.64457 63.9056 1.62592C64.2396 1.3686 65.1702 1.71137 65.5179 1.85639C66.4408 2.24018 67.2122 2.60542 67.9945 3.12349C68.3705 3.36763 68.7498 3.85396 69.2035 3.98775H69.721C70.5316 4.17427 71.4398 4.04634 72.1966 4.27584C73.5355 4.68258 74.7347 5.31588 75.8246 6.00339C79.1439 8.0991 81.8573 11.0825 83.7138 14.646C84.0126 15.2188 84.1415 15.7661 84.4047 16.3736C84.9355 17.5943 85.6039 18.8604 86.1323 20.0586C86.6596 21.2549 87.1723 22.461 87.9174 23.4561C88.309 23.9786 89.8217 24.2598 90.5087 24.5499C90.9907 24.7535 91.7797 24.9659 92.2363 25.2408C93.1079 25.7667 93.9526 26.3931 94.7705 26.9693C95.1792 27.2574 96.4355 27.8887 96.498 28.4088L96.4966 28.3931Z" fill="#00618A"/>
<path fill-rule="evenodd" clip-rule="evenodd" d="M70.7572 6.45358C70.3348 6.44577 70.0365 6.49948 69.7206 6.56882V6.62644H69.7782C69.9793 7.0405 70.3348 7.30661 70.5838 7.66306L71.16 8.87205L71.2176 8.81444C71.5741 8.56297 71.7376 8.16111 71.7352 7.54734C71.5921 7.39695 71.5712 7.20847 71.4471 7.02878C71.2826 6.78952 70.9588 6.65378 70.7562 6.45261L70.7572 6.45358Z" fill="#00618A"/>
<path fill-rule="evenodd" clip-rule="evenodd" d="M95.1445 44.984C95.1445 46.4342 96.2905 47.4118 97.5723 47.4118C98.854 47.4118 100 46.4342 100 44.984C100 43.5338 98.854 42.5563 97.5723 42.5563C96.2905 42.5563 95.1445 43.5338 95.1445 44.984ZM99.456 44.984C99.456 46.0846 98.6147 46.9069 97.5713 46.9069C96.5166 46.9069 95.6865 46.0846 95.6865 44.984C95.6865 43.8835 96.5156 43.0612 97.5713 43.0612C98.6138 43.0612 99.456 43.8835 99.456 44.984ZM98.2256 46.3698H98.769L97.9731 45.153C98.4004 45.1076 98.7236 44.9001 98.7236 44.3952C98.7236 43.8317 98.3672 43.5993 97.6816 43.5993H96.6001V46.3703H97.0664V45.1725H97.5L98.2251 46.3703L98.2256 46.3698ZM97.0664 43.987H97.6035C97.8818 43.987 98.2187 44.0387 98.2187 44.3629C98.2187 44.7511 97.9145 44.7838 97.5644 44.7838H97.0664V43.987Z" fill="#E48E00"/>
</svg>
