<svg width="100" height="62" viewBox="0 0 100 62" fill="none" xmlns="http://www.w3.org/2000/svg">
<path d="M49.4576 61.4193C49.1184 61.4193 48.802 61.3296 48.508 61.1726L45.5018 59.4001C45.0496 59.1531 45.2757 59.0634 45.4113 59.0186C46.0217 58.8167 46.1347 58.7716 46.7676 58.4129C46.8355 58.3678 46.9258 58.3903 46.9937 58.4352L49.2991 59.8039C49.3897 59.8487 49.5025 59.8487 49.5704 59.8039L58.5895 54.6207C58.6798 54.5759 58.725 54.486 58.725 54.374V44.0301C58.725 43.9177 58.68 43.8282 58.5895 43.7832L49.5704 38.6225C49.4801 38.5775 49.367 38.5775 49.2991 38.6225L40.2803 43.7832C40.1897 43.828 40.1446 43.9402 40.1446 44.0299V54.3738C40.1446 54.4636 40.1897 54.5757 40.2803 54.6207L42.744 56.0342C44.0778 56.7073 44.9141 55.922 44.9141 55.1367V44.9275C44.9141 44.7929 45.0272 44.6582 45.1854 44.6582H46.3381C46.4736 44.6582 46.6094 44.7704 46.6094 44.9275V55.1367C46.6094 56.9092 45.6374 57.9415 43.9421 57.9415C43.4222 57.9415 43.0153 57.9415 41.8625 57.3804L39.4892 56.0342C38.9015 55.6978 38.5397 55.0694 38.5397 54.3963V44.0525C38.5397 43.3794 38.9015 42.7509 39.4892 42.4145L48.508 37.2313C49.0733 36.9172 49.8419 36.9172 50.4069 37.2313L59.4257 42.4145C60.0135 42.7509 60.3751 43.3794 60.3751 44.0525V54.3963C60.3751 55.0694 60.0135 55.6978 59.4257 56.0342L50.4069 61.2174C50.1129 61.3521 49.7742 61.4193 49.4576 61.4193ZM52.2377 54.3066C48.2821 54.3066 47.4683 52.5116 47.4683 50.9858C47.4683 50.8511 47.5814 50.7165 47.7396 50.7165H48.915C49.0506 50.7165 49.1636 50.8062 49.1636 50.941C49.3445 52.1301 49.8644 52.7135 52.2604 52.7135C54.159 52.7135 54.9728 52.2871 54.9728 51.2774C54.9728 50.694 54.7468 50.2679 51.7857 49.9761C49.3218 49.7291 47.7848 49.1908 47.7848 47.2387C47.7848 45.4212 49.3218 44.3441 51.8988 44.3441C54.7919 44.3441 56.2161 45.3315 56.397 47.4853C56.397 47.5528 56.3743 47.62 56.329 47.6874C56.284 47.7322 56.2161 47.7771 56.1483 47.7771H54.9728C54.8598 47.7771 54.7468 47.6874 54.7243 47.5751C54.453 46.3412 53.7522 45.9372 51.8988 45.9372C49.8192 45.9372 49.5704 46.6553 49.5704 47.1937C49.5704 47.8444 49.8644 48.0463 52.6672 48.4053C55.4475 48.7645 56.7587 49.2805 56.7587 51.21C56.736 53.1846 55.1084 54.3066 52.2377 54.3066Z" fill="#539E43"/>
<path d="M21.4738 20.9637C21.4738 20.5599 21.2477 20.1782 20.8861 19.9763L11.302 14.5015C11.1436 14.4116 10.9629 14.3668 10.7822 14.3443H10.6916C10.5109 14.3443 10.33 14.4116 10.1718 14.5015L0.58771 19.9763C0.225892 20.1782 0 20.5597 0 20.9637L0.022687 35.6829C0.022687 35.8848 0.135535 36.0867 0.316444 36.1766C0.497353 36.2888 0.723245 36.2888 0.881662 36.1766L6.57785 32.9455C6.93947 32.7436 7.16536 32.3621 7.16536 31.9583V25.0698C7.16536 24.6659 7.39145 24.2845 7.75307 24.0826L10.1718 22.6913C10.3527 22.5791 10.5561 22.5341 10.7595 22.5341C10.9629 22.5341 11.1663 22.5791 11.3247 22.6913L13.7432 24.0826C14.105 24.2845 14.3309 24.6658 14.3309 25.0698V31.9583C14.3309 32.3621 14.557 32.7436 14.9186 32.9455L20.6148 36.1766C20.7957 36.2888 21.0216 36.2888 21.2025 36.1766C21.3834 36.0867 21.4963 35.8848 21.4963 35.6829L21.4738 20.9637ZM67.5406 0.702181C67.3597 0.612294 67.1338 0.612294 66.9754 0.702181C66.7947 0.814394 66.6817 0.99378 66.6817 1.19569V15.7805C66.6817 15.9151 66.6138 16.0496 66.4783 16.1395C66.3425 16.2067 66.207 16.2067 66.0715 16.1395L63.6754 14.7708C63.4998 14.6715 63.3011 14.6193 63.099 14.6193C62.8968 14.6193 62.6982 14.6715 62.5225 14.7708L52.9384 20.2681C52.5766 20.47 52.3507 20.8515 52.3507 21.2553V32.2273C52.3507 32.6312 52.5768 33.0128 52.9384 33.2147L62.5225 38.712C62.6982 38.8113 62.8968 38.8635 63.099 38.8635C63.3011 38.8635 63.4998 38.8113 63.6754 38.712L73.2595 33.2147C73.6211 33.0128 73.8472 32.6314 73.8472 32.2273V4.87563C73.8472 4.44929 73.6211 4.068 73.2595 3.8659L67.5406 0.702181ZM66.6592 28.615C66.6592 28.7272 66.6138 28.8169 66.5234 28.8617L63.246 30.7464C63.2002 30.7686 63.1499 30.7801 63.099 30.7801C63.048 30.7801 62.9978 30.7686 62.952 30.7464L59.6745 28.8617C59.584 28.8169 59.5388 28.7047 59.5388 28.615V24.8453C59.5388 24.7331 59.584 24.6434 59.6745 24.5986L62.952 22.7137C62.9978 22.6915 63.048 22.68 63.099 22.68C63.1499 22.68 63.2002 22.6915 63.246 22.7137L66.5234 24.5986C66.6138 24.6432 66.6592 24.7556 66.6592 24.8453V28.615ZM99.4348 24.7556C99.7966 24.5537 100 24.1722 100 23.7682V21.0982C100 20.6944 99.7739 20.3129 99.4348 20.111L89.9186 14.6362C89.7429 14.537 89.5443 14.4848 89.3421 14.4848C89.14 14.4848 88.9413 14.537 88.7656 14.6362L79.1816 20.1333C78.82 20.3353 78.5939 20.7167 78.5939 21.1207V32.0928C78.5939 32.4966 78.82 32.8781 79.1816 33.08L88.698 38.4651C89.0596 38.667 89.4891 38.667 89.8282 38.4651L95.5921 35.279C95.773 35.1892 95.886 34.9872 95.886 34.7853C95.886 34.5834 95.773 34.3815 95.5921 34.2916L85.9628 28.7943C85.7819 28.6823 85.6691 28.5028 85.6691 28.3008V24.8679C85.6691 24.666 85.7819 24.464 85.9628 24.3742L88.9692 22.6688C89.0573 22.6138 89.1591 22.5847 89.2631 22.5847C89.3671 22.5847 89.469 22.6138 89.557 22.6688L92.5632 24.3742C92.7441 24.4864 92.8571 24.6658 92.8571 24.8679V27.5604C92.8571 27.7623 92.9702 27.9642 93.1509 28.0539C93.3318 28.1661 93.5577 28.1661 93.7386 28.0539L99.4348 24.7556Z" fill="#333333"/>
<path d="M89.1951 24.2398C89.2287 24.2179 89.268 24.2061 89.3082 24.2061C89.3484 24.2061 89.3877 24.2179 89.4212 24.2398L91.2522 25.2944C91.3201 25.339 91.3653 25.4064 91.3653 25.4963V27.6054C91.3653 27.6951 91.3201 27.7625 91.2522 27.8073L89.4212 28.8619C89.3877 28.8839 89.3484 28.8956 89.3082 28.8956C89.268 28.8956 89.2287 28.8839 89.1951 28.8619L87.3643 27.8073C87.2965 27.7625 87.2513 27.6951 87.2513 27.6054V25.4963C87.2513 25.4064 87.2965 25.339 87.3643 25.2944L89.1951 24.2398Z" fill="#539E43"/>
<path d="M37.5 14.6813C37.3243 14.582 37.1257 14.5299 36.9236 14.5299C36.7215 14.5299 36.5229 14.582 36.3472 14.6813L26.831 20.1333C26.4692 20.3353 26.2658 20.7167 26.2658 21.1206V32.048C26.2658 32.4518 26.4919 32.8333 26.831 33.0352L36.3472 38.4876C36.5229 38.5869 36.7215 38.639 36.9236 38.639C37.1257 38.639 37.3243 38.5869 37.5 38.4876L47.0164 33.0352C47.378 32.8333 47.5816 32.4518 47.5816 32.048V21.1207C47.5816 20.7169 47.3553 20.3354 47.0164 20.1335L37.5 14.6813Z" fill="url(#paint0_linear_1476_3053)"/>
<path d="M47.0389 20.1335L37.4775 14.6813C37.3835 14.6342 37.2851 14.5966 37.1835 14.5691L26.4692 32.7888C26.558 32.8964 26.6652 32.9875 26.7859 33.0581L36.3472 38.5105C36.6185 38.6676 36.935 38.7124 37.2287 38.6225L47.2876 20.3582C47.2198 20.2685 47.1292 20.2007 47.0389 20.1335Z" fill="url(#paint1_linear_1476_3053)"/>
<path fill-rule="evenodd" clip-rule="evenodd" d="M36.0308 12.6842L35.8953 12.7515H36.076L36.0308 12.6842Z" fill="url(#paint2_linear_1476_3053)"/>
<path fill-rule="evenodd" clip-rule="evenodd" d="M47.0616 33.0354C47.3328 32.8783 47.5362 32.609 47.6268 32.3174L37.1382 14.5466C36.8669 14.5017 36.5729 14.5242 36.3246 14.6813L26.8308 20.1112L37.0703 38.6449C37.2192 38.6207 37.3638 38.5754 37.4998 38.5103L47.0616 33.0354Z" fill="url(#paint3_linear_1476_3053)"/>
<path fill-rule="evenodd" clip-rule="evenodd" d="M47.9432 32.856L47.8753 32.7438V32.9008L47.9432 32.856Z" fill="url(#paint4_linear_1476_3053)"/>
<path fill-rule="evenodd" clip-rule="evenodd" d="M47.0616 33.0354L37.5227 38.4878C37.388 38.556 37.2429 38.6016 37.0932 38.6225L37.2741 38.959L47.8527 32.8785V32.7438L47.5812 32.2951C47.536 32.6092 47.3328 32.8783 47.0616 33.0354Z" fill="url(#paint5_linear_1476_3053)"/>
<path fill-rule="evenodd" clip-rule="evenodd" d="M47.0616 33.0354L37.5227 38.4878C37.388 38.556 37.2429 38.6016 37.0932 38.6225L37.2741 38.959L47.8527 32.8785V32.7438L47.5812 32.2951C47.536 32.6092 47.3328 32.8783 47.0616 33.0354Z" fill="url(#paint6_linear_1476_3053)"/>
<defs>
<linearGradient id="paint0_linear_1476_3053" x1="68.1876" y1="11.264" x2="50.6422" y2="62.9405" gradientUnits="userSpaceOnUse">
<stop stop-color="#41873F"/>
<stop offset="0.3288" stop-color="#418B3D"/>
<stop offset="0.6352" stop-color="#419637"/>
<stop offset="0.9319" stop-color="#3FA92D"/>
<stop offset="1" stop-color="#3FAE2A"/>
</linearGradient>
<linearGradient id="paint1_linear_1476_3053" x1="43.2771" y1="34.1685" x2="121.171" y2="-47.021" gradientUnits="userSpaceOnUse">
<stop offset="0.1376" stop-color="#41873F"/>
<stop offset="0.4032" stop-color="#54A044"/>
<stop offset="0.7136" stop-color="#66B848"/>
<stop offset="0.9081" stop-color="#6CC04A"/>
</linearGradient>
<linearGradient id="paint2_linear_1476_3053" x1="-4416.62" y1="8.77685" x2="5331.36" y2="8.77685" gradientUnits="userSpaceOnUse">
<stop offset="0.09192" stop-color="#6CC04A"/>
<stop offset="0.2864" stop-color="#66B848"/>
<stop offset="0.5968" stop-color="#54A044"/>
<stop offset="0.8624" stop-color="#41873F"/>
</linearGradient>
<linearGradient id="paint3_linear_1476_3053" x1="-4.38783" y1="31.0253" x2="101.498" y2="31.0253" gradientUnits="userSpaceOnUse">
<stop offset="0.09192" stop-color="#6CC04A"/>
<stop offset="0.2864" stop-color="#66B848"/>
<stop offset="0.5968" stop-color="#54A044"/>
<stop offset="0.8624" stop-color="#41873F"/>
</linearGradient>
<linearGradient id="paint4_linear_1476_3053" x1="-9705.89" y1="22.6658" x2="28.0242" y2="22.6658" gradientUnits="userSpaceOnUse">
<stop offset="0.09192" stop-color="#6CC04A"/>
<stop offset="0.2864" stop-color="#66B848"/>
<stop offset="0.5968" stop-color="#54A044"/>
<stop offset="0.8624" stop-color="#41873F"/>
</linearGradient>
<linearGradient id="paint5_linear_1476_3053" x1="-103.861" y1="31.1935" x2="100.798" y2="31.1935" gradientUnits="userSpaceOnUse">
<stop offset="0.09192" stop-color="#6CC04A"/>
<stop offset="0.2864" stop-color="#66B848"/>
<stop offset="0.5968" stop-color="#54A044"/>
<stop offset="0.8624" stop-color="#41873F"/>
</linearGradient>
<linearGradient id="paint6_linear_1476_3053" x1="51.1465" y1="18.2287" x2="45.6469" y2="47.2604" gradientUnits="userSpaceOnUse">
<stop stop-color="#41873F"/>
<stop offset="0.3288" stop-color="#418B3D"/>
<stop offset="0.6352" stop-color="#419637"/>
<stop offset="0.9319" stop-color="#3FA92D"/>
<stop offset="1" stop-color="#3FAE2A"/>
</linearGradient>
</defs>
</svg>
