<svg width="100" height="52" viewBox="0 0 100 52" fill="none" xmlns="http://www.w3.org/2000/svg">
<path d="M50 51.5343C77.6143 51.5343 100 40.1939 100 26.2047C100 12.2155 77.6143 0.875 50 0.875C22.3858 0.875 0 12.2155 0 26.2047C0 40.1939 22.3858 51.5343 50 51.5343Z" fill="#6181B6"/>
<path d="M60.124 34.3908L62.6085 21.6316C63.1732 18.7525 62.7025 16.6073 61.216 15.252C59.7853 13.9348 57.3582 13.2948 53.7824 13.2948H49.4928L50.7153 6.97191C50.7533 6.72726 50.6974 6.48261 50.5467 6.29464C50.396 6.10667 50.1708 5.99331 49.9254 5.99331H43.9978C43.6025 5.99331 43.2825 6.27598 43.2072 6.65193L40.5727 20.201C40.328 18.6764 39.7447 17.3592 38.8042 16.2866C37.0729 14.2921 34.3064 13.2948 30.6367 13.2948H19.1388C18.7435 13.2948 18.4235 13.5775 18.3481 13.9534L13.0038 41.3716C12.9665 41.617 13.0225 41.8616 13.1732 42.0496C13.3238 42.2376 13.5491 42.3509 13.7945 42.3509H19.7787C20.1741 42.3509 20.494 42.0676 20.5694 41.6923L21.868 35.0487H26.309C28.6422 35.0487 30.5994 34.8041 32.1426 34.2961C33.7045 33.7874 35.153 32.9222 36.4143 31.737C37.4489 30.7957 38.2962 29.7424 38.9362 28.5945L37.8636 34.0708C37.8256 34.3148 37.8822 34.5601 38.0329 34.7474C38.1836 34.9361 38.4096 35.0487 38.6542 35.0487H44.5818C44.9771 35.0487 45.2971 34.766 45.3724 34.3901L48.2896 19.3358H52.3547C54.0852 19.3358 54.5939 19.6744 54.7259 19.8251C54.8579 19.9571 55.1212 20.4464 54.8199 21.933L52.5046 34.0895C52.4666 34.3349 52.5233 34.5788 52.674 34.7668C52.8246 34.9547 53.0499 35.0681 53.2946 35.0681H59.3168C59.7107 35.0494 60.0486 34.7861 60.124 34.3908ZM32.6491 23.8521C32.2732 25.7713 31.5765 27.1259 30.5599 27.9165C29.5253 28.7071 27.8874 29.1017 25.6676 29.1017H23.0137L24.9336 19.2411H28.3581C30.8799 19.2411 31.8958 19.7871 32.2911 20.2383C32.8565 20.8604 32.9885 22.1023 32.6491 23.8521Z" fill="white"/>
<path d="M85.4723 16.2873C83.7411 14.2928 80.9746 13.2955 77.3048 13.2955H65.8077C65.4123 13.2955 65.0923 13.5782 65.017 13.9542L59.6907 41.3917C59.6526 41.6356 59.71 41.881 59.86 42.0683C60.0106 42.257 60.2366 42.3696 60.4806 42.3696H66.4656C66.8609 42.3696 67.1801 42.0876 67.2562 41.711L68.5548 35.0681H72.9958C75.329 35.0681 77.2862 34.8234 78.8294 34.3148C80.392 33.8075 81.8406 32.9416 83.1011 31.7563C84.1551 30.7777 85.0397 29.6865 85.6983 28.5005C86.3569 27.3153 86.8269 25.998 87.1095 24.5861C87.7689 21.0856 87.2229 18.3012 85.4723 16.2873ZM79.2814 23.8521C78.9062 25.7713 78.2095 27.1259 77.1936 27.9165C76.1583 28.7071 74.5211 29.1017 72.3006 29.1017H69.6475L71.5666 19.2411H74.9918C77.5136 19.2411 78.5295 19.7871 78.9241 20.2383C79.5074 20.8604 79.6201 22.1023 79.2814 23.8521Z" fill="white"/>
</svg>
