<svg width="100" height="63" viewBox="0 0 100 63" fill="none" xmlns="http://www.w3.org/2000/svg">
<path d="M83.6783 19.8496C83.5222 16.4154 83.9905 13.3715 82.4295 10.7958C78.6832 4.39579 69.3172 0.649414 50.5854 0.649414C31.8535 0.649414 22.0193 4.39579 18.2729 10.8739C16.79 13.5276 16.9461 16.4934 16.7119 19.9276C16.5558 22.6594 15.307 25.5472 15.8534 28.6692C16.4778 32.7277 16.7119 36.7863 17.3363 40.5327C17.8046 43.5766 22.0193 46.1522 22.4095 49.0401C23.5022 57.0011 31.7755 60.6694 50.5073 60.6694V61.2938H50.039H50.5854V60.6694C69.3172 60.6694 77.2783 57.0011 78.2929 49.0401C78.6832 46.0742 82.5856 43.5766 83.0539 40.5327C83.6783 36.7863 83.9125 32.7277 84.5369 28.6692C85.0832 25.5472 83.8344 22.5813 83.6783 19.8496Z" fill="#EFCCA3"/>
<path d="M50.2732 22.6594C53.6293 22.7374 55.9708 24.8447 58.1562 26.796C60.7318 29.0594 65.1026 30.6204 66.8977 32.5716C68.6928 34.5229 71.0343 36.4741 71.8929 39.518C72.7514 42.562 72.9856 46.4644 72.9856 47.4791C72.9856 48.4937 73.5319 48.2596 75.0929 47.4791C78.7612 45.6839 82.8198 40.8449 82.8198 40.8449C82.3515 43.8888 78.371 46.6205 77.9807 49.5084C77.0441 57.4694 69.3172 61.2938 50.1951 61.2938H50.1171H50.5854" fill="#CCAC8D"/>
<path d="M62.605 16.5715C63.3074 18.991 65.805 27.1862 60.966 24.4545C60.966 24.4545 62.9952 25.6252 64.244 30.074C65.5709 34.5229 68.7709 35.0692 68.7709 35.0692C68.7709 35.0692 74.0002 36.0839 77.9027 32.7277C81.1807 29.9179 81.7271 24.9228 80.3222 21.0984C78.9173 17.352 76.4197 16.1813 72.7514 15.4008C69.0831 14.5422 61.7464 13.8398 62.605 16.5715Z" fill="#CCAC8D"/>
<path d="M71.8929 32.3375C75.6862 32.3375 78.7612 29.2624 78.7612 25.4691C78.7612 21.6758 75.6862 18.6008 71.8929 18.6008C68.0996 18.6008 65.0245 21.6758 65.0245 25.4691C65.0245 29.2624 68.0996 32.3375 71.8929 32.3375Z" fill="black"/>
<path d="M70.0977 24.2203C71.0892 24.2203 71.8929 23.4166 71.8929 22.4252C71.8929 21.4338 71.0892 20.6301 70.0977 20.6301C69.1063 20.6301 68.3026 21.4338 68.3026 22.4252C68.3026 23.4166 69.1063 24.2203 70.0977 24.2203Z" fill="white"/>
<path d="M61.4342 25.1569C61.4342 25.1569 67.6001 29.3716 70.9563 33.5082C74.3124 37.6448 74.2343 38.4253 74.2343 38.4253L71.8148 39.518C71.8148 39.518 68.3806 33.0399 64.166 30.6204C59.8732 28.2009 59.405 26.1716 59.405 26.1716L61.4342 25.1569Z" fill="#EFCCA3"/>
<path d="M50.5073 22.6594C47.1512 22.7374 44.6536 24.8447 42.3902 26.796C39.8145 29.0594 35.2877 30.6204 33.4925 32.5716C31.6974 34.5229 29.2779 36.4741 28.4193 39.518C27.5608 42.562 27.2486 46.4644 27.2486 47.4791C27.2486 48.4937 27.4047 48.5718 25.1413 47.4791C21.4729 45.762 17.4144 40.8449 17.4144 40.8449C17.8827 43.8888 21.8632 46.6205 22.2534 49.5084C23.3461 57.4694 31.073 61.2938 50.1951 61.2938H50.5854" fill="#CCAC8D"/>
<path d="M68.6148 35.8497C64.8684 31.2448 58.8586 26.9521 50.5073 26.9521H50.4293C42.078 26.9521 36.0682 31.2448 32.3218 35.8497C28.4193 40.6107 28.7315 42.4839 28.7315 47.0108C28.7315 63.4012 34.5072 58.7182 38.3316 60.7475C42.2341 62.6987 46.2927 62.0743 50.4293 62.0743H50.5073C54.722 62.0743 58.7025 62.6207 62.605 60.6694C66.4294 58.7182 72.2051 63.5573 72.2051 47.1669C72.2831 42.64 72.5173 40.6107 68.6148 35.8497Z" fill="#56332B"/>
<path d="M50.1171 31.0106C50.1171 31.0106 49.5707 38.5814 48.478 40.0644L50.5073 39.5961L50.1171 31.0106Z" fill="#442823"/>
<path d="M50.6634 31.0106C50.6634 31.0106 51.2098 38.5814 52.3025 40.0644L50.2732 39.5961L50.6634 31.0106Z" fill="#442823"/>
<path d="M44.1073 29.2155C43.3268 27.4204 46.1365 24.5325 50.5854 24.4545C55.0342 24.4545 57.844 27.3423 57.0635 29.2155C56.283 31.0887 53.4732 31.635 50.5854 31.7131C47.7756 31.635 44.8878 31.0887 44.1073 29.2155Z" fill="#56332B"/>
<path d="M50.5854 31.0106C50.5854 30.6984 53.239 30.6204 54.6439 29.6838C54.6439 29.6838 51.7561 30.6204 51.1317 30.2301C50.5073 29.9179 50.3512 28.9814 50.3512 28.9814C50.3512 28.9814 50.1171 29.9179 49.6488 30.2301C49.1024 30.5423 45.8244 29.6838 45.8244 29.6838C45.8244 29.6838 50.1951 30.7765 50.1951 31.0106C50.1951 31.2448 50.1171 32.0253 50.1171 32.5716C50.1171 34.5229 50.1171 39.3619 50.4293 39.7522C50.8976 40.4546 50.7415 34.5229 50.7415 32.5716C50.6634 31.9472 50.6634 31.3228 50.5854 31.0106Z" fill="black"/>
<path d="M50.7415 41.4693C52.0683 41.4693 54.4098 42.4059 56.5171 43.8888C54.4878 41.6254 52.0683 40.0644 50.7415 40.0644C49.3366 40.0644 46.3707 41.7815 44.2634 44.279C46.4487 42.562 49.2585 41.4693 50.7415 41.4693Z" fill="#7F4A41"/>
<path d="M50.1951 55.284C47.2292 55.284 44.3414 54.3474 41.6877 53.645C41.1414 53.4889 40.595 53.8791 40.0487 53.723C35.1316 52.162 31.1511 49.5084 28.7315 46.1522V46.9327C28.7315 63.3231 34.5072 58.7182 38.3316 60.6694C42.2341 62.6207 46.2927 61.9963 50.4293 61.9963H50.5073C54.722 61.9963 58.7025 62.5426 62.605 60.5914C66.4294 58.6401 72.2051 63.4012 72.2051 47.0108C72.2051 46.3864 72.2051 45.762 72.2831 45.2156C70.0197 48.884 65.883 51.7718 60.7318 53.4889C60.2635 53.645 59.1708 53.2547 58.7025 53.3328C55.8927 54.2694 53.3951 55.284 50.1951 55.284Z" fill="#442823"/>
<path d="M42.7804 46.4644C42.7804 46.4644 40.8292 52.3181 42.156 54.8938L40.3609 54.1133C40.3609 54.1133 41.6877 48.1815 42.7804 46.4644ZM58.2342 46.4644C58.2342 46.4644 60.1854 52.3181 58.8586 54.8938L60.6538 54.1133C60.6538 54.1133 59.2489 48.1815 58.2342 46.4644Z" fill="#442823"/>
<path d="M37.7853 16.5715C37.0828 18.991 34.5852 27.1862 39.4243 24.4545C39.4243 24.4545 37.395 25.6252 36.1462 30.074C34.8974 34.5229 31.6194 35.0692 31.6194 35.0692C31.6194 35.0692 26.39 36.0839 22.4876 32.7277C19.2095 29.9179 18.6632 24.9228 20.068 21.0984C21.4729 17.2739 23.9705 16.1813 27.6388 15.4008C31.3072 14.5422 38.5658 13.8398 37.7853 16.5715Z" fill="#CCAC8D"/>
<path d="M50.5073 40.0644C52.6147 40.0644 59.1708 44.5912 59.2489 50.1328V49.8206C59.2489 44.0449 53.9415 39.44 50.5073 39.44C47.0731 39.44 41.7658 44.123 41.7658 49.8206V50.1328C41.8438 44.5912 48.4 40.0644 50.5073 40.0644Z" fill="black"/>
<path d="M52.2112 29.258C52.5451 29.1719 52.6849 28.5945 52.5233 27.9684C52.3618 27.3423 51.9602 26.9046 51.6263 26.9907C51.2924 27.0769 51.1526 27.6542 51.3141 28.2803C51.4757 28.9064 51.8773 29.3441 52.2112 29.258Z" fill="#331712"/>
<path d="M48.1994 29.2464C48.5288 29.3485 48.9511 28.9307 49.1426 28.3132C49.3342 27.6956 49.2225 27.1122 48.8932 27.01C48.5638 26.9078 48.1415 27.3256 47.9499 27.9432C47.7583 28.5607 47.87 29.1442 48.1994 29.2464Z" fill="#331712"/>
<path d="M28.8876 32.3375C32.6809 32.3375 35.756 29.2624 35.756 25.4691C35.756 21.6758 32.6809 18.6008 28.8876 18.6008C25.0943 18.6008 22.0193 21.6758 22.0193 25.4691C22.0193 29.2624 25.0943 32.3375 28.8876 32.3375Z" fill="black"/>
<path d="M30.6828 24.2203C31.6742 24.2203 32.4779 23.4166 32.4779 22.4252C32.4779 21.4338 31.6742 20.6301 30.6828 20.6301C29.6913 20.6301 28.8876 21.4338 28.8876 22.4252C28.8876 23.4166 29.6913 24.2203 30.6828 24.2203Z" fill="white"/>
<path d="M52.5366 25.5472C52.5366 25.4691 50.7415 26.3277 50.2732 26.4057C49.8049 26.3277 48.0097 25.4691 48.0097 25.5472H52.5366Z" fill="#7F4A41"/>
<path d="M38.878 25.1569C38.878 25.1569 32.712 29.3716 29.3559 33.5082C25.9998 37.6448 26.0778 38.4253 26.0778 38.4253L28.4974 39.518C28.4974 39.518 31.9316 33.0399 36.1462 30.6204C40.3609 28.2009 40.9072 26.1716 40.9072 26.1716L38.878 25.1569Z" fill="#EFCCA3"/>
<path d="M25.3754 12.669C25.3754 12.669 23.2681 18.4447 18.5851 20.8642C18.5851 20.8642 25.9217 20.0057 25.3754 12.669ZM74.6246 12.669C74.6246 12.669 76.7319 18.4447 81.4149 20.8642C81.4149 20.8642 74.0783 20.0057 74.6246 12.669ZM61.2781 23.4398C61.2781 23.4398 56.6732 18.6008 50.5073 18.4447H50.6634C44.4195 18.6008 39.8926 23.4398 39.8926 23.4398C45.278 19.6935 49.8829 19.7715 50.6634 19.7715C50.5854 19.7715 55.8927 19.6935 61.2781 23.4398ZM55.8927 13.2934C55.8927 13.2934 53.5513 10.0153 50.4293 9.9373H50.5854C48.2439 10.0153 45.2 13.2934 45.2 13.2934C47.8536 10.7178 50.5854 10.7958 50.5854 10.7958C50.5854 10.7958 53.161 10.7178 55.8927 13.2934ZM28.8876 37.2546C28.8876 37.2546 25.2193 39.0497 22.5656 37.957H22.4876C20.1461 36.6302 18.9753 32.6497 18.9753 32.6497C18.9753 32.6497 21.3168 39.6741 28.8876 37.2546ZM71.6587 37.2546C71.6587 37.2546 75.327 39.0497 77.9807 37.957C81.1027 36.6302 81.571 32.6497 81.571 32.6497C81.571 32.6497 79.2295 39.6741 71.6587 37.2546Z" fill="#CCAC8D"/>
<path d="M33.1023 12.2788C35.1316 11.8885 38.4877 11.8105 41.1414 12.669C44.4975 13.8398 41.7658 18.1325 42.4682 18.3666C43.1707 18.6008 44.1073 15.4008 50.3512 15.713C56.6732 16.0252 57.3757 18.8349 58.2342 18.3666C59.0928 17.8983 57.3757 10.5617 66.8197 12.2788C66.8197 12.2788 56.9074 9.6251 57.3757 16.8056C57.3757 16.8056 51.6781 12.4349 43.717 16.3374C43.7951 16.3374 45.8244 9.6251 33.1023 12.2788ZM67.6782 12.2788C67.8343 12.2788 67.9123 12.3568 67.9904 12.3568C68.0684 12.3568 67.9123 12.2788 67.6782 12.2788ZM30.3706 2.6787C30.3706 2.6787 21.9412 13.2934 20.6924 17.352C19.4436 21.4886 18.5071 38.4253 17.4144 40.8449L13.5119 24.1423L20.6924 6.73727L30.3706 2.6787ZM70.0197 2.6787C70.0197 2.6787 78.449 13.2934 79.6978 17.352C80.9466 21.4886 81.8832 38.4253 82.9759 40.8449L86.8784 24.1423L79.6978 6.73727L70.0197 2.6787Z" fill="#CCAC8D"/>
<path d="M69.6294 2.6787C69.6294 2.6787 78.6832 10.2495 81.3368 18.991C83.9905 27.7326 82.8978 38.3473 84.9271 39.6741C87.8149 41.5473 91.093 30.3862 92.1857 29.2155C93.9028 27.3423 99.6004 22.5813 99.9907 21.7228C100.381 20.8642 88.4393 7.82996 83.21 5.25433C76.888 2.28845 69.0831 2.0543 69.6294 2.6787Z" fill="#56332B"/>
<path d="M77.3563 7.36167C77.3563 7.36167 88.0491 21.0203 87.893 38.0351L92.1857 29.2936C92.1077 29.2936 88.3613 18.1325 77.3563 7.36167Z" fill="#442823"/>
<path d="M30.3706 2.6787C30.3706 2.6787 21.3168 10.2495 18.6632 18.991C16.0095 27.7326 17.1022 38.3473 15.0729 39.6741C12.185 41.5473 8.90697 30.3862 7.81428 29.2155C6.09719 27.3423 0.399586 22.5813 0.00933905 21.7228C-0.380908 20.8642 11.5607 7.82996 16.79 5.25433C23.112 2.28845 30.9169 2.0543 30.3706 2.6787Z" fill="#56332B"/>
<path d="M22.6437 7.36167C22.6437 7.36167 11.9509 21.0203 12.107 38.0351L7.89233 29.2936C7.89233 29.2936 11.6387 18.1325 22.6437 7.36167Z" fill="#442823"/>
<path d="M16.868 38.3473C16.868 38.3473 17.6485 42.562 18.8973 43.8888C20.1461 45.2156 19.2875 42.8742 19.2875 42.8742C19.2875 42.8742 17.9607 42.1717 18.1949 36.7863C18.429 31.4009 16.868 38.3473 16.868 38.3473ZM83.4442 38.3473C83.4442 38.3473 82.6637 42.562 81.4149 43.8888C80.1661 45.2156 81.0246 42.8742 81.0246 42.8742C81.0246 42.8742 82.3515 42.1717 82.1173 36.7863C81.8832 31.4009 83.4442 38.3473 83.4442 38.3473Z" fill="#CCAC8D"/>
<path d="M42.3902 35.7717C42.735 35.7717 43.0146 35.4921 43.0146 35.1473C43.0146 34.8024 42.735 34.5229 42.3902 34.5229C42.0453 34.5229 41.7658 34.8024 41.7658 35.1473C41.7658 35.4921 42.0453 35.7717 42.3902 35.7717Z" fill="#442823"/>
<path d="M38.7999 39.518C39.1447 39.518 39.4243 39.2385 39.4243 38.8936C39.4243 38.5488 39.1447 38.2692 38.7999 38.2692C38.4551 38.2692 38.1755 38.5488 38.1755 38.8936C38.1755 39.2385 38.4551 39.518 38.7999 39.518Z" fill="#442823"/>
<path d="M37.6292 35.7717C37.974 35.7717 38.2536 35.4921 38.2536 35.1473C38.2536 34.8024 37.974 34.5229 37.6292 34.5229C37.2843 34.5229 37.0048 34.8024 37.0048 35.1473C37.0048 35.4921 37.2843 35.7717 37.6292 35.7717Z" fill="#442823"/>
<path d="M57.6098 35.7717C57.9547 35.7717 58.2342 35.4921 58.2342 35.1473C58.2342 34.8024 57.9547 34.5229 57.6098 34.5229C57.265 34.5229 56.9854 34.8024 56.9854 35.1473C56.9854 35.4921 57.265 35.7717 57.6098 35.7717Z" fill="#442823"/>
<path d="M61.2001 39.518C61.5449 39.518 61.8245 39.2385 61.8245 38.8936C61.8245 38.5488 61.5449 38.2692 61.2001 38.2692C60.8552 38.2692 60.5757 38.5488 60.5757 38.8936C60.5757 39.2385 60.8552 39.518 61.2001 39.518Z" fill="#442823"/>
<path d="M62.3708 35.7717C62.7157 35.7717 62.9952 35.4921 62.9952 35.1473C62.9952 34.8024 62.7157 34.5229 62.3708 34.5229C62.026 34.5229 61.7464 34.8024 61.7464 35.1473C61.7464 35.4921 62.026 35.7717 62.3708 35.7717Z" fill="#442823"/>
</svg>
