<svg width="100" height="110" viewBox="0 0 100 110" fill="none" xmlns="http://www.w3.org/2000/svg">
<path d="M98.9093 44.4521C98.9093 37.9338 90.726 31.7564 78.1793 27.9257C81.0748 15.1697 79.788 5.02107 74.1176 1.77189C72.8106 1.00974 71.2828 0.648709 69.6139 0.648709V5.12135C70.5387 5.12135 71.2828 5.30187 71.9059 5.64281C74.6404 7.20721 75.827 13.164 74.9017 20.8256C74.6809 22.711 74.319 24.6965 73.8766 26.7222C69.9353 25.7595 65.6326 25.0175 61.1087 24.5361C58.3944 20.8256 55.5794 17.4561 52.7442 14.5078C59.299 8.43068 65.4519 5.10126 69.6341 5.10126V0.628662C64.1044 0.628662 56.8662 4.55976 49.5475 11.379C42.2284 4.59986 34.9902 0.708896 29.4609 0.708896V5.1815C33.6229 5.1815 39.7956 8.49086 46.3504 14.5279C43.5354 17.4762 40.7204 20.8256 38.0462 24.5361C33.502 25.0175 29.1993 25.7595 25.2585 26.7423C24.7958 24.7367 24.4541 22.7911 24.2127 20.9259C23.2681 13.2643 24.4339 7.30749 27.1486 5.72304C27.7515 5.36201 28.5357 5.20159 29.4609 5.20159V0.728943C27.7718 0.728943 26.2436 1.08997 24.9168 1.85213C19.2666 5.10126 18 15.2298 20.9153 27.9457C8.40902 31.7966 0.265806 37.954 0.265806 44.4521C0.265806 50.9708 8.44921 57.1482 20.9958 60.9787C18.1003 73.735 19.3871 83.8833 25.0575 87.1325C26.3645 87.8945 27.8923 88.2555 29.5814 88.2555C35.1107 88.2555 42.3493 84.3246 49.668 77.5054C56.9867 84.2847 64.2253 88.1757 69.7546 88.1757C71.4433 88.1757 72.9715 87.8147 74.2988 87.0523C79.9485 83.803 81.2155 73.6744 78.2998 60.959C90.766 57.128 98.9093 50.9506 98.9093 44.4521ZM72.7305 31.0745C71.9864 33.662 71.0616 36.3291 70.0158 38.9967C69.1917 37.3925 68.3271 35.7878 67.382 34.1831C66.4572 32.5788 65.4716 31.0144 64.4866 29.4901C67.3416 29.9112 70.0963 30.4327 72.7305 31.0745ZM63.5213 52.4347C61.953 55.1426 60.3448 57.7097 58.6759 60.0966C55.6797 60.3571 52.644 60.4975 49.5875 60.4975C46.5513 60.4975 43.5152 60.3571 40.5397 60.1163C38.8707 57.7295 37.2418 55.1825 35.6736 52.4948C34.1454 49.8675 32.7584 47.1999 31.4914 44.5126C32.7381 41.8249 34.1454 39.1371 35.6538 36.5099C37.222 33.8024 38.8303 31.235 40.4992 28.8482C43.4954 28.5875 46.5311 28.4471 49.5875 28.4471C52.6237 28.4471 55.6599 28.5875 58.6354 28.8282C60.3043 31.2149 61.9333 33.762 63.5015 36.4498C65.0297 39.077 66.4167 41.7446 67.6837 44.4324C66.4167 47.1197 65.0297 49.8074 63.5213 52.4347ZM70.0158 49.8276C71.0713 52.4414 71.9974 55.1053 72.7908 57.8097C70.1565 58.4515 67.382 58.9933 64.5068 59.4144C65.4919 57.8703 66.477 56.2858 67.4023 54.6609C68.3271 53.0567 69.1917 51.4318 70.0158 49.8276ZM49.6275 71.2279C47.7576 69.3022 45.8877 67.1562 44.0381 64.8097C45.8477 64.89 47.6974 64.9501 49.5673 64.9501C51.4574 64.9501 53.3274 64.9101 55.1572 64.8097C53.4313 67.0469 51.5854 69.1895 49.6275 71.2279ZM34.6683 59.4144C31.8133 58.9933 29.0585 58.4717 26.4248 57.8299C27.1684 55.2426 28.0937 52.575 29.139 49.9074C29.9636 51.5121 30.8282 53.1168 31.7728 54.721C32.7179 56.3257 33.6832 57.89 34.6683 59.4144ZM49.5273 17.6768C51.3972 19.6021 53.2671 21.7482 55.1168 24.0948C53.3071 24.0146 51.4574 23.9545 49.5875 23.9545C47.6974 23.9545 45.8275 23.9946 43.998 24.0948C45.7238 21.8576 47.5696 19.7152 49.5273 17.6768ZM34.648 29.4901C33.663 31.0344 32.6779 32.6189 31.753 34.2432C30.8282 35.8479 29.9636 37.4526 29.139 39.0568C28.0835 36.4431 27.1575 33.7791 26.3645 31.0745C28.9983 30.4528 31.7728 29.9112 34.648 29.4901ZM16.4516 54.6008C9.33394 51.5722 4.72949 47.6013 4.72949 44.4521C4.72949 41.3033 9.33394 37.3122 16.4516 34.3038C18.1808 33.5615 20.0709 32.8997 22.0213 32.2779C23.1674 36.2089 24.6753 40.3005 26.5452 44.4924C24.6956 48.6642 23.2074 52.7356 22.0816 56.6468C20.0912 56.0248 18.201 55.3431 16.4516 54.6008ZM27.2691 83.2617C24.5346 81.6974 23.3481 75.7406 24.2734 68.0787C24.4946 66.1937 24.8561 64.2078 25.2985 62.182C29.2397 63.1449 33.5425 63.8872 38.0664 64.3684C40.7807 68.0787 43.5956 71.4482 46.4309 74.3965C39.8761 80.4739 33.7232 83.803 29.541 83.803C28.6364 83.7833 27.8725 83.6025 27.2691 83.2617ZM74.9624 67.9787C75.907 75.6401 74.7412 81.5969 72.0265 83.1814C71.4235 83.5424 70.6394 83.703 69.7141 83.703C65.5521 83.703 59.3795 80.3936 52.8247 74.3566C55.6397 71.4082 58.4547 68.0589 61.1289 64.3482C65.6731 63.867 69.9758 63.1247 73.9166 62.1421C74.3792 64.1679 74.7412 66.1134 74.9624 67.9787ZM82.7032 54.6008C80.9741 55.3431 79.0839 56.005 77.1335 56.6266C75.9875 52.6957 74.4795 48.6041 72.6096 44.4122C74.4597 40.2404 75.9475 36.169 77.0733 32.2578C79.0641 32.8796 80.9538 33.5615 82.7235 34.3038C89.8412 37.3319 94.4456 41.3033 94.4456 44.4521C94.4253 47.6013 89.8209 51.5924 82.7032 54.6008Z" fill="#61DAFB"/>
<path d="M49.5673 53.6182C54.6425 53.6182 58.7563 49.5146 58.7563 44.4521C58.7563 39.39 54.6425 35.2864 49.5673 35.2864C44.4926 35.2864 40.3787 39.39 40.3787 44.4521C40.3787 49.5146 44.4926 53.6182 49.5673 53.6182ZM4.745 104.037H1.71174V109.248H0V96.3668H4.27494C5.72946 96.3668 6.847 96.6974 7.62747 97.358C8.41387 98.0182 8.8071 98.9797 8.8071 100.242C8.8071 101.044 8.58832 101.743 8.15076 102.339C7.71914 102.934 7.11604 103.38 6.34146 103.674L9.37473 109.142V109.248H7.54766L4.745 104.037ZM1.71174 102.648H4.32817C5.1737 102.648 5.84478 102.43 6.34146 101.994C6.84403 101.557 7.09532 100.973 7.09532 100.242C7.09532 99.4457 6.85585 98.8353 6.37694 98.4106C5.9039 97.9859 5.21803 97.7706 4.31927 97.7648H1.71174V102.648ZM14.927 109.425C13.626 109.425 12.5676 109.001 11.7517 108.151C10.9357 107.296 10.5277 106.155 10.5277 104.727V104.427C10.5277 103.477 10.708 102.631 11.0687 101.888C11.4353 101.138 11.9438 100.554 12.5942 100.136C13.2506 99.7112 13.9601 99.4986 14.7228 99.4986C15.9705 99.4986 16.9403 99.9085 17.6318 100.728C18.3238 101.548 18.6695 102.722 18.6695 104.249V104.931H12.1685C12.1921 105.875 12.4671 106.638 12.9933 107.222C13.5255 107.8 14.1995 108.089 15.0156 108.089C15.5951 108.089 16.0856 107.971 16.4876 107.735C16.89 107.5 17.2416 107.187 17.5433 106.798L18.5454 107.576C17.7411 108.809 16.5352 109.425 14.927 109.425ZM14.7228 100.844C14.0606 100.844 13.5048 101.085 13.0554 101.569C12.606 102.047 12.3281 102.719 12.2217 103.586H17.0289V103.462C16.9817 102.631 16.7569 101.988 16.3549 101.533C15.9525 101.074 15.4085 100.844 14.7228 100.844ZM26.5012 109.248C26.4063 109.059 26.3294 108.723 26.2705 108.24C25.5076 109.03 24.5971 109.425 23.5387 109.425C22.5928 109.425 21.8154 109.16 21.2062 108.629C20.6033 108.092 20.3016 107.414 20.3016 106.594C20.3016 105.598 20.6801 104.825 21.4368 104.276C22.1994 103.722 23.2699 103.444 24.6475 103.444H26.244V102.693C26.244 102.12 26.0723 101.666 25.7297 101.33C25.3866 100.988 24.8808 100.817 24.2127 100.817C23.6273 100.817 23.1368 100.964 22.7407 101.259C22.3446 101.554 22.1463 101.911 22.1463 102.33H20.4967C20.4967 101.852 20.6653 101.392 21.0021 100.949C21.3451 100.501 21.8064 100.148 22.386 99.8879C22.9713 99.6287 23.6125 99.4986 24.3103 99.4986C25.4163 99.4986 26.2822 99.7758 26.909 100.331C27.5357 100.879 27.8608 101.637 27.8846 102.604V107.01C27.8846 107.889 27.997 108.588 28.2218 109.106V109.248H26.5012ZM23.7784 108.001C24.2927 108.001 24.7806 107.868 25.2418 107.603C25.7027 107.337 26.0367 106.992 26.244 106.568V104.604H24.9577C22.9475 104.604 21.9422 105.19 21.9422 106.364C21.9422 106.877 22.1139 107.278 22.4565 107.567C22.7996 107.856 23.2402 108.001 23.7784 108.001ZM34.3059 108.089C34.8913 108.089 35.4029 107.912 35.8404 107.558C36.2779 107.204 36.5202 106.762 36.5674 106.231H38.1199C38.0902 106.78 37.9009 107.302 37.552 107.797C37.2032 108.293 36.736 108.688 36.1506 108.983C35.5711 109.278 34.9565 109.425 34.3059 109.425C32.9993 109.425 31.9585 108.992 31.1838 108.125C30.4155 107.252 30.031 106.06 30.031 104.55V104.276C30.031 103.344 30.2023 102.516 30.5454 101.79C30.8884 101.065 31.379 100.501 32.0178 100.1C32.6621 99.6991 33.422 99.4986 34.2969 99.4986C35.3733 99.4986 36.2662 99.8202 36.9756 100.463C37.691 101.106 38.0722 101.941 38.1199 102.967H36.5674C36.5202 102.347 36.2837 101.84 35.8579 101.445C35.4384 101.044 34.9178 100.844 34.2969 100.844C33.4633 100.844 32.8159 101.144 32.3546 101.746C31.8996 102.342 31.6717 103.206 31.6717 104.338V104.648C31.6717 105.75 31.8996 106.6 32.3546 107.196C32.8101 107.792 33.4606 108.089 34.3059 108.089ZM42.1906 97.358V99.6758H43.9823V100.941H42.1906V106.877C42.1906 107.261 42.2707 107.549 42.4303 107.744C42.5899 107.933 42.8619 108.027 43.2463 108.027C43.4351 108.027 43.6955 107.992 44.0264 107.921V109.248C43.5947 109.366 43.1753 109.425 42.767 109.425C42.0342 109.425 41.4812 109.204 41.1084 108.762C40.7362 108.319 40.55 107.691 40.55 106.877V100.941H38.8024V99.6758H40.55V97.358H42.1906ZM60.5943 109.248H58.8822L52.3814 99.3219V109.248H50.6697V96.3668H52.3814L58.9002 106.338V96.3668H60.5943V109.248ZM69.2861 109.248C69.1912 109.059 69.1144 108.723 69.0555 108.24C68.2925 109.03 67.382 109.425 66.3236 109.425C65.3777 109.425 64.5999 109.16 63.9911 108.629C63.3882 108.092 63.0865 107.414 63.0865 106.594C63.0865 105.598 63.4646 104.825 64.2217 104.276C64.9843 103.722 66.0548 103.444 67.4324 103.444H69.0289V102.693C69.0289 102.12 68.8572 101.666 68.5141 101.33C68.1715 100.988 67.6657 100.817 66.9976 100.817C66.4122 100.817 65.9217 100.964 65.5256 101.259C65.1295 101.554 64.9312 101.911 64.9312 102.33H63.2816C63.2816 101.852 63.4502 101.392 63.787 100.949C64.13 100.501 64.5913 100.148 65.1709 99.8879C65.7563 99.6287 66.3974 99.4986 67.0952 99.4986C68.2008 99.4986 69.0671 99.7758 69.6939 100.331C70.3206 100.879 70.6457 101.637 70.6695 102.604V107.01C70.6695 107.889 70.7819 108.588 71.0067 109.106V109.248H69.2861ZM66.5633 108.001C67.0776 108.001 67.5655 107.868 68.0268 107.603C68.4876 107.337 68.8217 106.992 69.0289 106.568V104.604H67.7426C65.7324 104.604 64.7271 105.19 64.7271 106.364C64.7271 106.877 64.8988 107.278 65.2414 107.567C65.5845 107.856 66.0251 108.001 66.5633 108.001ZM75.4677 97.358V99.6758H77.2594V100.941H75.4677V106.877C75.4677 107.261 75.5478 107.549 75.7074 107.744C75.867 107.933 76.139 108.027 76.5234 108.027C76.7122 108.027 76.9726 107.992 77.3039 107.921V109.248C76.8718 109.366 76.4524 109.425 76.0441 109.425C75.3113 109.425 74.7583 109.204 74.3855 108.762C74.0133 108.319 73.8271 107.691 73.8271 106.877V100.941H72.08V99.6758H73.8271V97.358H75.4677ZM80.9669 109.248H79.3258V99.6758H80.9669V109.248ZM79.1927 97.1364C79.1927 96.8714 79.2728 96.6471 79.4324 96.4642C79.5978 96.2812 79.8401 96.1901 80.1594 96.1901C80.479 96.1901 80.7214 96.2812 80.8868 96.4642C81.0523 96.6471 81.135 96.8714 81.135 97.1364C81.135 97.4019 81.0523 97.623 80.8868 97.8002C80.7214 97.9769 80.479 98.0657 80.1594 98.0657C79.8401 98.0657 79.5978 97.9769 79.4324 97.8002C79.2728 97.623 79.1927 97.4019 79.1927 97.1364ZM86.7672 107.028L89.1438 99.6758H90.8204L87.3791 109.248H86.1283L82.652 99.6758H84.3281L86.7672 107.028ZM96.257 109.425C94.9563 109.425 93.8979 109.001 93.0819 108.151C92.2659 107.296 91.8581 106.155 91.8581 104.727V104.427C91.8581 103.477 92.0384 102.631 92.399 101.888C92.7654 101.138 93.2739 100.554 93.9245 100.136C94.5809 99.7112 95.2904 99.4986 96.0529 99.4986C97.3006 99.4986 98.2704 99.9085 98.9623 100.728C99.6538 101.548 100 102.722 100 104.249V104.931H93.4987C93.5225 105.875 93.7972 106.638 94.3237 107.222C94.8556 107.8 95.53 108.089 96.3456 108.089C96.9252 108.089 97.4161 107.971 97.8181 107.735C98.22 107.5 98.5721 107.187 98.8737 106.798L99.8759 107.576C99.0716 108.809 97.8653 109.425 96.257 109.425ZM96.0529 100.844C95.3911 100.844 94.8349 101.085 94.3858 101.569C93.9362 102.047 93.6583 102.719 93.5522 103.586H98.3589V103.462C98.3117 102.631 98.0869 101.988 97.685 101.533C97.283 101.074 96.739 100.844 96.0529 100.844Z" fill="#61DAFB"/>
</svg>
