<svg width="100" height="76" viewBox="0 0 100 76" fill="none" xmlns="http://www.w3.org/2000/svg">
<path d="M86.0848 43.9887C82.5884 44.0084 79.5608 44.8505 77.0215 46.1042C76.0839 44.2435 75.1463 42.6176 74.9903 41.4034C74.8145 39.9932 74.5996 39.1311 74.8145 37.4469C75.0291 35.7622 76.0058 33.3726 76.0058 33.1768C75.9861 33.0005 75.7907 32.1387 73.779 32.1191C71.7673 32.0995 70.0287 32.5108 69.8334 33.0397C69.638 33.5685 69.2474 34.7829 68.9935 36.0364C68.6419 37.8776 64.9697 44.4 62.8796 47.8277C62.196 46.4958 61.61 45.3206 61.4926 44.3802C61.317 42.9702 61.1019 42.1081 61.317 40.4239C61.5319 38.7392 62.5085 36.3498 62.5085 36.154C62.489 35.9777 62.2937 35.1159 60.282 35.0963C58.2699 35.0767 56.5316 35.488 56.3363 36.0169C56.141 36.5457 55.9261 37.7992 55.4964 39.0136C55.086 40.228 50.2028 51.1183 48.9331 53.9583C48.2885 55.4078 47.7223 56.5634 47.3119 57.3468C46.9017 58.1303 47.2923 57.4056 47.2533 57.4839C46.9017 58.1499 46.7064 58.522 46.7064 58.522V58.5418C46.4329 59.0315 46.1399 59.5014 46.003 59.5014C45.9053 59.5014 45.71 58.1891 46.042 56.3873C46.7648 52.6068 48.5227 46.7114 48.5034 46.496C48.5034 46.398 48.8353 45.3597 47.3703 44.8311C45.9444 44.3022 45.4367 45.1837 45.3193 45.1837C45.2021 45.1837 45.1045 45.497 45.1045 45.497C45.1045 45.497 46.6866 38.8573 42.0769 38.8573C39.186 38.8573 35.2012 42.0108 33.2284 44.89C31.9783 45.5756 29.3218 47.0248 26.5091 48.5724C25.4348 49.16 24.3214 49.7867 23.2666 50.3548L23.0519 50.1193C17.4655 44.1454 7.13259 39.9146 7.56231 31.884C7.71858 28.9656 8.73429 21.268 27.408 11.9447C42.7023 4.30588 54.9495 6.40167 57.0784 11.0633C60.106 17.7228 50.5348 30.1017 34.6352 31.884C28.58 32.5696 25.3959 30.2192 24.5952 29.3378C23.7553 28.4172 23.6381 28.378 23.3256 28.5543C22.8177 28.8285 23.1303 29.6512 23.3256 30.1408C23.7944 31.3748 25.7477 33.5685 29.0683 34.6654C31.9785 35.6251 39.0887 36.154 47.6832 32.8242C57.313 29.0831 64.8331 18.7022 62.6259 10.0252C60.3796 1.19159 45.769 -1.70725 31.9592 3.20902C23.7356 6.14704 14.8286 10.7303 8.42176 16.7435C0.803911 23.8731 -0.407132 30.1016 0.100725 32.6871C1.87842 41.9125 14.5551 47.9256 19.6337 52.3718C19.3798 52.5087 19.1454 52.6458 18.9305 52.7635C16.3912 54.0169 6.7224 59.0901 4.30031 64.4566C1.5657 70.5285 4.73004 74.8966 6.83959 75.4842C13.3636 77.3058 20.0439 74.0348 23.6575 68.6484C27.2513 63.262 26.8218 56.2696 25.1615 53.0769L25.1027 52.9594L27.0951 51.7842C28.3844 51.0203 29.6541 50.3152 30.7673 49.7078C30.1424 51.4119 29.693 53.4293 29.4588 56.3673C29.1853 59.8148 30.5917 64.2804 32.4473 66.0432C33.2677 66.8069 34.2443 66.8266 34.8499 66.8266C36.9985 66.8266 37.9751 65.0441 39.0494 62.9093C40.3777 60.3042 41.5497 57.2879 41.5497 57.2879C41.5497 57.2879 40.0847 65.4556 44.0889 65.4556C45.5539 65.4556 47.0189 63.5556 47.683 62.5763V62.5959C47.683 62.5959 47.7221 62.5371 47.8002 62.4C47.8822 62.2785 47.9603 62.1545 48.0346 62.0281V61.9889C48.6206 60.9704 49.9293 58.6396 51.8826 54.781C54.4021 49.8059 56.8244 43.5773 56.8244 43.5773C56.8244 43.5773 57.0588 45.1051 57.7815 47.6122C58.2111 49.101 59.1487 50.7265 59.8714 52.313C59.2854 53.1357 58.9338 53.606 58.9338 53.606L58.9533 53.6256C58.4847 54.2523 57.9571 54.9185 57.4104 55.5842C55.4181 57.9738 53.035 60.6966 52.7225 61.48C52.3514 62.4004 52.4295 63.086 53.1522 63.6346C53.6796 64.0263 54.6172 64.1045 55.6134 64.0263C57.4104 63.9086 58.6605 63.4583 59.2856 63.1839C60.2622 62.8313 61.3756 62.3025 62.4499 61.519C64.4032 60.0698 65.5947 58.0132 65.4775 55.271C65.4189 53.7629 64.9306 52.2743 64.3251 50.864C64.5009 50.6094 64.6769 50.3546 64.8525 50.0805C67.9387 45.5558 70.3217 40.581 70.3217 40.581C70.3217 40.581 70.5561 42.1087 71.2788 44.6158C71.6497 45.889 72.3922 47.2798 73.0563 48.6509C70.1654 51.0209 68.3489 53.7631 67.7238 55.565C66.5714 58.8948 67.4699 60.403 69.1693 60.7555C69.9308 60.9122 71.0249 60.5597 71.8451 60.2071C72.8608 59.8741 74.0914 59.3059 75.2245 58.4639C77.1778 57.0145 79.0529 54.997 78.9553 52.2745C78.8967 51.0209 78.5646 49.7869 78.1153 48.6117C80.5765 47.5932 83.7602 47.0056 87.8037 47.4953C96.4959 48.5138 98.2148 53.9589 97.8829 56.231C97.5508 58.5032 95.7343 59.7566 95.1286 60.1483C94.523 60.5205 94.3277 60.6578 94.3863 60.9318C94.4644 61.3433 94.7379 61.3235 95.2653 61.2454C95.988 61.1277 99.836 59.3846 99.9923 55.1933C100.227 49.8061 95.1286 43.9301 86.0848 43.9887ZM19.0477 66.6506C16.1763 69.804 12.133 70.9988 10.4141 69.9803C8.55849 68.903 9.28102 64.261 12.8167 60.9116C14.9653 58.8746 17.7585 56.9943 19.5946 55.8387C20.0048 55.584 20.6299 55.2121 21.3721 54.7614C21.4893 54.6832 21.5674 54.6439 21.5674 54.6439C21.7042 54.5655 21.8604 54.4676 22.0167 54.3697C23.3254 59.1488 22.0753 63.3404 19.0477 66.6506ZM40.0456 52.3326C39.0494 54.781 36.9399 61.0683 35.6702 60.7158C34.5762 60.422 33.9123 55.6624 35.4552 50.9616C36.2365 48.5914 37.8968 45.7711 38.8734 44.674C40.4558 42.9112 42.1745 42.3236 42.6044 43.0483C43.1123 43.9887 40.6707 50.8049 40.0456 52.3326ZM57.3714 60.6374C56.9416 60.8531 56.551 61.0096 56.3752 60.8922C56.2384 60.8139 56.5508 60.5201 56.5508 60.5201C56.5508 60.5201 58.7189 58.1893 59.5784 57.112C60.0667 56.4854 60.6527 55.7607 61.2777 54.9379V55.1729C61.2779 57.9932 58.5824 59.8735 57.3714 60.6374ZM70.7317 57.5819C70.4192 57.3468 70.4584 56.6221 71.513 54.3501C71.9234 53.4491 72.8608 51.9409 74.482 50.5111C74.6774 51.0987 74.7947 51.6665 74.775 52.1955C74.7557 55.7211 72.2555 57.0335 70.7317 57.5819Z" fill="#CF649A"/>
</svg>
