<svg width="100" height="100" viewBox="0 0 100 100" fill="none" xmlns="http://www.w3.org/2000/svg">
<path d="M0 50V0H100V100H0" fill="#007ACC"/>
<path d="M21.925 50.175V54.25H34.925V91.25H44.15V54.25H57.15V50.25C57.15 48 57.15 46.175 57.05 46.125C57.05 46.05 49.125 46.025 39.5 46.025L22 46.1V50.2L21.925 50.175ZM80.35 46C82.9 46.6 84.85 47.75 86.6 49.575C87.525 50.575 88.9 52.325 89 52.775C89 52.925 84.675 55.85 82.05 57.475C81.95 57.55 81.55 57.125 81.15 56.475C79.85 54.625 78.525 53.825 76.45 53.675C73.45 53.475 71.45 55.05 71.45 57.675C71.45 58.475 71.6 58.925 71.9 59.575C72.575 60.95 73.825 61.775 77.7 63.475C84.85 66.55 87.95 68.575 89.825 71.475C91.95 74.725 92.425 79.825 91 83.65C89.4 87.825 85.5 90.65 79.925 91.575C78.175 91.875 74.175 91.825 72.3 91.5C68.3 90.75 64.475 88.75 62.125 86.175C61.2 85.175 59.425 82.5 59.525 82.325L60.475 81.725L64.225 79.55L67.05 77.9L67.7 78.775C68.525 80.075 70.375 81.825 71.45 82.425C74.7 84.1 79.05 83.875 81.2 81.925C82.125 81.075 82.525 80.175 82.525 78.925C82.525 77.775 82.35 77.25 81.775 76.375C80.975 75.275 79.375 74.375 74.875 72.375C69.7 70.175 67.5 68.775 65.45 66.625C64.275 65.325 63.2 63.3 62.7 61.625C62.325 60.175 62.2 56.625 62.55 55.2C63.625 50.2 67.4 46.7 72.8 45.7C74.55 45.35 78.675 45.5 80.4 45.95L80.35 46Z" fill="white"/>
</svg>
