<svg width="100" height="101" viewBox="0 0 100 101" fill="none" xmlns="http://www.w3.org/2000/svg">
<path d="M97.7941 50.4094C97.7941 76.8054 76.396 98.2035 50 98.2035C23.604 98.2035 2.20588 76.8054 2.20588 50.4094C2.20588 24.0135 23.604 2.61531 50 2.61531C76.396 2.61531 97.7941 24.0135 97.7941 50.4094Z" fill="white"/>
<path d="M29.9971 31.2712H24.4747L39.5301 73.8291L47.9586 49.7435L41.4239 31.2712H35.5973V27.216H61.3992V31.2712H55.357L70.4122 73.8291L75.8239 58.3639C82.9231 38.5499 70.0054 32.3778 70.0054 27.9558C70.0054 23.5338 73.5902 19.9493 78.0119 19.9493C78.2511 19.9493 78.4835 19.9623 78.7111 19.9835C71.2188 12.9107 61.1161 8.5734 49.9995 8.5734C35.474 8.5734 22.6792 15.9774 15.1787 27.216H29.9966L29.9971 31.2712Z" fill="#00769D"/>
<path d="M8.16398 50.4094C8.16398 66.4264 17.1665 80.3388 30.3862 87.3689L11.5064 33.9999C9.35569 39.0384 8.16398 44.5847 8.16398 50.4094Z" fill="#00769D"/>
<path d="M86.4095 29.794C87.008 33.3175 86.8268 37.2778 85.9085 41.2534H86.0749L85.4423 43.061C85.0675 44.3662 84.5955 45.7013 84.0594 47.0132L69.6641 87.3419C82.856 80.3033 91.8356 66.4059 91.8356 50.4092C91.8356 42.9133 89.8623 35.879 86.4095 29.794Z" fill="#00769D"/>
<path d="M37.0973 90.2143C41.1616 91.5309 45.4969 92.245 50 92.245C54.2951 92.245 58.4385 91.5968 62.3391 90.3943L50.1016 55.8017L37.0973 90.2143Z" fill="#00769D"/>
<path d="M85.3552 15.054C75.9115 5.61031 63.3553 0.409424 49.9998 0.409424C36.6443 0.409424 24.0883 5.61031 14.6446 15.054C5.20088 24.4977 0 37.0537 0 50.4094C0 63.7649 5.20088 76.3209 14.6446 85.7646C24.0883 95.2083 36.6445 100.409 50 100.409C63.3555 100.409 75.9115 95.2083 85.3554 85.7646C94.7991 76.3209 100 63.7647 100 50.4094C99.9998 37.0537 94.7989 24.4977 85.3552 15.054ZM49.9998 96.8821C24.3747 96.8821 3.52712 76.0345 3.52712 50.4094C3.52712 24.7843 24.3747 3.93654 49.9998 3.93654C75.6249 3.93654 96.4724 24.7843 96.4724 50.4094C96.4724 76.0345 75.6251 96.8821 49.9998 96.8821Z" fill="#00769D"/>
</svg>
