<svg width="125" height="125" viewBox="0 0 125 125" fill="none" xmlns="http://www.w3.org/2000/svg">
<path d="M62.4997 0.00012207C97.0043 0.00012207 124.999 27.9923 124.999 62.4998C124.999 97.0072 97.0043 124.999 62.4997 124.999C27.995 124.999 0 97.0072 0 62.4998C0 27.9923 27.9922 0.00012207 62.4997 0.00012207Z" fill="#2C8EBB"/>
<path d="M105.019 81.4438C104.584 78.0162 101.689 75.6531 97.9685 75.7032C92.4174 75.7757 87.7609 78.646 84.6761 80.5521C83.6665 81.1875 82.6185 81.7598 81.5382 82.2659C81.7333 79.4652 81.5661 75.8008 80.117 71.7684C78.3559 66.9419 75.9928 63.9741 74.3012 62.2603C76.2519 59.4123 78.9355 55.2657 80.1895 48.8424C81.3042 43.3638 80.9363 34.8449 78.4534 30.0686C77.9462 29.1044 77.1018 28.4021 76.0401 28.1179C75.6054 27.9981 74.7861 27.7556 73.1698 28.2154C70.7315 23.1994 69.8871 22.6421 69.2406 22.2073C67.8891 21.3379 66.2979 21.1484 64.8015 21.7002C62.795 22.4247 61.084 24.3559 59.4677 27.7807L58.8157 29.2521C55.7503 29.4694 50.9238 30.5785 46.8469 34.9926C46.3397 35.55 45.3504 35.9568 44.311 36.3442H44.3389C42.2154 37.091 41.2512 38.8299 40.0669 41.9677C38.4227 46.3595 40.1143 50.6788 41.7807 53.4767C39.5123 55.5026 36.4971 58.7379 34.9032 62.525C32.9525 67.2067 32.7073 71.7907 32.7797 74.2765C31.091 76.0599 28.4882 79.4151 28.1956 83.1799C27.8055 88.4412 29.7172 92.0137 30.5643 93.315C30.7968 93.678 31.0637 94.0176 31.3613 94.3294C31.2638 94.9815 31.2415 95.6809 31.3892 96.4055C31.7041 98.0942 32.7658 99.4708 34.3821 100.335C37.5672 102.023 42.0064 102.748 45.434 101.031C46.6657 102.336 48.909 103.59 52.9581 103.59H53.2005C54.2371 103.59 67.4126 102.893 71.2498 101.945C72.5956 101.646 73.8519 101.034 74.9171 100.159C77.3777 99.3872 84.1828 97.0715 90.6061 92.9193C95.1428 89.9766 96.7089 89.3468 100.089 88.5275C103.372 87.7305 105.423 84.7376 105.013 81.4326L105.019 81.4438ZM99.2783 84.9912C95.4159 85.9108 93.4625 86.7524 88.6833 89.8679C81.2261 94.6945 73.0695 96.9377 73.0695 96.9377C73.0695 96.9377 72.3952 97.9521 70.4389 98.4091C67.0614 99.2284 54.343 99.9306 53.1838 99.9529C50.0711 99.9808 48.1678 99.1559 47.6327 97.8768C46.0164 94.0145 49.9457 92.3258 49.9457 92.3258C49.9457 92.3258 49.0762 91.7963 48.569 91.3114C48.1092 90.8516 47.6271 89.9348 47.4544 90.2748C46.8524 91.7461 46.5348 95.341 44.9185 96.9628C42.6975 99.2061 38.5008 98.4593 36.015 97.1579C33.2841 95.7088 36.2101 92.3091 36.2101 92.3091C36.2101 92.3091 34.7388 93.1785 33.5544 91.3895C32.4955 89.7453 31.5034 86.9503 31.7709 83.4976C32.0607 79.5684 36.4526 75.7506 36.4526 75.7506C36.4526 75.7506 35.6806 69.9348 38.2137 63.9741C40.5072 58.5456 46.6852 54.1761 46.6852 54.1761C46.6852 54.1761 41.4964 48.4356 43.4248 43.2691C44.6788 39.8916 45.186 39.9139 45.5984 39.769C47.0475 39.2117 48.4464 38.6097 49.4831 37.4756C54.6719 31.8743 61.2847 32.9388 61.2847 32.9388C61.2847 32.9388 64.4225 23.4084 67.3178 25.2643C68.2096 25.844 71.4198 32.9834 71.4198 32.9834C71.4198 32.9834 74.8474 30.977 75.232 31.7294C77.3081 35.759 77.5449 43.4614 76.6309 48.1374C75.0871 55.8565 71.2248 60.0087 69.6809 62.617C69.3187 63.2189 73.8331 65.125 76.6755 73.0169C79.3061 80.2344 76.9653 86.2898 77.3722 86.9642L77.4697 87.1314C77.4697 87.1314 80.4849 87.3739 86.5431 83.6313C89.7757 81.6249 93.6129 79.3844 97.9824 79.3399C102.204 79.2674 102.422 84.2165 99.2365 84.9857L99.2783 84.9912Z" fill="white"/>
</svg>
